<?xml version="1.0" encoding="UTF-8"?>
<!DOCTYPE svg PUBLIC "-//W3C//DTD SVG 1.1//EN" "http://www.w3.org/Graphics/SVG/1.1/DTD/svg11.dtd">
<!-- Creator: CorelDRAW -->
<svg xmlns="http://www.w3.org/2000/svg" xml:space="preserve" width="2100px" height="50px" version="1.1" style="shape-rendering:geometricPrecision; text-rendering:geometricPrecision; image-rendering:optimizeQuality; fill-rule:evenodd; clip-rule:evenodd"
viewBox="0 0 431.03 10.26"
 xmlns:xlink="http://www.w3.org/1999/xlink"
 xmlns:xodm="http://www.corel.com/coreldraw/odm/2003">
 <defs>
  <style type="text/css">
   <![CDATA[
    .fil0 {fill:#361F1F;fill-rule:nonzero}
    .fil1 {fill:#361F1F;fill-rule:nonzero}
   ]]>
  </style>
 </defs>
 <g id="Camada_x0020_1">
  <metadata id="CorelCorpID_0Corel-Layer"/>
  <g id="_1625025986800">
   <g>
    <path class="fil0" d="M200.54 4.23c0.69,-0.16 1.76,-0.24 3.02,0.05 0.63,0.14 1.3,0.36 2,0.65 0.7,0.28 1.42,0.63 2.19,1 0.94,0.45 1.9,0.9 2.85,1.35 0.48,0.23 0.95,0.44 1.43,0.58 0.48,0.14 0.98,0.18 1.45,0.09 0.46,-0.09 0.91,-0.33 1.16,-0.7 0.27,-0.37 0.37,-0.85 0.24,-1.26 -0.06,-0.21 -0.18,-0.4 -0.34,-0.52 -0.17,-0.12 -0.36,-0.2 -0.56,-0.22 -0.4,-0.06 -0.81,0.11 -0.99,0.43 0.17,-0.33 0.58,-0.51 0.99,-0.47 0.21,0.01 0.42,0.08 0.6,0.21 0.18,0.12 0.32,0.33 0.4,0.54 0.15,0.45 0.07,0.98 -0.2,1.41 -0.29,0.44 -0.77,0.73 -1.3,0.86 -0.52,0.13 -1.09,0.1 -1.63,-0.02 -0.54,-0.12 -1.06,-0.31 -1.57,-0.5 -1.01,-0.37 -2.04,-0.74 -3.04,-1.11 -1.39,-0.51 -2.59,-0.94 -3.62,-1.12 -1.03,-0.21 -1.85,-0.18 -2.47,-0.07 -0.36,0.06 -0.72,0.16 -1.07,0.3 -0.69,0.28 -1.24,0.71 -1.61,1.22 -0.38,0.51 -0.59,1.07 -0.7,1.57 -0.23,0.99 -0.06,1.68 -0.24,1.76 -0.07,0.03 -0.23,-0.09 -0.38,-0.4 -0.15,-0.3 -0.3,-0.79 -0.3,-1.41 0,-0.63 0.15,-1.39 0.59,-2.13 0.22,-0.36 0.51,-0.72 0.87,-1.03 0.35,-0.31 0.77,-0.57 1.22,-0.76 0.34,-0.14 0.68,-0.23 1.01,-0.3z"/>
    <path class="fil0" d="M211.93 6.07c0.1,0.09 0.26,0.28 0.59,0.48 0.22,0.11 0.53,0.12 0.79,0.02 0.27,-0.1 0.46,-0.32 0.53,-0.53 -0.04,0.21 -0.14,0.5 -0.38,0.75 -0.23,0.26 -0.58,0.48 -1,0.57 -0.6,0.12 -1.05,-0.11 -1.27,-0.25 -0.07,-0.05 -0.14,-0.09 -0.2,-0.15 -0.25,-0.23 -0.36,-0.52 -0.37,-0.75 -0.01,-0.23 0.1,-0.4 0.26,-0.48 0.16,-0.08 0.35,-0.06 0.52,0 0.17,0.05 0.33,0.15 0.46,0.27 0.03,0.02 0.05,0.04 0.07,0.07z"/>
    <path class="fil0" d="M211.72 4c0.01,0.08 -0.04,0.22 -0.02,0.52 0.02,0.19 0.14,0.39 0.31,0.52 0.16,0.13 0.36,0.2 0.52,0.2 -0.15,0.03 -0.37,0.07 -0.62,0.05 -0.26,-0.01 -0.56,-0.09 -0.84,-0.26 -0.41,-0.24 -0.56,-0.61 -0.61,-0.82 -0.01,-0.06 -0.03,-0.13 -0.03,-0.2 -0.02,-0.28 0.11,-0.52 0.27,-0.64 0.17,-0.13 0.36,-0.14 0.51,-0.05 0.16,0.08 0.28,0.21 0.36,0.32 0.09,0.11 0.15,0.21 0.15,0.31 0,0.02 0,0.03 0,0.05z"/>
    <path class="fil0" d="M213.58 3.27c-0.08,0.09 -0.26,0.2 -0.48,0.4 -0.13,0.13 -0.21,0.36 -0.18,0.57 0.02,0.22 0.17,0.4 0.33,0.46 -0.16,-0.03 -0.39,-0.12 -0.58,-0.34 -0.18,-0.22 -0.33,-0.52 -0.36,-0.88 -0.04,-0.51 0.16,-0.83 0.27,-1 0.03,-0.05 0.07,-0.1 0.11,-0.15 0.35,-0.35 0.79,-0.32 1.02,-0.05 0.23,0.28 0.15,0.71 -0.07,0.94 -0.02,0.02 -0.04,0.04 -0.06,0.05z"/>
    <path class="fil0" d="M209.96 7.08c-1.48,-0.93 -2.78,-1.72 -3.87,-2.25 -1.1,-0.54 -1.98,-0.83 -2.58,-0.98l-0.04 -0.01c-0.14,-0.03 -0.26,-0.06 -0.36,-0.08 -0.11,-0.03 -0.2,-0.04 -0.27,-0.06 -0.14,-0.03 -0.22,-0.04 -0.22,-0.04 -1.2,-0.2 -2.31,-0.15 -3.1,0 -0.81,0.14 -1.31,0.35 -1.42,0.23 -0.1,-0.09 0.24,-0.51 1.05,-0.87 0.79,-0.37 2.05,-0.61 3.41,-0.41 1.05,0.14 2.09,0.53 2.99,1.02 0.9,0.48 1.68,1.06 2.33,1.58 0.64,0.52 1.16,1 1.52,1.34 0.35,0.33 0.56,0.53 0.56,0.53z"/>
    <path class="fil0" d="M210.46 6.83c-0.97,-0.39 -1.68,-1.08 -2.12,-1.74 -0.44,-0.66 -0.62,-1.29 -0.7,-1.7l0 -0.03c-0.04,-0.19 -0.05,-0.34 -0.06,-0.44 -0.01,-0.1 -0.01,-0.16 -0.01,-0.16 -0.03,-0.84 0.2,-1.61 0.48,-2.09 0.28,-0.49 0.58,-0.72 0.7,-0.66 0.27,0.12 -0.18,1.22 -0.15,2.6 0,0.54 0.08,1.09 0.23,1.6 0.15,0.51 0.37,0.99 0.61,1.38 0.25,0.4 0.5,0.71 0.7,0.92 0.1,0.1 0.18,0.18 0.24,0.23 0.05,0.06 0.08,0.09 0.08,0.09z"/>
    <path class="fil0" d="M230.49 4.23c-0.69,-0.16 -1.76,-0.24 -3.02,0.05 -0.63,0.14 -1.3,0.36 -1.99,0.65 -0.7,0.28 -1.42,0.63 -2.19,1 -0.94,0.45 -1.91,0.9 -2.86,1.35 -0.47,0.23 -0.94,0.44 -1.42,0.58 -0.48,0.14 -0.98,0.18 -1.45,0.09 -0.47,-0.09 -0.91,-0.33 -1.17,-0.7 -0.26,-0.37 -0.36,-0.85 -0.24,-1.26 0.07,-0.21 0.18,-0.4 0.35,-0.52 0.16,-0.12 0.36,-0.2 0.56,-0.22 0.39,-0.06 0.81,0.11 0.98,0.43 -0.16,-0.33 -0.57,-0.51 -0.98,-0.47 -0.21,0.01 -0.42,0.08 -0.6,0.21 -0.19,0.12 -0.32,0.33 -0.4,0.54 -0.16,0.45 -0.08,0.98 0.2,1.41 0.28,0.44 0.77,0.73 1.29,0.86 0.53,0.13 1.1,0.1 1.64,-0.02 0.54,-0.12 1.05,-0.31 1.56,-0.5 1.01,-0.37 2.04,-0.74 3.04,-1.11 1.39,-0.51 2.59,-0.94 3.62,-1.12 1.03,-0.21 1.86,-0.18 2.47,-0.07 0.36,0.06 0.72,0.16 1.07,0.3 0.7,0.28 1.24,0.71 1.61,1.22 0.39,0.51 0.59,1.07 0.71,1.57 0.22,0.99 0.05,1.68 0.23,1.76 0.08,0.03 0.23,-0.09 0.38,-0.4 0.16,-0.3 0.3,-0.79 0.31,-1.41 -0.01,-0.63 -0.16,-1.39 -0.6,-2.13 -0.21,-0.36 -0.51,-0.72 -0.86,-1.03 -0.36,-0.31 -0.78,-0.57 -1.23,-0.76 -0.33,-0.14 -0.67,-0.23 -1.01,-0.3z"/>
    <path class="fil0" d="M219.1 6.07c-0.1,0.09 -0.25,0.28 -0.59,0.48 -0.22,0.11 -0.53,0.12 -0.79,0.02 -0.26,-0.1 -0.45,-0.32 -0.52,-0.53 0.03,0.21 0.13,0.5 0.37,0.75 0.23,0.26 0.58,0.48 1,0.57 0.6,0.12 1.05,-0.11 1.27,-0.25 0.07,-0.05 0.14,-0.09 0.2,-0.15 0.25,-0.23 0.37,-0.52 0.37,-0.75 0.01,-0.23 -0.09,-0.4 -0.25,-0.48 -0.17,-0.08 -0.35,-0.06 -0.52,0 -0.18,0.05 -0.33,0.15 -0.47,0.27 -0.02,0.02 -0.05,0.04 -0.07,0.07z"/>
    <path class="fil0" d="M219.31 4c0,0.08 0.04,0.22 0.02,0.52 -0.02,0.19 -0.14,0.39 -0.3,0.52 -0.17,0.13 -0.37,0.2 -0.53,0.2 0.16,0.03 0.37,0.07 0.63,0.05 0.25,-0.01 0.55,-0.09 0.84,-0.26 0.4,-0.24 0.55,-0.61 0.6,-0.82 0.02,-0.06 0.03,-0.13 0.03,-0.2 0.02,-0.28 -0.1,-0.52 -0.27,-0.64 -0.16,-0.13 -0.35,-0.14 -0.51,-0.05 -0.16,0.08 -0.27,0.21 -0.36,0.32 -0.09,0.11 -0.14,0.21 -0.15,0.31 0,0.02 0,0.03 0,0.05z"/>
    <path class="fil0" d="M217.46 3.27c0.08,0.09 0.25,0.2 0.47,0.4 0.14,0.13 0.21,0.36 0.18,0.57 -0.02,0.22 -0.17,0.4 -0.33,0.46 0.16,-0.03 0.4,-0.12 0.58,-0.34 0.19,-0.22 0.33,-0.52 0.37,-0.88 0.03,-0.51 -0.17,-0.83 -0.28,-1 -0.03,-0.05 -0.07,-0.1 -0.11,-0.15 -0.34,-0.35 -0.79,-0.32 -1.01,-0.05 -0.24,0.28 -0.15,0.71 0.06,0.94 0.02,0.02 0.05,0.04 0.07,0.05z"/>
    <path class="fil0" d="M221.07 7.08c1.49,-0.93 2.78,-1.72 3.88,-2.25 1.09,-0.54 1.98,-0.83 2.58,-0.98l0.03 -0.01c0.14,-0.03 0.26,-0.06 0.37,-0.08 0.1,-0.03 0.19,-0.04 0.26,-0.06 0.15,-0.03 0.22,-0.04 0.22,-0.04 1.2,-0.2 2.31,-0.15 3.11,0 0.8,0.14 1.31,0.35 1.41,0.23 0.1,-0.09 -0.24,-0.51 -1.04,-0.87 -0.79,-0.37 -2.06,-0.61 -3.41,-0.41 -1.05,0.14 -2.09,0.53 -2.99,1.02 -0.91,0.48 -1.69,1.06 -2.33,1.58 -0.65,0.52 -1.16,1 -1.52,1.34 -0.36,0.33 -0.57,0.53 -0.57,0.53z"/>
    <path class="fil0" d="M220.57 6.83c0.97,-0.39 1.69,-1.08 2.12,-1.74 0.45,-0.66 0.62,-1.29 0.7,-1.7l0.01 -0.03c0.03,-0.19 0.05,-0.34 0.05,-0.44 0.01,-0.1 0.01,-0.16 0.01,-0.16 0.03,-0.84 -0.2,-1.61 -0.48,-2.09 -0.27,-0.49 -0.57,-0.72 -0.7,-0.66 -0.26,0.12 0.19,1.22 0.16,2.6 -0.01,0.54 -0.08,1.09 -0.23,1.6 -0.15,0.51 -0.38,0.99 -0.62,1.38 -0.24,0.4 -0.5,0.71 -0.7,0.92 -0.09,0.1 -0.17,0.18 -0.23,0.23 -0.06,0.06 -0.09,0.09 -0.09,0.09z"/>
   </g>
   <g>
    <path class="fil1" d="M265.47 6.01c-0.55,0 -1.03,-0.08 -1.07,-0.19 -0.05,-0.11 0.36,-0.2 0.9,-0.21 0.55,-0.01 1.03,0.07 1.07,0.18 0.05,0.11 -0.36,0.21 -0.9,0.22z"/>
    <path class="fil1" d="M267.66 6.01c-0.54,0 -1.02,-0.08 -1.07,-0.19 -0.04,-0.11 0.36,-0.2 0.91,-0.21 0.54,-0.01 1.02,0.07 1.07,0.18 0.04,0.11 -0.36,0.21 -0.91,0.22z"/>
    <path class="fil1" d="M269.86 6.01c-0.55,0 -1.03,-0.08 -1.07,-0.19 -0.05,-0.11 0.36,-0.2 0.9,-0.21 0.55,-0.01 1.03,0.07 1.07,0.18 0.05,0.11 -0.36,0.21 -0.9,0.22z"/>
    <path class="fil1" d="M272.05 6.01c-0.54,0 -1.02,-0.08 -1.07,-0.19 -0.04,-0.11 0.36,-0.2 0.91,-0.21 0.54,-0.01 1.02,0.07 1.07,0.18 0.04,0.11 -0.36,0.21 -0.91,0.22z"/>
    <path class="fil1" d="M274.25 6.01c-0.55,0 -1.02,-0.08 -1.07,-0.19 -0.04,-0.11 0.36,-0.2 0.9,-0.21 0.55,-0.01 1.03,0.07 1.07,0.18 0.05,0.11 -0.36,0.21 -0.9,0.22z"/>
    <path class="fil1" d="M276.44 6.01c-0.54,0 -1.02,-0.08 -1.06,-0.19 -0.05,-0.11 0.36,-0.2 0.9,-0.21 0.54,-0.01 1.02,0.07 1.07,0.18 0.04,0.11 -0.36,0.21 -0.91,0.22z"/>
    <path class="fil1" d="M278.64 6.01c-0.55,0 -1.02,-0.08 -1.07,-0.19 -0.04,-0.11 0.36,-0.2 0.91,-0.21 0.54,-0.01 1.02,0.07 1.06,0.18 0.05,0.11 -0.36,0.21 -0.9,0.22z"/>
    <path class="fil1" d="M280.83 6.01c-0.54,0 -1.02,-0.08 -1.06,-0.19 -0.05,-0.11 0.36,-0.2 0.9,-0.21 0.55,-0.01 1.02,0.07 1.07,0.18 0.04,0.11 -0.36,0.21 -0.91,0.22z"/>
    <path class="fil1" d="M283.03 6.01c-0.54,0 -1.02,-0.08 -1.07,-0.19 -0.04,-0.11 0.36,-0.2 0.91,-0.21 0.54,-0.01 1.02,0.07 1.06,0.18 0.05,0.11 -0.36,0.21 -0.9,0.22z"/>
    <path class="fil1" d="M285.23 6.01c-0.55,0 -1.03,-0.08 -1.07,-0.19 -0.05,-0.11 0.36,-0.2 0.9,-0.21 0.55,-0.01 1.02,0.07 1.07,0.18 0.04,0.11 -0.36,0.21 -0.9,0.22z"/>
    <path class="fil1" d="M287.42 6.01c-0.54,0 -1.02,-0.08 -1.07,-0.19 -0.04,-0.11 0.36,-0.2 0.91,-0.21 0.54,-0.01 1.02,0.07 1.07,0.18 0.04,0.11 -0.36,0.21 -0.91,0.22z"/>
    <path class="fil1" d="M289.62 6.01c-0.55,0 -1.03,-0.08 -1.07,-0.19 -0.05,-0.11 0.36,-0.2 0.9,-0.21 0.55,-0.01 1.03,0.07 1.07,0.18 0.05,0.11 -0.36,0.21 -0.9,0.22z"/>
    <path class="fil1" d="M291.81 6.01c-0.54,0 -1.02,-0.08 -1.07,-0.19 -0.04,-0.11 0.36,-0.2 0.91,-0.21 0.54,-0.01 1.02,0.07 1.07,0.18 0.04,0.11 -0.36,0.21 -0.91,0.22z"/>
    <path class="fil1" d="M294.01 6.01c-0.55,0 -1.03,-0.08 -1.07,-0.19 -0.05,-0.11 0.36,-0.2 0.9,-0.21 0.55,-0.01 1.03,0.07 1.07,0.18 0.05,0.11 -0.36,0.21 -0.9,0.22z"/>
    <path class="fil1" d="M296.2 6.01c-0.54,0 -1.02,-0.08 -1.06,-0.19 -0.05,-0.11 0.35,-0.2 0.9,-0.21 0.54,-0.01 1.02,0.07 1.07,0.18 0.04,0.11 -0.36,0.21 -0.91,0.22z"/>
    <path class="fil1" d="M298.4 6.01c-0.55,0 -1.02,-0.08 -1.07,-0.19 -0.04,-0.11 0.36,-0.2 0.9,-0.21 0.55,-0.01 1.03,0.07 1.07,0.18 0.05,0.11 -0.36,0.21 -0.9,0.22z"/>
    <path class="fil1" d="M300.59 6.01c-0.54,0 -1.02,-0.08 -1.06,-0.19 -0.05,-0.11 0.36,-0.2 0.9,-0.21 0.54,-0.01 1.02,0.07 1.07,0.18 0.04,0.11 -0.36,0.21 -0.91,0.22z"/>
    <path class="fil1" d="M302.79 6.01c-0.55,0 -1.02,-0.08 -1.07,-0.19 -0.04,-0.11 0.36,-0.2 0.91,-0.21 0.54,-0.01 1.02,0.07 1.06,0.18 0.05,0.11 -0.36,0.21 -0.9,0.22z"/>
    <path class="fil1" d="M304.98 6.01c-0.54,0 -1.02,-0.08 -1.06,-0.19 -0.05,-0.11 0.36,-0.2 0.9,-0.21 0.55,-0.01 1.02,0.07 1.07,0.18 0.04,0.11 -0.36,0.21 -0.91,0.22z"/>
    <path class="fil1" d="M307.18 6.01c-0.54,0 -1.02,-0.08 -1.07,-0.19 -0.04,-0.11 0.36,-0.2 0.91,-0.21 0.54,-0.01 1.02,0.07 1.06,0.18 0.05,0.11 -0.36,0.21 -0.9,0.22z"/>
    <path class="fil1" d="M309.38 6.01c-0.55,0 -1.03,-0.08 -1.07,-0.19 -0.05,-0.11 0.36,-0.2 0.9,-0.21 0.55,-0.01 1.02,0.07 1.07,0.18 0.04,0.11 -0.36,0.21 -0.9,0.22z"/>
    <path class="fil1" d="M311.57 6.01c-0.54,0 -1.02,-0.08 -1.07,-0.19 -0.04,-0.11 0.36,-0.2 0.91,-0.21 0.54,-0.01 1.02,0.07 1.07,0.18 0.04,0.11 -0.36,0.21 -0.91,0.22z"/>
    <path class="fil1" d="M313.77 6.01c-0.55,0 -1.03,-0.08 -1.07,-0.19 -0.05,-0.11 0.36,-0.2 0.9,-0.21 0.55,-0.01 1.03,0.07 1.07,0.18 0.05,0.11 -0.36,0.21 -0.9,0.22z"/>
    <path class="fil1" d="M315.96 6.01c-0.54,0 -1.02,-0.08 -1.07,-0.19 -0.04,-0.11 0.36,-0.2 0.91,-0.21 0.54,-0.01 1.02,0.07 1.07,0.18 0.04,0.11 -0.36,0.21 -0.91,0.22z"/>
    <path class="fil1" d="M318.16 6.01c-0.55,0 -1.03,-0.08 -1.07,-0.19 -0.05,-0.11 0.36,-0.2 0.9,-0.21 0.55,-0.01 1.03,0.07 1.07,0.18 0.05,0.11 -0.36,0.21 -0.9,0.22z"/>
    <path class="fil1" d="M320.35 6.01c-0.54,0 -1.02,-0.08 -1.06,-0.19 -0.05,-0.11 0.36,-0.2 0.9,-0.21 0.54,-0.01 1.02,0.07 1.07,0.18 0.04,0.11 -0.36,0.21 -0.91,0.22z"/>
    <path class="fil1" d="M322.55 6.01c-0.55,0 -1.02,-0.08 -1.07,-0.19 -0.04,-0.11 0.36,-0.2 0.9,-0.21 0.55,-0.01 1.03,0.07 1.07,0.18 0.05,0.11 -0.36,0.21 -0.9,0.22z"/>
    <path class="fil1" d="M324.74 6.01c-0.54,0 -1.02,-0.08 -1.06,-0.19 -0.05,-0.11 0.36,-0.2 0.9,-0.21 0.54,-0.01 1.02,0.07 1.07,0.18 0.04,0.11 -0.36,0.21 -0.91,0.22z"/>
    <path class="fil1" d="M326.94 6.01c-0.55,0 -1.02,-0.08 -1.07,-0.19 -0.04,-0.11 0.36,-0.2 0.91,-0.21 0.54,-0.01 1.02,0.07 1.06,0.18 0.05,0.11 -0.36,0.21 -0.9,0.22z"/>
    <path class="fil1" d="M329.13 6.01c-0.54,0 -1.02,-0.08 -1.06,-0.19 -0.05,-0.11 0.36,-0.2 0.9,-0.21 0.55,-0.01 1.02,0.07 1.07,0.18 0.04,0.11 -0.36,0.21 -0.91,0.22z"/>
    <path class="fil1" d="M331.33 6.01c-0.54,0 -1.02,-0.08 -1.07,-0.19 -0.04,-0.11 0.36,-0.2 0.91,-0.21 0.54,-0.01 1.02,0.07 1.06,0.18 0.05,0.11 -0.36,0.21 -0.9,0.22z"/>
    <path class="fil1" d="M333.53 6.01c-0.55,0 -1.03,-0.08 -1.07,-0.19 -0.05,-0.11 0.36,-0.2 0.9,-0.21 0.55,-0.01 1.02,0.07 1.07,0.18 0.05,0.11 -0.36,0.21 -0.9,0.22z"/>
    <path class="fil1" d="M335.72 6.01c-0.54,0 -1.02,-0.08 -1.07,-0.19 -0.04,-0.11 0.36,-0.2 0.91,-0.21 0.54,-0.01 1.02,0.07 1.07,0.18 0.04,0.11 -0.36,0.21 -0.91,0.22z"/>
    <path class="fil1" d="M337.92 6.01c-0.55,0 -1.03,-0.08 -1.07,-0.19 -0.05,-0.11 0.36,-0.2 0.9,-0.21 0.55,-0.01 1.03,0.07 1.07,0.18 0.05,0.11 -0.36,0.21 -0.9,0.22z"/>
    <path class="fil1" d="M340.11 6.01c-0.54,0 -1.02,-0.08 -1.07,-0.19 -0.04,-0.11 0.36,-0.2 0.91,-0.21 0.54,-0.01 1.02,0.07 1.07,0.18 0.04,0.11 -0.36,0.21 -0.91,0.22z"/>
    <path class="fil1" d="M342.31 6.01c-0.55,0 -1.02,-0.08 -1.07,-0.19 -0.05,-0.11 0.36,-0.2 0.9,-0.21 0.55,-0.01 1.03,0.07 1.07,0.18 0.05,0.11 -0.36,0.21 -0.9,0.22z"/>
    <path class="fil1" d="M344.5 6.01c-0.54,0 -1.02,-0.08 -1.06,-0.19 -0.05,-0.11 0.36,-0.2 0.9,-0.21 0.54,-0.01 1.02,0.07 1.07,0.18 0.04,0.11 -0.36,0.21 -0.91,0.22z"/>
    <path class="fil1" d="M346.7 6.01c-0.55,0 -1.02,-0.08 -1.07,-0.19 -0.04,-0.11 0.36,-0.2 0.9,-0.21 0.55,-0.01 1.03,0.07 1.07,0.18 0.05,0.11 -0.36,0.21 -0.9,0.22z"/>
    <path class="fil1" d="M348.89 6.01c-0.54,0 -1.02,-0.08 -1.06,-0.19 -0.05,-0.11 0.36,-0.2 0.9,-0.21 0.55,-0.01 1.02,0.07 1.07,0.18 0.04,0.11 -0.36,0.21 -0.91,0.22z"/>
    <path class="fil1" d="M351.09 6.01c-0.55,0 -1.02,-0.08 -1.07,-0.19 -0.04,-0.11 0.36,-0.2 0.91,-0.21 0.54,-0.01 1.02,0.07 1.06,0.18 0.05,0.11 -0.36,0.21 -0.9,0.22z"/>
    <path class="fil1" d="M353.28 6.01c-0.54,0 -1.02,-0.08 -1.06,-0.19 -0.05,-0.11 0.36,-0.2 0.9,-0.21 0.55,-0.01 1.02,0.07 1.07,0.18 0.04,0.11 -0.36,0.21 -0.91,0.22z"/>
    <path class="fil1" d="M355.48 6.01c-0.54,0 -1.02,-0.08 -1.07,-0.19 -0.04,-0.11 0.36,-0.2 0.91,-0.21 0.54,-0.01 1.02,0.07 1.06,0.18 0.05,0.11 -0.35,0.21 -0.9,0.22z"/>
    <path class="fil1" d="M357.68 6.01c-0.55,0 -1.03,-0.08 -1.07,-0.19 -0.05,-0.11 0.36,-0.2 0.9,-0.21 0.55,-0.01 1.02,0.07 1.07,0.18 0.05,0.11 -0.36,0.21 -0.9,0.22z"/>
    <path class="fil1" d="M359.87 6.01c-0.54,0 -1.02,-0.08 -1.07,-0.19 -0.04,-0.11 0.36,-0.2 0.91,-0.21 0.54,-0.01 1.02,0.07 1.07,0.18 0.04,0.11 -0.36,0.21 -0.91,0.22z"/>
    <path class="fil1" d="M362.07 6.01c-0.55,0 -1.03,-0.08 -1.07,-0.19 -0.05,-0.11 0.36,-0.2 0.9,-0.21 0.55,-0.01 1.03,0.07 1.07,0.18 0.05,0.11 -0.36,0.21 -0.9,0.22z"/>
    <path class="fil1" d="M364.26 6.01c-0.54,0 -1.02,-0.08 -1.07,-0.19 -0.04,-0.11 0.36,-0.2 0.91,-0.21 0.54,-0.01 1.02,0.07 1.07,0.18 0.04,0.11 -0.36,0.21 -0.91,0.22z"/>
    <path class="fil1" d="M366.46 6.01c-0.55,0 -1.02,-0.08 -1.07,-0.19 -0.04,-0.11 0.36,-0.2 0.9,-0.21 0.55,-0.01 1.03,0.07 1.07,0.18 0.05,0.11 -0.36,0.21 -0.9,0.22z"/>
    <path class="fil1" d="M368.65 6.01c-0.54,0 -1.02,-0.08 -1.06,-0.19 -0.05,-0.11 0.36,-0.2 0.9,-0.21 0.54,-0.01 1.02,0.07 1.07,0.18 0.04,0.11 -0.36,0.21 -0.91,0.22z"/>
    <path class="fil1" d="M370.85 6.01c-0.55,0 -1.02,-0.08 -1.07,-0.19 -0.04,-0.11 0.36,-0.2 0.91,-0.21 0.54,-0.01 1.02,0.07 1.06,0.18 0.05,0.11 -0.36,0.21 -0.9,0.22z"/>
    <path class="fil1" d="M373.04 6.01c-0.54,0 -1.02,-0.08 -1.06,-0.19 -0.05,-0.11 0.36,-0.2 0.9,-0.21 0.55,-0.01 1.02,0.07 1.07,0.18 0.04,0.11 -0.36,0.21 -0.91,0.22z"/>
    <path class="fil1" d="M375.24 6.01c-0.54,0 -1.02,-0.08 -1.07,-0.19 -0.04,-0.11 0.36,-0.2 0.91,-0.21 0.54,-0.01 1.02,0.07 1.06,0.18 0.05,0.11 -0.36,0.21 -0.9,0.22z"/>
    <path class="fil1" d="M377.44 6.01c-0.55,0 -1.03,-0.08 -1.07,-0.19 -0.05,-0.11 0.36,-0.2 0.9,-0.21 0.55,-0.01 1.02,0.07 1.07,0.18 0.04,0.11 -0.36,0.21 -0.9,0.22z"/>
    <path class="fil1" d="M379.63 6.01c-0.54,0 -1.02,-0.08 -1.07,-0.19 -0.04,-0.11 0.36,-0.2 0.91,-0.21 0.54,-0.01 1.02,0.07 1.06,0.18 0.05,0.11 -0.35,0.21 -0.9,0.22z"/>
    <path class="fil1" d="M381.83 6.01c-0.55,0 -1.03,-0.08 -1.07,-0.19 -0.05,-0.11 0.36,-0.2 0.9,-0.21 0.55,-0.01 1.03,0.07 1.07,0.18 0.05,0.11 -0.36,0.21 -0.9,0.22z"/>
    <path class="fil1" d="M384.02 6.01c-0.54,0 -1.02,-0.08 -1.07,-0.19 -0.04,-0.11 0.36,-0.2 0.91,-0.21 0.54,-0.01 1.02,0.07 1.07,0.18 0.04,0.11 -0.36,0.21 -0.91,0.22z"/>
    <path class="fil1" d="M386.22 6.01c-0.55,0 -1.03,-0.08 -1.07,-0.19 -0.05,-0.11 0.36,-0.2 0.9,-0.21 0.55,-0.01 1.03,0.07 1.07,0.18 0.05,0.11 -0.36,0.21 -0.9,0.22z"/>
    <path class="fil1" d="M388.41 6.01c-0.54,0 -1.02,-0.08 -1.07,-0.19 -0.04,-0.11 0.36,-0.2 0.91,-0.21 0.54,-0.01 1.02,0.07 1.07,0.18 0.04,0.11 -0.36,0.21 -0.91,0.22z"/>
    <path class="fil1" d="M390.61 6.01c-0.55,0 -1.02,-0.08 -1.07,-0.19 -0.04,-0.11 0.36,-0.2 0.9,-0.21 0.55,-0.01 1.03,0.07 1.07,0.18 0.05,0.11 -0.36,0.21 -0.9,0.22z"/>
    <path class="fil1" d="M392.8 6.01c-0.54,0 -1.02,-0.08 -1.06,-0.19 -0.05,-0.11 0.36,-0.2 0.9,-0.21 0.54,-0.01 1.02,0.07 1.07,0.18 0.04,0.11 -0.36,0.21 -0.91,0.22z"/>
    <path class="fil1" d="M395 6.01c-0.55,0 -1.02,-0.08 -1.07,-0.19 -0.04,-0.11 0.36,-0.2 0.91,-0.21 0.54,-0.01 1.02,0.07 1.06,0.18 0.05,0.11 -0.36,0.21 -0.9,0.22z"/>
    <path class="fil1" d="M397.19 6.01c-0.54,0 -1.02,-0.08 -1.06,-0.19 -0.05,-0.11 0.36,-0.2 0.9,-0.21 0.55,-0.01 1.02,0.07 1.07,0.18 0.04,0.11 -0.36,0.21 -0.91,0.22z"/>
    <path class="fil1" d="M399.39 6.01c-0.54,0 -1.02,-0.08 -1.07,-0.19 -0.04,-0.11 0.36,-0.2 0.91,-0.21 0.54,-0.01 1.02,0.07 1.06,0.18 0.05,0.11 -0.36,0.21 -0.9,0.22z"/>
    <path class="fil1" d="M401.59 6.01c-0.55,0 -1.03,-0.08 -1.07,-0.19 -0.05,-0.11 0.36,-0.2 0.9,-0.21 0.55,-0.01 1.02,0.07 1.07,0.18 0.04,0.11 -0.36,0.21 -0.9,0.22z"/>
    <path class="fil1" d="M403.78 6.01c-0.54,0 -1.02,-0.08 -1.07,-0.19 -0.04,-0.11 0.36,-0.2 0.91,-0.21 0.54,-0.01 1.02,0.07 1.07,0.18 0.04,0.11 -0.36,0.21 -0.91,0.22z"/>
    <path class="fil1" d="M405.98 6.01c-0.55,0 -1.03,-0.08 -1.07,-0.19 -0.05,-0.11 0.36,-0.2 0.9,-0.21 0.55,-0.01 1.03,0.07 1.07,0.18 0.05,0.11 -0.36,0.21 -0.9,0.22z"/>
    <path class="fil1" d="M408.17 6.01c-0.54,0 -1.02,-0.08 -1.07,-0.19 -0.04,-0.11 0.36,-0.2 0.91,-0.21 0.54,-0.01 1.02,0.07 1.07,0.18 0.04,0.11 -0.36,0.21 -0.91,0.22z"/>
    <path class="fil1" d="M410.37 6.01c-0.55,0 -1.03,-0.08 -1.07,-0.19 -0.05,-0.11 0.36,-0.2 0.9,-0.21 0.55,-0.01 1.03,0.07 1.07,0.18 0.05,0.11 -0.36,0.21 -0.9,0.22z"/>
    <path class="fil1" d="M412.56 6.01c-0.54,0 -1.02,-0.08 -1.06,-0.19 -0.05,-0.11 0.35,-0.2 0.9,-0.21 0.54,-0.01 1.02,0.07 1.07,0.18 0.04,0.11 -0.36,0.21 -0.91,0.22z"/>
    <path class="fil1" d="M414.76 6.01c-0.55,0 -1.02,-0.08 -1.07,-0.19 -0.04,-0.11 0.36,-0.2 0.9,-0.21 0.55,-0.01 1.03,0.07 1.07,0.18 0.05,0.11 -0.36,0.21 -0.9,0.22z"/>
    <path class="fil1" d="M416.95 6.01c-0.54,0 -1.02,-0.08 -1.06,-0.19 -0.05,-0.11 0.36,-0.2 0.9,-0.21 0.54,-0.01 1.02,0.07 1.07,0.18 0.04,0.11 -0.36,0.21 -0.91,0.22z"/>
    <path class="fil1" d="M419.15 6.01c-0.55,0 -1.02,-0.08 -1.07,-0.19 -0.04,-0.11 0.36,-0.2 0.91,-0.21 0.54,-0.01 1.02,0.07 1.06,0.18 0.05,0.11 -0.36,0.21 -0.9,0.22z"/>
    <path class="fil1" d="M421.34 6.01c-0.54,0 -1.02,-0.08 -1.06,-0.19 -0.05,-0.11 0.36,-0.2 0.9,-0.21 0.55,-0.01 1.02,0.07 1.07,0.18 0.04,0.11 -0.36,0.21 -0.91,0.22z"/>
    <path class="fil1" d="M423.54 6.01c-0.54,0 -1.02,-0.08 -1.07,-0.19 -0.04,-0.11 0.36,-0.2 0.91,-0.21 0.54,-0.01 1.02,0.07 1.06,0.18 0.05,0.11 -0.36,0.21 -0.9,0.22z"/>
    <path class="fil1" d="M425.74 6.01c-0.55,0 -1.03,-0.08 -1.07,-0.19 -0.05,-0.11 0.36,-0.2 0.9,-0.21 0.55,-0.01 1.02,0.07 1.07,0.18 0.05,0.11 -0.36,0.21 -0.9,0.22z"/>
    <path class="fil1" d="M427.93 6.01c-0.54,0 -1.02,-0.08 -1.07,-0.19 -0.04,-0.11 0.36,-0.2 0.91,-0.21 0.54,-0.01 1.02,0.07 1.07,0.18 0.04,0.11 -0.36,0.21 -0.91,0.22z"/>
    <path class="fil1" d="M430.13 6.01c-0.55,0 -1.03,-0.08 -1.07,-0.19 -0.05,-0.11 0.36,-0.2 0.9,-0.21 0.55,-0.01 1.03,0.07 1.07,0.18 0.05,0.11 -0.36,0.21 -0.9,0.22z"/>
    <path class="fil1" d="M267.66 6.01c-0.54,0 -1.02,-0.08 -1.07,-0.19 -0.04,-0.11 0.36,-0.2 0.91,-0.21 0.54,-0.01 1.02,0.07 1.07,0.18 0.04,0.11 -0.36,0.21 -0.91,0.22z"/>
    <path class="fil1" d="M269.86 6.01c-0.55,0 -1.03,-0.08 -1.07,-0.19 -0.05,-0.11 0.36,-0.2 0.9,-0.21 0.55,-0.01 1.03,0.07 1.07,0.18 0.05,0.11 -0.36,0.21 -0.9,0.22z"/>
    <path class="fil1" d="M272.05 6.01c-0.54,0 -1.02,-0.08 -1.07,-0.19 -0.04,-0.11 0.36,-0.2 0.91,-0.21 0.54,-0.01 1.02,0.07 1.07,0.18 0.04,0.11 -0.36,0.21 -0.91,0.22z"/>
    <path class="fil1" d="M274.25 6.01c-0.55,0 -1.02,-0.08 -1.07,-0.19 -0.04,-0.11 0.36,-0.2 0.9,-0.21 0.55,-0.01 1.03,0.07 1.07,0.18 0.05,0.11 -0.36,0.21 -0.9,0.22z"/>
    <path class="fil1" d="M276.44 6.01c-0.54,0 -1.02,-0.08 -1.06,-0.19 -0.05,-0.11 0.36,-0.2 0.9,-0.21 0.54,-0.01 1.02,0.07 1.07,0.18 0.04,0.11 -0.36,0.21 -0.91,0.22z"/>
    <path class="fil1" d="M278.64 6.01c-0.55,0 -1.02,-0.08 -1.07,-0.19 -0.04,-0.11 0.36,-0.2 0.91,-0.21 0.54,-0.01 1.02,0.07 1.06,0.18 0.05,0.11 -0.36,0.21 -0.9,0.22z"/>
    <path class="fil1" d="M280.83 6.01c-0.54,0 -1.02,-0.08 -1.06,-0.19 -0.05,-0.11 0.36,-0.2 0.9,-0.21 0.55,-0.01 1.02,0.07 1.07,0.18 0.04,0.11 -0.36,0.21 -0.91,0.22z"/>
    <path class="fil1" d="M283.03 6.01c-0.54,0 -1.02,-0.08 -1.07,-0.19 -0.04,-0.11 0.36,-0.2 0.91,-0.21 0.54,-0.01 1.02,0.07 1.06,0.18 0.05,0.11 -0.36,0.21 -0.9,0.22z"/>
    <path class="fil1" d="M285.23 6.01c-0.55,0 -1.03,-0.08 -1.07,-0.19 -0.05,-0.11 0.36,-0.2 0.9,-0.21 0.55,-0.01 1.02,0.07 1.07,0.18 0.04,0.11 -0.36,0.21 -0.9,0.22z"/>
    <path class="fil1" d="M287.42 6.01c-0.54,0 -1.02,-0.08 -1.07,-0.19 -0.04,-0.11 0.36,-0.2 0.91,-0.21 0.54,-0.01 1.02,0.07 1.07,0.18 0.04,0.11 -0.36,0.21 -0.91,0.22z"/>
    <path class="fil1" d="M289.62 6.01c-0.55,0 -1.03,-0.08 -1.07,-0.19 -0.05,-0.11 0.36,-0.2 0.9,-0.21 0.55,-0.01 1.03,0.07 1.07,0.18 0.05,0.11 -0.36,0.21 -0.9,0.22z"/>
    <path class="fil1" d="M291.81 6.01c-0.54,0 -1.02,-0.08 -1.07,-0.19 -0.04,-0.11 0.36,-0.2 0.91,-0.21 0.54,-0.01 1.02,0.07 1.07,0.18 0.04,0.11 -0.36,0.21 -0.91,0.22z"/>
    <path class="fil1" d="M294.01 6.01c-0.55,0 -1.03,-0.08 -1.07,-0.19 -0.05,-0.11 0.36,-0.2 0.9,-0.21 0.55,-0.01 1.03,0.07 1.07,0.18 0.05,0.11 -0.36,0.21 -0.9,0.22z"/>
    <path class="fil1" d="M296.2 6.01c-0.54,0 -1.02,-0.08 -1.06,-0.19 -0.05,-0.11 0.35,-0.2 0.9,-0.21 0.54,-0.01 1.02,0.07 1.07,0.18 0.04,0.11 -0.36,0.21 -0.91,0.22z"/>
    <path class="fil1" d="M298.4 6.01c-0.55,0 -1.02,-0.08 -1.07,-0.19 -0.04,-0.11 0.36,-0.2 0.9,-0.21 0.55,-0.01 1.03,0.07 1.07,0.18 0.05,0.11 -0.36,0.21 -0.9,0.22z"/>
    <path class="fil1" d="M300.59 6.01c-0.54,0 -1.02,-0.08 -1.06,-0.19 -0.05,-0.11 0.36,-0.2 0.9,-0.21 0.54,-0.01 1.02,0.07 1.07,0.18 0.04,0.11 -0.36,0.21 -0.91,0.22z"/>
    <path class="fil1" d="M302.79 6.01c-0.55,0 -1.02,-0.08 -1.07,-0.19 -0.04,-0.11 0.36,-0.2 0.91,-0.21 0.54,-0.01 1.02,0.07 1.06,0.18 0.05,0.11 -0.36,0.21 -0.9,0.22z"/>
    <path class="fil1" d="M304.98 6.01c-0.54,0 -1.02,-0.08 -1.06,-0.19 -0.05,-0.11 0.36,-0.2 0.9,-0.21 0.55,-0.01 1.02,0.07 1.07,0.18 0.04,0.11 -0.36,0.21 -0.91,0.22z"/>
    <path class="fil1" d="M307.18 6.01c-0.54,0 -1.02,-0.08 -1.07,-0.19 -0.04,-0.11 0.36,-0.2 0.91,-0.21 0.54,-0.01 1.02,0.07 1.06,0.18 0.05,0.11 -0.36,0.21 -0.9,0.22z"/>
    <path class="fil1" d="M309.38 6.01c-0.55,0 -1.03,-0.08 -1.07,-0.19 -0.05,-0.11 0.36,-0.2 0.9,-0.21 0.55,-0.01 1.02,0.07 1.07,0.18 0.04,0.11 -0.36,0.21 -0.9,0.22z"/>
    <path class="fil1" d="M311.57 6.01c-0.54,0 -1.02,-0.08 -1.07,-0.19 -0.04,-0.11 0.36,-0.2 0.91,-0.21 0.54,-0.01 1.02,0.07 1.07,0.18 0.04,0.11 -0.36,0.21 -0.91,0.22z"/>
    <path class="fil1" d="M313.77 6.01c-0.55,0 -1.03,-0.08 -1.07,-0.19 -0.05,-0.11 0.36,-0.2 0.9,-0.21 0.55,-0.01 1.03,0.07 1.07,0.18 0.05,0.11 -0.36,0.21 -0.9,0.22z"/>
    <path class="fil1" d="M315.96 6.01c-0.54,0 -1.02,-0.08 -1.07,-0.19 -0.04,-0.11 0.36,-0.2 0.91,-0.21 0.54,-0.01 1.02,0.07 1.07,0.18 0.04,0.11 -0.36,0.21 -0.91,0.22z"/>
    <path class="fil1" d="M318.16 6.01c-0.55,0 -1.03,-0.08 -1.07,-0.19 -0.05,-0.11 0.36,-0.2 0.9,-0.21 0.55,-0.01 1.03,0.07 1.07,0.18 0.05,0.11 -0.36,0.21 -0.9,0.22z"/>
    <path class="fil1" d="M320.35 6.01c-0.54,0 -1.02,-0.08 -1.06,-0.19 -0.05,-0.11 0.36,-0.2 0.9,-0.21 0.54,-0.01 1.02,0.07 1.07,0.18 0.04,0.11 -0.36,0.21 -0.91,0.22z"/>
    <path class="fil1" d="M322.55 6.01c-0.55,0 -1.02,-0.08 -1.07,-0.19 -0.04,-0.11 0.36,-0.2 0.9,-0.21 0.55,-0.01 1.03,0.07 1.07,0.18 0.05,0.11 -0.36,0.21 -0.9,0.22z"/>
    <path class="fil1" d="M324.74 6.01c-0.54,0 -1.02,-0.08 -1.06,-0.19 -0.05,-0.11 0.36,-0.2 0.9,-0.21 0.54,-0.01 1.02,0.07 1.07,0.18 0.04,0.11 -0.36,0.21 -0.91,0.22z"/>
    <path class="fil1" d="M326.94 6.01c-0.55,0 -1.02,-0.08 -1.07,-0.19 -0.04,-0.11 0.36,-0.2 0.91,-0.21 0.54,-0.01 1.02,0.07 1.06,0.18 0.05,0.11 -0.36,0.21 -0.9,0.22z"/>
    <path class="fil1" d="M329.13 6.01c-0.54,0 -1.02,-0.08 -1.06,-0.19 -0.05,-0.11 0.36,-0.2 0.9,-0.21 0.55,-0.01 1.02,0.07 1.07,0.18 0.04,0.11 -0.36,0.21 -0.91,0.22z"/>
    <path class="fil1" d="M331.33 6.01c-0.54,0 -1.02,-0.08 -1.07,-0.19 -0.04,-0.11 0.36,-0.2 0.91,-0.21 0.54,-0.01 1.02,0.07 1.06,0.18 0.05,0.11 -0.36,0.21 -0.9,0.22z"/>
    <path class="fil1" d="M333.53 6.01c-0.55,0 -1.03,-0.08 -1.07,-0.19 -0.05,-0.11 0.36,-0.2 0.9,-0.21 0.55,-0.01 1.02,0.07 1.07,0.18 0.05,0.11 -0.36,0.21 -0.9,0.22z"/>
    <path class="fil1" d="M335.72 6.01c-0.54,0 -1.02,-0.08 -1.07,-0.19 -0.04,-0.11 0.36,-0.2 0.91,-0.21 0.54,-0.01 1.02,0.07 1.07,0.18 0.04,0.11 -0.36,0.21 -0.91,0.22z"/>
    <path class="fil1" d="M337.92 6.01c-0.55,0 -1.03,-0.08 -1.07,-0.19 -0.05,-0.11 0.36,-0.2 0.9,-0.21 0.55,-0.01 1.03,0.07 1.07,0.18 0.05,0.11 -0.36,0.21 -0.9,0.22z"/>
    <path class="fil1" d="M340.11 6.01c-0.54,0 -1.02,-0.08 -1.07,-0.19 -0.04,-0.11 0.36,-0.2 0.91,-0.21 0.54,-0.01 1.02,0.07 1.07,0.18 0.04,0.11 -0.36,0.21 -0.91,0.22z"/>
    <path class="fil1" d="M342.31 6.01c-0.55,0 -1.02,-0.08 -1.07,-0.19 -0.05,-0.11 0.36,-0.2 0.9,-0.21 0.55,-0.01 1.03,0.07 1.07,0.18 0.05,0.11 -0.36,0.21 -0.9,0.22z"/>
    <path class="fil1" d="M344.5 6.01c-0.54,0 -1.02,-0.08 -1.06,-0.19 -0.05,-0.11 0.36,-0.2 0.9,-0.21 0.54,-0.01 1.02,0.07 1.07,0.18 0.04,0.11 -0.36,0.21 -0.91,0.22z"/>
    <path class="fil1" d="M346.7 6.01c-0.55,0 -1.02,-0.08 -1.07,-0.19 -0.04,-0.11 0.36,-0.2 0.9,-0.21 0.55,-0.01 1.03,0.07 1.07,0.18 0.05,0.11 -0.36,0.21 -0.9,0.22z"/>
    <path class="fil1" d="M348.89 6.01c-0.54,0 -1.02,-0.08 -1.06,-0.19 -0.05,-0.11 0.36,-0.2 0.9,-0.21 0.55,-0.01 1.02,0.07 1.07,0.18 0.04,0.11 -0.36,0.21 -0.91,0.22z"/>
    <path class="fil1" d="M351.09 6.01c-0.55,0 -1.02,-0.08 -1.07,-0.19 -0.04,-0.11 0.36,-0.2 0.91,-0.21 0.54,-0.01 1.02,0.07 1.06,0.18 0.05,0.11 -0.36,0.21 -0.9,0.22z"/>
    <path class="fil1" d="M353.28 6.01c-0.54,0 -1.02,-0.08 -1.06,-0.19 -0.05,-0.11 0.36,-0.2 0.9,-0.21 0.55,-0.01 1.02,0.07 1.07,0.18 0.04,0.11 -0.36,0.21 -0.91,0.22z"/>
    <path class="fil1" d="M355.48 6.01c-0.54,0 -1.02,-0.08 -1.07,-0.19 -0.04,-0.11 0.36,-0.2 0.91,-0.21 0.54,-0.01 1.02,0.07 1.06,0.18 0.05,0.11 -0.35,0.21 -0.9,0.22z"/>
    <path class="fil1" d="M357.68 6.01c-0.55,0 -1.03,-0.08 -1.07,-0.19 -0.05,-0.11 0.36,-0.2 0.9,-0.21 0.55,-0.01 1.02,0.07 1.07,0.18 0.05,0.11 -0.36,0.21 -0.9,0.22z"/>
    <path class="fil1" d="M359.87 6.01c-0.54,0 -1.02,-0.08 -1.07,-0.19 -0.04,-0.11 0.36,-0.2 0.91,-0.21 0.54,-0.01 1.02,0.07 1.07,0.18 0.04,0.11 -0.36,0.21 -0.91,0.22z"/>
    <path class="fil1" d="M362.07 6.01c-0.55,0 -1.03,-0.08 -1.07,-0.19 -0.05,-0.11 0.36,-0.2 0.9,-0.21 0.55,-0.01 1.03,0.07 1.07,0.18 0.05,0.11 -0.36,0.21 -0.9,0.22z"/>
    <path class="fil1" d="M364.26 6.01c-0.54,0 -1.02,-0.08 -1.07,-0.19 -0.04,-0.11 0.36,-0.2 0.91,-0.21 0.54,-0.01 1.02,0.07 1.07,0.18 0.04,0.11 -0.36,0.21 -0.91,0.22z"/>
    <path class="fil1" d="M366.46 6.01c-0.55,0 -1.02,-0.08 -1.07,-0.19 -0.04,-0.11 0.36,-0.2 0.9,-0.21 0.55,-0.01 1.03,0.07 1.07,0.18 0.05,0.11 -0.36,0.21 -0.9,0.22z"/>
    <path class="fil1" d="M368.65 6.01c-0.54,0 -1.02,-0.08 -1.06,-0.19 -0.05,-0.11 0.36,-0.2 0.9,-0.21 0.54,-0.01 1.02,0.07 1.07,0.18 0.04,0.11 -0.36,0.21 -0.91,0.22z"/>
    <path class="fil1" d="M370.85 6.01c-0.55,0 -1.02,-0.08 -1.07,-0.19 -0.04,-0.11 0.36,-0.2 0.91,-0.21 0.54,-0.01 1.02,0.07 1.06,0.18 0.05,0.11 -0.36,0.21 -0.9,0.22z"/>
    <path class="fil1" d="M373.04 6.01c-0.54,0 -1.02,-0.08 -1.06,-0.19 -0.05,-0.11 0.36,-0.2 0.9,-0.21 0.55,-0.01 1.02,0.07 1.07,0.18 0.04,0.11 -0.36,0.21 -0.91,0.22z"/>
    <path class="fil1" d="M375.24 6.01c-0.54,0 -1.02,-0.08 -1.07,-0.19 -0.04,-0.11 0.36,-0.2 0.91,-0.21 0.54,-0.01 1.02,0.07 1.06,0.18 0.05,0.11 -0.36,0.21 -0.9,0.22z"/>
    <path class="fil1" d="M377.44 6.01c-0.55,0 -1.03,-0.08 -1.07,-0.19 -0.05,-0.11 0.36,-0.2 0.9,-0.21 0.55,-0.01 1.02,0.07 1.07,0.18 0.04,0.11 -0.36,0.21 -0.9,0.22z"/>
    <path class="fil1" d="M379.63 6.01c-0.54,0 -1.02,-0.08 -1.07,-0.19 -0.04,-0.11 0.36,-0.2 0.91,-0.21 0.54,-0.01 1.02,0.07 1.06,0.18 0.05,0.11 -0.35,0.21 -0.9,0.22z"/>
    <path class="fil1" d="M381.83 6.01c-0.55,0 -1.03,-0.08 -1.07,-0.19 -0.05,-0.11 0.36,-0.2 0.9,-0.21 0.55,-0.01 1.03,0.07 1.07,0.18 0.05,0.11 -0.36,0.21 -0.9,0.22z"/>
    <path class="fil1" d="M384.02 6.01c-0.54,0 -1.02,-0.08 -1.07,-0.19 -0.04,-0.11 0.36,-0.2 0.91,-0.21 0.54,-0.01 1.02,0.07 1.07,0.18 0.04,0.11 -0.36,0.21 -0.91,0.22z"/>
    <path class="fil1" d="M386.22 6.01c-0.55,0 -1.03,-0.08 -1.07,-0.19 -0.05,-0.11 0.36,-0.2 0.9,-0.21 0.55,-0.01 1.03,0.07 1.07,0.18 0.05,0.11 -0.36,0.21 -0.9,0.22z"/>
    <path class="fil1" d="M388.41 6.01c-0.54,0 -1.02,-0.08 -1.07,-0.19 -0.04,-0.11 0.36,-0.2 0.91,-0.21 0.54,-0.01 1.02,0.07 1.07,0.18 0.04,0.11 -0.36,0.21 -0.91,0.22z"/>
    <path class="fil1" d="M390.61 6.01c-0.55,0 -1.02,-0.08 -1.07,-0.19 -0.04,-0.11 0.36,-0.2 0.9,-0.21 0.55,-0.01 1.03,0.07 1.07,0.18 0.05,0.11 -0.36,0.21 -0.9,0.22z"/>
    <path class="fil1" d="M392.8 6.01c-0.54,0 -1.02,-0.08 -1.06,-0.19 -0.05,-0.11 0.36,-0.2 0.9,-0.21 0.54,-0.01 1.02,0.07 1.07,0.18 0.04,0.11 -0.36,0.21 -0.91,0.22z"/>
    <path class="fil1" d="M395 6.01c-0.55,0 -1.02,-0.08 -1.07,-0.19 -0.04,-0.11 0.36,-0.2 0.91,-0.21 0.54,-0.01 1.02,0.07 1.06,0.18 0.05,0.11 -0.36,0.21 -0.9,0.22z"/>
    <path class="fil1" d="M397.19 6.01c-0.54,0 -1.02,-0.08 -1.06,-0.19 -0.05,-0.11 0.36,-0.2 0.9,-0.21 0.55,-0.01 1.02,0.07 1.07,0.18 0.04,0.11 -0.36,0.21 -0.91,0.22z"/>
    <path class="fil1" d="M399.39 6.01c-0.54,0 -1.02,-0.08 -1.07,-0.19 -0.04,-0.11 0.36,-0.2 0.91,-0.21 0.54,-0.01 1.02,0.07 1.06,0.18 0.05,0.11 -0.36,0.21 -0.9,0.22z"/>
    <path class="fil1" d="M401.59 6.01c-0.55,0 -1.03,-0.08 -1.07,-0.19 -0.05,-0.11 0.36,-0.2 0.9,-0.21 0.55,-0.01 1.02,0.07 1.07,0.18 0.04,0.11 -0.36,0.21 -0.9,0.22z"/>
    <path class="fil1" d="M403.78 6.01c-0.54,0 -1.02,-0.08 -1.07,-0.19 -0.04,-0.11 0.36,-0.2 0.91,-0.21 0.54,-0.01 1.02,0.07 1.07,0.18 0.04,0.11 -0.36,0.21 -0.91,0.22z"/>
    <path class="fil1" d="M405.98 6.01c-0.55,0 -1.03,-0.08 -1.07,-0.19 -0.05,-0.11 0.36,-0.2 0.9,-0.21 0.55,-0.01 1.03,0.07 1.07,0.18 0.05,0.11 -0.36,0.21 -0.9,0.22z"/>
    <path class="fil1" d="M408.17 6.01c-0.54,0 -1.02,-0.08 -1.07,-0.19 -0.04,-0.11 0.36,-0.2 0.91,-0.21 0.54,-0.01 1.02,0.07 1.07,0.18 0.04,0.11 -0.36,0.21 -0.91,0.22z"/>
    <path class="fil1" d="M410.37 6.01c-0.55,0 -1.03,-0.08 -1.07,-0.19 -0.05,-0.11 0.36,-0.2 0.9,-0.21 0.55,-0.01 1.03,0.07 1.07,0.18 0.05,0.11 -0.36,0.21 -0.9,0.22z"/>
    <path class="fil1" d="M412.56 6.01c-0.54,0 -1.02,-0.08 -1.06,-0.19 -0.05,-0.11 0.35,-0.2 0.9,-0.21 0.54,-0.01 1.02,0.07 1.07,0.18 0.04,0.11 -0.36,0.21 -0.91,0.22z"/>
    <path class="fil1" d="M414.76 6.01c-0.55,0 -1.02,-0.08 -1.07,-0.19 -0.04,-0.11 0.36,-0.2 0.9,-0.21 0.55,-0.01 1.03,0.07 1.07,0.18 0.05,0.11 -0.36,0.21 -0.9,0.22z"/>
    <path class="fil1" d="M416.95 6.01c-0.54,0 -1.02,-0.08 -1.06,-0.19 -0.05,-0.11 0.36,-0.2 0.9,-0.21 0.54,-0.01 1.02,0.07 1.07,0.18 0.04,0.11 -0.36,0.21 -0.91,0.22z"/>
    <path class="fil1" d="M419.15 6.01c-0.55,0 -1.02,-0.08 -1.07,-0.19 -0.04,-0.11 0.36,-0.2 0.91,-0.21 0.54,-0.01 1.02,0.07 1.06,0.18 0.05,0.11 -0.36,0.21 -0.9,0.22z"/>
    <path class="fil1" d="M421.34 6.01c-0.54,0 -1.02,-0.08 -1.06,-0.19 -0.05,-0.11 0.36,-0.2 0.9,-0.21 0.55,-0.01 1.02,0.07 1.07,0.18 0.04,0.11 -0.36,0.21 -0.91,0.22z"/>
    <path class="fil1" d="M423.54 6.01c-0.54,0 -1.02,-0.08 -1.07,-0.19 -0.04,-0.11 0.36,-0.2 0.91,-0.21 0.54,-0.01 1.02,0.07 1.06,0.18 0.05,0.11 -0.36,0.21 -0.9,0.22z"/>
    <path class="fil1" d="M425.74 6.01c-0.55,0 -1.03,-0.08 -1.07,-0.19 -0.05,-0.11 0.36,-0.2 0.9,-0.21 0.55,-0.01 1.02,0.07 1.07,0.18 0.05,0.11 -0.36,0.21 -0.9,0.22z"/>
    <path class="fil1" d="M427.93 6.01c-0.54,0 -1.02,-0.08 -1.07,-0.19 -0.04,-0.11 0.36,-0.2 0.91,-0.21 0.54,-0.01 1.02,0.07 1.07,0.18 0.04,0.11 -0.36,0.21 -0.91,0.22z"/>
    <path class="fil1" d="M430.13 6.01c-0.55,0 -1.03,-0.08 -1.07,-0.19 -0.05,-0.11 0.36,-0.2 0.9,-0.21 0.55,-0.01 1.03,0.07 1.07,0.18 0.05,0.11 -0.36,0.21 -0.9,0.22z"/>
    <path class="fil1" d="M262.99 6.07c-0.72,0.01 -1.36,-0.09 -1.42,-0.24 -0.06,-0.15 0.48,-0.28 1.21,-0.29 0.72,-0.01 1.36,0.1 1.42,0.24 0.06,0.15 -0.48,0.28 -1.21,0.29z"/>
    <path class="fil1" d="M259.7 6.16c-0.97,0.02 -1.82,-0.13 -1.9,-0.32 -0.08,-0.2 0.64,-0.37 1.61,-0.39 0.96,-0.01 1.81,0.13 1.89,0.33 0.08,0.19 -0.64,0.36 -1.6,0.38z"/>
    <path class="fil1" d="M255.3 6.28c-1.29,0.02 -2.42,-0.17 -2.53,-0.43 -0.11,-0.26 0.85,-0.49 2.14,-0.52 1.29,-0.02 2.43,0.18 2.53,0.44 0.11,0.26 -0.85,0.49 -2.14,0.51z"/>
    <path class="fil1" d="M249.44 6.44c-1.72,0.02 -3.23,-0.23 -3.37,-0.58 -0.15,-0.35 1.13,-0.65 2.85,-0.68 1.73,-0.03 3.24,0.23 3.38,0.57 0.14,0.35 -1.14,0.66 -2.86,0.69z"/>
    <path class="fil1" d="M241.63 6.65c-2.3,0.03 -4.31,-0.31 -4.5,-0.77 -0.19,-0.47 1.51,-0.87 3.81,-0.91 2.29,-0.04 4.31,0.3 4.5,0.77 0.19,0.46 -1.52,0.87 -3.81,0.91z"/>
   </g>
   <g>
    <path class="fil1" d="M165.57 6.01c0.54,0 1.02,-0.08 1.07,-0.19 0.04,-0.11 -0.36,-0.2 -0.91,-0.21 -0.54,-0.01 -1.02,0.07 -1.07,0.18 -0.04,0.11 0.36,0.21 0.91,0.22z"/>
    <path class="fil1" d="M163.37 6.01c0.55,0 1.03,-0.08 1.07,-0.19 0.05,-0.11 -0.36,-0.2 -0.9,-0.21 -0.55,-0.01 -1.03,0.07 -1.07,0.18 -0.05,0.11 0.36,0.21 0.9,0.22z"/>
    <path class="fil1" d="M161.18 6.01c0.54,0 1.02,-0.08 1.06,-0.19 0.05,-0.11 -0.35,-0.2 -0.9,-0.21 -0.54,-0.01 -1.02,0.07 -1.07,0.18 -0.04,0.11 0.36,0.21 0.91,0.22z"/>
    <path class="fil1" d="M158.98 6.01c0.55,0 1.02,-0.08 1.07,-0.19 0.04,-0.11 -0.36,-0.2 -0.9,-0.21 -0.55,-0.01 -1.03,0.07 -1.07,0.18 -0.05,0.11 0.36,0.21 0.9,0.22z"/>
    <path class="fil1" d="M156.79 6.01c0.54,0 1.02,-0.08 1.06,-0.19 0.05,-0.11 -0.36,-0.2 -0.9,-0.21 -0.54,-0.01 -1.02,0.07 -1.07,0.18 -0.04,0.11 0.36,0.21 0.91,0.22z"/>
    <path class="fil1" d="M154.59 6.01c0.55,0 1.02,-0.08 1.07,-0.19 0.04,-0.11 -0.36,-0.2 -0.91,-0.21 -0.54,-0.01 -1.02,0.07 -1.06,0.18 -0.05,0.11 0.36,0.21 0.9,0.22z"/>
    <path class="fil1" d="M152.4 6.01c0.54,0 1.02,-0.08 1.06,-0.19 0.05,-0.11 -0.36,-0.2 -0.9,-0.21 -0.55,-0.01 -1.02,0.07 -1.07,0.18 -0.04,0.11 0.36,0.21 0.91,0.22z"/>
    <path class="fil1" d="M150.2 6.01c0.54,0 1.02,-0.08 1.07,-0.19 0.04,-0.11 -0.36,-0.2 -0.91,-0.21 -0.54,-0.01 -1.02,0.07 -1.06,0.18 -0.05,0.11 0.36,0.21 0.9,0.22z"/>
    <path class="fil1" d="M148 6.01c0.55,0 1.03,-0.08 1.07,-0.19 0.05,-0.11 -0.36,-0.2 -0.9,-0.21 -0.55,-0.01 -1.02,0.07 -1.07,0.18 -0.04,0.11 0.36,0.21 0.9,0.22z"/>
    <path class="fil1" d="M145.81 6.01c0.54,0 1.02,-0.08 1.07,-0.19 0.04,-0.11 -0.36,-0.2 -0.91,-0.21 -0.54,-0.01 -1.02,0.07 -1.07,0.18 -0.04,0.11 0.36,0.21 0.91,0.22z"/>
    <path class="fil1" d="M143.61 6.01c0.55,0 1.03,-0.08 1.07,-0.19 0.05,-0.11 -0.36,-0.2 -0.9,-0.21 -0.55,-0.01 -1.03,0.07 -1.07,0.18 -0.05,0.11 0.36,0.21 0.9,0.22z"/>
    <path class="fil1" d="M141.42 6.01c0.54,0 1.02,-0.08 1.07,-0.19 0.04,-0.11 -0.36,-0.2 -0.91,-0.21 -0.54,-0.01 -1.02,0.07 -1.07,0.18 -0.04,0.11 0.36,0.21 0.91,0.22z"/>
    <path class="fil1" d="M139.22 6.01c0.55,0 1.02,-0.08 1.07,-0.19 0.05,-0.11 -0.36,-0.2 -0.9,-0.21 -0.55,-0.01 -1.03,0.07 -1.07,0.18 -0.05,0.11 0.36,0.21 0.9,0.22z"/>
    <path class="fil1" d="M137.03 6.01c0.54,0 1.02,-0.08 1.06,-0.19 0.05,-0.11 -0.36,-0.2 -0.9,-0.21 -0.54,-0.01 -1.02,0.07 -1.07,0.18 -0.04,0.11 0.36,0.21 0.91,0.22z"/>
    <path class="fil1" d="M134.83 6.01c0.55,0 1.02,-0.08 1.07,-0.19 0.04,-0.11 -0.36,-0.2 -0.9,-0.21 -0.55,-0.01 -1.03,0.07 -1.07,0.18 -0.05,0.11 0.36,0.21 0.9,0.22z"/>
    <path class="fil1" d="M132.64 6.01c0.54,0 1.02,-0.08 1.06,-0.19 0.05,-0.11 -0.36,-0.2 -0.9,-0.21 -0.54,-0.01 -1.02,0.07 -1.07,0.18 -0.04,0.11 0.36,0.21 0.91,0.22z"/>
    <path class="fil1" d="M130.44 6.01c0.55,0 1.02,-0.08 1.07,-0.19 0.04,-0.11 -0.36,-0.2 -0.91,-0.21 -0.54,-0.01 -1.02,0.07 -1.06,0.18 -0.05,0.11 0.36,0.21 0.9,0.22z"/>
    <path class="fil1" d="M128.25 6.01c0.54,0 1.02,-0.08 1.06,-0.19 0.05,-0.11 -0.36,-0.2 -0.9,-0.21 -0.55,-0.01 -1.02,0.07 -1.07,0.18 -0.04,0.11 0.36,0.21 0.91,0.22z"/>
    <path class="fil1" d="M126.05 6.01c0.54,0 1.02,-0.08 1.07,-0.19 0.04,-0.11 -0.36,-0.2 -0.91,-0.21 -0.54,-0.01 -1.02,0.07 -1.06,0.18 -0.05,0.11 0.36,0.21 0.9,0.22z"/>
    <path class="fil1" d="M123.85 6.01c0.55,0 1.03,-0.08 1.07,-0.19 0.05,-0.11 -0.36,-0.2 -0.9,-0.21 -0.55,-0.01 -1.02,0.07 -1.07,0.18 -0.05,0.11 0.36,0.21 0.9,0.22z"/>
    <path class="fil1" d="M121.66 6.01c0.54,0 1.02,-0.08 1.07,-0.19 0.04,-0.11 -0.36,-0.2 -0.91,-0.21 -0.54,-0.01 -1.02,0.07 -1.07,0.18 -0.04,0.11 0.36,0.21 0.91,0.22z"/>
    <path class="fil1" d="M119.46 6.01c0.55,0 1.03,-0.08 1.07,-0.19 0.05,-0.11 -0.36,-0.2 -0.9,-0.21 -0.55,-0.01 -1.03,0.07 -1.07,0.18 -0.05,0.11 0.36,0.21 0.9,0.22z"/>
    <path class="fil1" d="M117.27 6.01c0.54,0 1.02,-0.08 1.07,-0.19 0.04,-0.11 -0.36,-0.2 -0.91,-0.21 -0.54,-0.01 -1.02,0.07 -1.07,0.18 -0.04,0.11 0.36,0.21 0.91,0.22z"/>
    <path class="fil1" d="M115.07 6.01c0.55,0 1.02,-0.08 1.07,-0.19 0.05,-0.11 -0.36,-0.2 -0.9,-0.21 -0.55,-0.01 -1.03,0.07 -1.07,0.18 -0.05,0.11 0.36,0.21 0.9,0.22z"/>
    <path class="fil1" d="M112.88 6.01c0.54,0 1.02,-0.08 1.06,-0.19 0.05,-0.11 -0.36,-0.2 -0.9,-0.21 -0.54,-0.01 -1.02,0.07 -1.07,0.18 -0.04,0.11 0.36,0.21 0.91,0.22z"/>
    <path class="fil1" d="M110.68 6.01c0.55,0 1.02,-0.08 1.07,-0.19 0.04,-0.11 -0.36,-0.2 -0.9,-0.21 -0.55,-0.01 -1.03,0.07 -1.07,0.18 -0.05,0.11 0.36,0.21 0.9,0.22z"/>
    <path class="fil1" d="M108.49 6.01c0.54,0 1.02,-0.08 1.06,-0.19 0.05,-0.11 -0.36,-0.2 -0.9,-0.21 -0.55,-0.01 -1.02,0.07 -1.07,0.18 -0.04,0.11 0.36,0.21 0.91,0.22z"/>
    <path class="fil1" d="M106.29 6.01c0.54,0 1.02,-0.08 1.07,-0.19 0.04,-0.11 -0.36,-0.2 -0.91,-0.21 -0.54,-0.01 -1.02,0.07 -1.06,0.18 -0.05,0.11 0.36,0.21 0.9,0.22z"/>
    <path class="fil1" d="M104.09 6.01c0.55,0 1.03,-0.08 1.07,-0.19 0.05,-0.11 -0.36,-0.2 -0.9,-0.21 -0.55,-0.01 -1.02,0.07 -1.07,0.18 -0.04,0.11 0.36,0.21 0.9,0.22z"/>
    <path class="fil1" d="M101.9 6.01c0.54,0 1.02,-0.08 1.07,-0.19 0.04,-0.11 -0.36,-0.2 -0.91,-0.21 -0.54,-0.01 -1.02,0.07 -1.06,0.18 -0.05,0.11 0.35,0.21 0.9,0.22z"/>
    <path class="fil1" d="M99.7 6.01c0.55,0 1.03,-0.08 1.07,-0.19 0.05,-0.11 -0.36,-0.2 -0.9,-0.21 -0.55,-0.01 -1.02,0.07 -1.07,0.18 -0.05,0.11 0.36,0.21 0.9,0.22z"/>
    <path class="fil1" d="M97.51 6.01c0.54,0 1.02,-0.08 1.07,-0.19 0.04,-0.11 -0.36,-0.2 -0.91,-0.21 -0.54,-0.01 -1.02,0.07 -1.07,0.18 -0.04,0.11 0.36,0.21 0.91,0.22z"/>
    <path class="fil1" d="M95.31 6.01c0.55,0 1.03,-0.08 1.07,-0.19 0.05,-0.11 -0.36,-0.2 -0.9,-0.21 -0.55,-0.01 -1.03,0.07 -1.07,0.18 -0.05,0.11 0.36,0.21 0.9,0.22z"/>
    <path class="fil1" d="M93.12 6.01c0.54,0 1.02,-0.08 1.07,-0.19 0.04,-0.11 -0.36,-0.2 -0.91,-0.21 -0.54,-0.01 -1.02,0.07 -1.07,0.18 -0.04,0.11 0.36,0.21 0.91,0.22z"/>
    <path class="fil1" d="M90.92 6.01c0.55,0 1.02,-0.08 1.07,-0.19 0.05,-0.11 -0.36,-0.2 -0.9,-0.21 -0.55,-0.01 -1.03,0.07 -1.07,0.18 -0.05,0.11 0.36,0.21 0.9,0.22z"/>
    <path class="fil1" d="M88.73 6.01c0.54,0 1.02,-0.08 1.06,-0.19 0.05,-0.11 -0.36,-0.2 -0.9,-0.21 -0.54,-0.01 -1.02,0.07 -1.07,0.18 -0.04,0.11 0.36,0.21 0.91,0.22z"/>
    <path class="fil1" d="M86.53 6.01c0.55,0 1.02,-0.08 1.07,-0.19 0.04,-0.11 -0.36,-0.2 -0.91,-0.21 -0.54,-0.01 -1.02,0.07 -1.06,0.18 -0.05,0.11 0.36,0.21 0.9,0.22z"/>
    <path class="fil1" d="M84.34 6.01c0.54,0 1.02,-0.08 1.06,-0.19 0.05,-0.11 -0.36,-0.2 -0.9,-0.21 -0.55,-0.01 -1.02,0.07 -1.07,0.18 -0.04,0.11 0.36,0.21 0.91,0.22z"/>
    <path class="fil1" d="M82.14 6.01c0.54,0 1.02,-0.08 1.07,-0.19 0.04,-0.11 -0.36,-0.2 -0.91,-0.21 -0.54,-0.01 -1.02,0.07 -1.06,0.18 -0.05,0.11 0.36,0.21 0.9,0.22z"/>
    <path class="fil1" d="M79.94 6.01c0.55,0 1.03,-0.08 1.07,-0.19 0.05,-0.11 -0.36,-0.2 -0.9,-0.21 -0.55,-0.01 -1.02,0.07 -1.07,0.18 -0.04,0.11 0.36,0.21 0.9,0.22z"/>
    <path class="fil1" d="M77.75 6.01c0.54,0 1.02,-0.08 1.07,-0.19 0.04,-0.11 -0.36,-0.2 -0.91,-0.21 -0.54,-0.01 -1.02,0.07 -1.06,0.18 -0.05,0.11 0.35,0.21 0.9,0.22z"/>
    <path class="fil1" d="M75.55 6.01c0.55,0 1.03,-0.08 1.07,-0.19 0.05,-0.11 -0.36,-0.2 -0.9,-0.21 -0.55,-0.01 -1.03,0.07 -1.07,0.18 -0.05,0.11 0.36,0.21 0.9,0.22z"/>
    <path class="fil1" d="M73.36 6.01c0.54,0 1.02,-0.08 1.07,-0.19 0.04,-0.11 -0.36,-0.2 -0.91,-0.21 -0.54,-0.01 -1.02,0.07 -1.07,0.18 -0.04,0.11 0.36,0.21 0.91,0.22z"/>
    <path class="fil1" d="M71.16 6.01c0.55,0 1.03,-0.08 1.07,-0.19 0.05,-0.11 -0.36,-0.2 -0.9,-0.21 -0.55,-0.01 -1.03,0.07 -1.07,0.18 -0.05,0.11 0.36,0.21 0.9,0.22z"/>
    <path class="fil1" d="M68.97 6.01c0.54,0 1.02,-0.08 1.07,-0.19 0.04,-0.11 -0.36,-0.2 -0.91,-0.21 -0.54,-0.01 -1.02,0.07 -1.07,0.18 -0.04,0.11 0.36,0.21 0.91,0.22z"/>
    <path class="fil1" d="M66.77 6.01c0.55,0 1.02,-0.08 1.07,-0.19 0.04,-0.11 -0.36,-0.2 -0.9,-0.21 -0.55,-0.01 -1.03,0.07 -1.07,0.18 -0.05,0.11 0.36,0.21 0.9,0.22z"/>
    <path class="fil1" d="M64.58 6.01c0.54,0 1.02,-0.08 1.06,-0.19 0.05,-0.11 -0.36,-0.2 -0.9,-0.21 -0.54,-0.01 -1.02,0.07 -1.07,0.18 -0.04,0.11 0.36,0.21 0.91,0.22z"/>
    <path class="fil1" d="M62.38 6.01c0.55,0 1.02,-0.08 1.07,-0.19 0.04,-0.11 -0.36,-0.2 -0.91,-0.21 -0.54,-0.01 -1.02,0.07 -1.06,0.18 -0.05,0.11 0.36,0.21 0.9,0.22z"/>
    <path class="fil1" d="M60.19 6.01c0.54,0 1.02,-0.08 1.06,-0.19 0.05,-0.11 -0.36,-0.2 -0.9,-0.21 -0.55,-0.01 -1.02,0.07 -1.07,0.18 -0.04,0.11 0.36,0.21 0.91,0.22z"/>
    <path class="fil1" d="M57.99 6.01c0.54,0 1.02,-0.08 1.07,-0.19 0.04,-0.11 -0.36,-0.2 -0.91,-0.21 -0.54,-0.01 -1.02,0.07 -1.06,0.18 -0.05,0.11 0.36,0.21 0.9,0.22z"/>
    <path class="fil1" d="M55.79 6.01c0.55,0 1.03,-0.08 1.07,-0.19 0.05,-0.11 -0.36,-0.2 -0.9,-0.21 -0.55,-0.01 -1.02,0.07 -1.07,0.18 -0.04,0.11 0.36,0.21 0.9,0.22z"/>
    <path class="fil1" d="M53.6 6.01c0.54,0 1.02,-0.08 1.07,-0.19 0.04,-0.11 -0.36,-0.2 -0.91,-0.21 -0.54,-0.01 -1.02,0.07 -1.07,0.18 -0.04,0.11 0.36,0.21 0.91,0.22z"/>
    <path class="fil1" d="M51.4 6.01c0.55,0 1.03,-0.08 1.07,-0.19 0.05,-0.11 -0.36,-0.2 -0.9,-0.21 -0.55,-0.01 -1.03,0.07 -1.07,0.18 -0.05,0.11 0.36,0.21 0.9,0.22z"/>
    <path class="fil1" d="M49.21 6.01c0.54,0 1.02,-0.08 1.07,-0.19 0.04,-0.11 -0.36,-0.2 -0.91,-0.21 -0.54,-0.01 -1.02,0.07 -1.07,0.18 -0.04,0.11 0.36,0.21 0.91,0.22z"/>
    <path class="fil1" d="M47.01 6.01c0.55,0 1.03,-0.08 1.07,-0.19 0.05,-0.11 -0.36,-0.2 -0.9,-0.21 -0.55,-0.01 -1.03,0.07 -1.07,0.18 -0.05,0.11 0.36,0.21 0.9,0.22z"/>
    <path class="fil1" d="M44.82 6.01c0.54,0 1.02,-0.08 1.06,-0.19 0.05,-0.11 -0.35,-0.2 -0.9,-0.21 -0.54,-0.01 -1.02,0.07 -1.07,0.18 -0.04,0.11 0.36,0.21 0.91,0.22z"/>
    <path class="fil1" d="M42.62 6.01c0.55,0 1.02,-0.08 1.07,-0.19 0.04,-0.11 -0.36,-0.2 -0.9,-0.21 -0.55,-0.01 -1.03,0.07 -1.07,0.18 -0.05,0.11 0.36,0.21 0.9,0.22z"/>
    <path class="fil1" d="M40.43 6.01c0.54,0 1.02,-0.08 1.06,-0.19 0.05,-0.11 -0.36,-0.2 -0.9,-0.21 -0.54,-0.01 -1.02,0.07 -1.07,0.18 -0.04,0.11 0.36,0.21 0.91,0.22z"/>
    <path class="fil1" d="M38.23 6.01c0.55,0 1.02,-0.08 1.07,-0.19 0.04,-0.11 -0.36,-0.2 -0.91,-0.21 -0.54,-0.01 -1.02,0.07 -1.06,0.18 -0.05,0.11 0.36,0.21 0.9,0.22z"/>
    <path class="fil1" d="M36.04 6.01c0.54,0 1.02,-0.08 1.06,-0.19 0.05,-0.11 -0.36,-0.2 -0.9,-0.21 -0.55,-0.01 -1.02,0.07 -1.07,0.18 -0.04,0.11 0.36,0.21 0.91,0.22z"/>
    <path class="fil1" d="M33.84 6.01c0.54,0 1.02,-0.08 1.07,-0.19 0.04,-0.11 -0.36,-0.2 -0.91,-0.21 -0.54,-0.01 -1.02,0.07 -1.06,0.18 -0.05,0.11 0.36,0.21 0.9,0.22z"/>
    <path class="fil1" d="M31.64 6.01c0.55,0 1.03,-0.08 1.07,-0.19 0.05,-0.11 -0.36,-0.2 -0.9,-0.21 -0.55,-0.01 -1.02,0.07 -1.07,0.18 -0.04,0.11 0.36,0.21 0.9,0.22z"/>
    <path class="fil1" d="M29.45 6.01c0.54,0 1.02,-0.08 1.07,-0.19 0.04,-0.11 -0.36,-0.2 -0.91,-0.21 -0.54,-0.01 -1.02,0.07 -1.07,0.18 -0.04,0.11 0.36,0.21 0.91,0.22z"/>
    <path class="fil1" d="M27.25 6.01c0.55,0 1.03,-0.08 1.07,-0.19 0.05,-0.11 -0.36,-0.2 -0.9,-0.21 -0.55,-0.01 -1.03,0.07 -1.07,0.18 -0.05,0.11 0.36,0.21 0.9,0.22z"/>
    <path class="fil1" d="M25.06 6.01c0.54,0 1.02,-0.08 1.07,-0.19 0.04,-0.11 -0.36,-0.2 -0.91,-0.21 -0.54,-0.01 -1.02,0.07 -1.07,0.18 -0.04,0.11 0.36,0.21 0.91,0.22z"/>
    <path class="fil1" d="M22.86 6.01c0.55,0 1.02,-0.08 1.07,-0.19 0.05,-0.11 -0.36,-0.2 -0.9,-0.21 -0.55,-0.01 -1.03,0.07 -1.07,0.18 -0.05,0.11 0.36,0.21 0.9,0.22z"/>
    <path class="fil1" d="M20.67 6.01c0.54,0 1.02,-0.08 1.06,-0.19 0.05,-0.11 -0.36,-0.2 -0.9,-0.21 -0.54,-0.01 -1.02,0.07 -1.07,0.18 -0.04,0.11 0.36,0.21 0.91,0.22z"/>
    <path class="fil1" d="M18.47 6.01c0.55,0 1.02,-0.08 1.07,-0.19 0.04,-0.11 -0.36,-0.2 -0.9,-0.21 -0.55,-0.01 -1.03,0.07 -1.07,0.18 -0.05,0.11 0.36,0.21 0.9,0.22z"/>
    <path class="fil1" d="M16.28 6.01c0.54,0 1.02,-0.08 1.06,-0.19 0.05,-0.11 -0.36,-0.2 -0.9,-0.21 -0.55,-0.01 -1.02,0.07 -1.07,0.18 -0.04,0.11 0.36,0.21 0.91,0.22z"/>
    <path class="fil1" d="M14.08 6.01c0.55,0 1.02,-0.08 1.07,-0.19 0.04,-0.11 -0.36,-0.2 -0.91,-0.21 -0.54,-0.01 -1.02,0.07 -1.06,0.18 -0.05,0.11 0.36,0.21 0.9,0.22z"/>
    <path class="fil1" d="M11.89 6.01c0.54,0 1.02,-0.08 1.06,-0.19 0.05,-0.11 -0.36,-0.2 -0.9,-0.21 -0.55,-0.01 -1.02,0.07 -1.07,0.18 -0.04,0.11 0.36,0.21 0.91,0.22z"/>
    <path class="fil1" d="M9.69 6.01c0.54,0 1.02,-0.08 1.07,-0.19 0.04,-0.11 -0.36,-0.2 -0.91,-0.21 -0.54,-0.01 -1.02,0.07 -1.06,0.18 -0.05,0.11 0.35,0.21 0.9,0.22z"/>
    <path class="fil1" d="M7.49 6.01c0.55,0 1.03,-0.08 1.07,-0.19 0.05,-0.11 -0.36,-0.2 -0.9,-0.21 -0.55,-0.01 -1.02,0.07 -1.07,0.18 -0.05,0.11 0.36,0.21 0.9,0.22z"/>
    <path class="fil1" d="M5.3 6.01c0.54,0 1.02,-0.08 1.07,-0.19 0.04,-0.11 -0.36,-0.2 -0.91,-0.21 -0.54,-0.01 -1.02,0.07 -1.07,0.18 -0.04,0.11 0.36,0.21 0.91,0.22z"/>
    <path class="fil1" d="M3.1 6.01c0.55,0 1.03,-0.08 1.07,-0.19 0.05,-0.11 -0.36,-0.2 -0.9,-0.21 -0.55,-0.01 -1.03,0.07 -1.07,0.18 -0.05,0.11 0.36,0.21 0.9,0.22z"/>
    <path class="fil1" d="M0.91 6.01c0.54,0 1.02,-0.08 1.07,-0.19 0.04,-0.11 -0.36,-0.2 -0.91,-0.21 -0.54,-0.01 -1.02,0.07 -1.07,0.18 -0.04,0.11 0.36,0.21 0.91,0.22z"/>
    <path class="fil1" d="M163.37 6.01c0.55,0 1.03,-0.08 1.07,-0.19 0.05,-0.11 -0.36,-0.2 -0.9,-0.21 -0.55,-0.01 -1.03,0.07 -1.07,0.18 -0.05,0.11 0.36,0.21 0.9,0.22z"/>
    <path class="fil1" d="M161.18 6.01c0.54,0 1.02,-0.08 1.06,-0.19 0.05,-0.11 -0.35,-0.2 -0.9,-0.21 -0.54,-0.01 -1.02,0.07 -1.07,0.18 -0.04,0.11 0.36,0.21 0.91,0.22z"/>
    <path class="fil1" d="M158.98 6.01c0.55,0 1.02,-0.08 1.07,-0.19 0.04,-0.11 -0.36,-0.2 -0.9,-0.21 -0.55,-0.01 -1.03,0.07 -1.07,0.18 -0.05,0.11 0.36,0.21 0.9,0.22z"/>
    <path class="fil1" d="M156.79 6.01c0.54,0 1.02,-0.08 1.06,-0.19 0.05,-0.11 -0.36,-0.2 -0.9,-0.21 -0.54,-0.01 -1.02,0.07 -1.07,0.18 -0.04,0.11 0.36,0.21 0.91,0.22z"/>
    <path class="fil1" d="M154.59 6.01c0.55,0 1.02,-0.08 1.07,-0.19 0.04,-0.11 -0.36,-0.2 -0.91,-0.21 -0.54,-0.01 -1.02,0.07 -1.06,0.18 -0.05,0.11 0.36,0.21 0.9,0.22z"/>
    <path class="fil1" d="M152.4 6.01c0.54,0 1.02,-0.08 1.06,-0.19 0.05,-0.11 -0.36,-0.2 -0.9,-0.21 -0.55,-0.01 -1.02,0.07 -1.07,0.18 -0.04,0.11 0.36,0.21 0.91,0.22z"/>
    <path class="fil1" d="M150.2 6.01c0.54,0 1.02,-0.08 1.07,-0.19 0.04,-0.11 -0.36,-0.2 -0.91,-0.21 -0.54,-0.01 -1.02,0.07 -1.06,0.18 -0.05,0.11 0.36,0.21 0.9,0.22z"/>
    <path class="fil1" d="M148 6.01c0.55,0 1.03,-0.08 1.07,-0.19 0.05,-0.11 -0.36,-0.2 -0.9,-0.21 -0.55,-0.01 -1.02,0.07 -1.07,0.18 -0.04,0.11 0.36,0.21 0.9,0.22z"/>
    <path class="fil1" d="M145.81 6.01c0.54,0 1.02,-0.08 1.07,-0.19 0.04,-0.11 -0.36,-0.2 -0.91,-0.21 -0.54,-0.01 -1.02,0.07 -1.07,0.18 -0.04,0.11 0.36,0.21 0.91,0.22z"/>
    <path class="fil1" d="M143.61 6.01c0.55,0 1.03,-0.08 1.07,-0.19 0.05,-0.11 -0.36,-0.2 -0.9,-0.21 -0.55,-0.01 -1.03,0.07 -1.07,0.18 -0.05,0.11 0.36,0.21 0.9,0.22z"/>
    <path class="fil1" d="M141.42 6.01c0.54,0 1.02,-0.08 1.07,-0.19 0.04,-0.11 -0.36,-0.2 -0.91,-0.21 -0.54,-0.01 -1.02,0.07 -1.07,0.18 -0.04,0.11 0.36,0.21 0.91,0.22z"/>
    <path class="fil1" d="M139.22 6.01c0.55,0 1.02,-0.08 1.07,-0.19 0.05,-0.11 -0.36,-0.2 -0.9,-0.21 -0.55,-0.01 -1.03,0.07 -1.07,0.18 -0.05,0.11 0.36,0.21 0.9,0.22z"/>
    <path class="fil1" d="M137.03 6.01c0.54,0 1.02,-0.08 1.06,-0.19 0.05,-0.11 -0.36,-0.2 -0.9,-0.21 -0.54,-0.01 -1.02,0.07 -1.07,0.18 -0.04,0.11 0.36,0.21 0.91,0.22z"/>
    <path class="fil1" d="M134.83 6.01c0.55,0 1.02,-0.08 1.07,-0.19 0.04,-0.11 -0.36,-0.2 -0.9,-0.21 -0.55,-0.01 -1.03,0.07 -1.07,0.18 -0.05,0.11 0.36,0.21 0.9,0.22z"/>
    <path class="fil1" d="M132.64 6.01c0.54,0 1.02,-0.08 1.06,-0.19 0.05,-0.11 -0.36,-0.2 -0.9,-0.21 -0.54,-0.01 -1.02,0.07 -1.07,0.18 -0.04,0.11 0.36,0.21 0.91,0.22z"/>
    <path class="fil1" d="M130.44 6.01c0.55,0 1.02,-0.08 1.07,-0.19 0.04,-0.11 -0.36,-0.2 -0.91,-0.21 -0.54,-0.01 -1.02,0.07 -1.06,0.18 -0.05,0.11 0.36,0.21 0.9,0.22z"/>
    <path class="fil1" d="M128.25 6.01c0.54,0 1.02,-0.08 1.06,-0.19 0.05,-0.11 -0.36,-0.2 -0.9,-0.21 -0.55,-0.01 -1.02,0.07 -1.07,0.18 -0.04,0.11 0.36,0.21 0.91,0.22z"/>
    <path class="fil1" d="M126.05 6.01c0.54,0 1.02,-0.08 1.07,-0.19 0.04,-0.11 -0.36,-0.2 -0.91,-0.21 -0.54,-0.01 -1.02,0.07 -1.06,0.18 -0.05,0.11 0.36,0.21 0.9,0.22z"/>
    <path class="fil1" d="M123.85 6.01c0.55,0 1.03,-0.08 1.07,-0.19 0.05,-0.11 -0.36,-0.2 -0.9,-0.21 -0.55,-0.01 -1.02,0.07 -1.07,0.18 -0.05,0.11 0.36,0.21 0.9,0.22z"/>
    <path class="fil1" d="M121.66 6.01c0.54,0 1.02,-0.08 1.07,-0.19 0.04,-0.11 -0.36,-0.2 -0.91,-0.21 -0.54,-0.01 -1.02,0.07 -1.07,0.18 -0.04,0.11 0.36,0.21 0.91,0.22z"/>
    <path class="fil1" d="M119.46 6.01c0.55,0 1.03,-0.08 1.07,-0.19 0.05,-0.11 -0.36,-0.2 -0.9,-0.21 -0.55,-0.01 -1.03,0.07 -1.07,0.18 -0.05,0.11 0.36,0.21 0.9,0.22z"/>
    <path class="fil1" d="M117.27 6.01c0.54,0 1.02,-0.08 1.07,-0.19 0.04,-0.11 -0.36,-0.2 -0.91,-0.21 -0.54,-0.01 -1.02,0.07 -1.07,0.18 -0.04,0.11 0.36,0.21 0.91,0.22z"/>
    <path class="fil1" d="M115.07 6.01c0.55,0 1.02,-0.08 1.07,-0.19 0.05,-0.11 -0.36,-0.2 -0.9,-0.21 -0.55,-0.01 -1.03,0.07 -1.07,0.18 -0.05,0.11 0.36,0.21 0.9,0.22z"/>
    <path class="fil1" d="M112.88 6.01c0.54,0 1.02,-0.08 1.06,-0.19 0.05,-0.11 -0.36,-0.2 -0.9,-0.21 -0.54,-0.01 -1.02,0.07 -1.07,0.18 -0.04,0.11 0.36,0.21 0.91,0.22z"/>
    <path class="fil1" d="M110.68 6.01c0.55,0 1.02,-0.08 1.07,-0.19 0.04,-0.11 -0.36,-0.2 -0.9,-0.21 -0.55,-0.01 -1.03,0.07 -1.07,0.18 -0.05,0.11 0.36,0.21 0.9,0.22z"/>
    <path class="fil1" d="M108.49 6.01c0.54,0 1.02,-0.08 1.06,-0.19 0.05,-0.11 -0.36,-0.2 -0.9,-0.21 -0.55,-0.01 -1.02,0.07 -1.07,0.18 -0.04,0.11 0.36,0.21 0.91,0.22z"/>
    <path class="fil1" d="M106.29 6.01c0.54,0 1.02,-0.08 1.07,-0.19 0.04,-0.11 -0.36,-0.2 -0.91,-0.21 -0.54,-0.01 -1.02,0.07 -1.06,0.18 -0.05,0.11 0.36,0.21 0.9,0.22z"/>
    <path class="fil1" d="M104.09 6.01c0.55,0 1.03,-0.08 1.07,-0.19 0.05,-0.11 -0.36,-0.2 -0.9,-0.21 -0.55,-0.01 -1.02,0.07 -1.07,0.18 -0.04,0.11 0.36,0.21 0.9,0.22z"/>
    <path class="fil1" d="M101.9 6.01c0.54,0 1.02,-0.08 1.07,-0.19 0.04,-0.11 -0.36,-0.2 -0.91,-0.21 -0.54,-0.01 -1.02,0.07 -1.06,0.18 -0.05,0.11 0.35,0.21 0.9,0.22z"/>
    <path class="fil1" d="M99.7 6.01c0.55,0 1.03,-0.08 1.07,-0.19 0.05,-0.11 -0.36,-0.2 -0.9,-0.21 -0.55,-0.01 -1.02,0.07 -1.07,0.18 -0.05,0.11 0.36,0.21 0.9,0.22z"/>
    <path class="fil1" d="M97.51 6.01c0.54,0 1.02,-0.08 1.07,-0.19 0.04,-0.11 -0.36,-0.2 -0.91,-0.21 -0.54,-0.01 -1.02,0.07 -1.07,0.18 -0.04,0.11 0.36,0.21 0.91,0.22z"/>
    <path class="fil1" d="M95.31 6.01c0.55,0 1.03,-0.08 1.07,-0.19 0.05,-0.11 -0.36,-0.2 -0.9,-0.21 -0.55,-0.01 -1.03,0.07 -1.07,0.18 -0.05,0.11 0.36,0.21 0.9,0.22z"/>
    <path class="fil1" d="M93.12 6.01c0.54,0 1.02,-0.08 1.07,-0.19 0.04,-0.11 -0.36,-0.2 -0.91,-0.21 -0.54,-0.01 -1.02,0.07 -1.07,0.18 -0.04,0.11 0.36,0.21 0.91,0.22z"/>
    <path class="fil1" d="M90.92 6.01c0.55,0 1.02,-0.08 1.07,-0.19 0.05,-0.11 -0.36,-0.2 -0.9,-0.21 -0.55,-0.01 -1.03,0.07 -1.07,0.18 -0.05,0.11 0.36,0.21 0.9,0.22z"/>
    <path class="fil1" d="M88.73 6.01c0.54,0 1.02,-0.08 1.06,-0.19 0.05,-0.11 -0.36,-0.2 -0.9,-0.21 -0.54,-0.01 -1.02,0.07 -1.07,0.18 -0.04,0.11 0.36,0.21 0.91,0.22z"/>
    <path class="fil1" d="M86.53 6.01c0.55,0 1.02,-0.08 1.07,-0.19 0.04,-0.11 -0.36,-0.2 -0.91,-0.21 -0.54,-0.01 -1.02,0.07 -1.06,0.18 -0.05,0.11 0.36,0.21 0.9,0.22z"/>
    <path class="fil1" d="M84.34 6.01c0.54,0 1.02,-0.08 1.06,-0.19 0.05,-0.11 -0.36,-0.2 -0.9,-0.21 -0.55,-0.01 -1.02,0.07 -1.07,0.18 -0.04,0.11 0.36,0.21 0.91,0.22z"/>
    <path class="fil1" d="M82.14 6.01c0.54,0 1.02,-0.08 1.07,-0.19 0.04,-0.11 -0.36,-0.2 -0.91,-0.21 -0.54,-0.01 -1.02,0.07 -1.06,0.18 -0.05,0.11 0.36,0.21 0.9,0.22z"/>
    <path class="fil1" d="M79.94 6.01c0.55,0 1.03,-0.08 1.07,-0.19 0.05,-0.11 -0.36,-0.2 -0.9,-0.21 -0.55,-0.01 -1.02,0.07 -1.07,0.18 -0.04,0.11 0.36,0.21 0.9,0.22z"/>
    <path class="fil1" d="M77.75 6.01c0.54,0 1.02,-0.08 1.07,-0.19 0.04,-0.11 -0.36,-0.2 -0.91,-0.21 -0.54,-0.01 -1.02,0.07 -1.06,0.18 -0.05,0.11 0.35,0.21 0.9,0.22z"/>
    <path class="fil1" d="M75.55 6.01c0.55,0 1.03,-0.08 1.07,-0.19 0.05,-0.11 -0.36,-0.2 -0.9,-0.21 -0.55,-0.01 -1.03,0.07 -1.07,0.18 -0.05,0.11 0.36,0.21 0.9,0.22z"/>
    <path class="fil1" d="M73.36 6.01c0.54,0 1.02,-0.08 1.07,-0.19 0.04,-0.11 -0.36,-0.2 -0.91,-0.21 -0.54,-0.01 -1.02,0.07 -1.07,0.18 -0.04,0.11 0.36,0.21 0.91,0.22z"/>
    <path class="fil1" d="M71.16 6.01c0.55,0 1.03,-0.08 1.07,-0.19 0.05,-0.11 -0.36,-0.2 -0.9,-0.21 -0.55,-0.01 -1.03,0.07 -1.07,0.18 -0.05,0.11 0.36,0.21 0.9,0.22z"/>
    <path class="fil1" d="M68.97 6.01c0.54,0 1.02,-0.08 1.07,-0.19 0.04,-0.11 -0.36,-0.2 -0.91,-0.21 -0.54,-0.01 -1.02,0.07 -1.07,0.18 -0.04,0.11 0.36,0.21 0.91,0.22z"/>
    <path class="fil1" d="M66.77 6.01c0.55,0 1.02,-0.08 1.07,-0.19 0.04,-0.11 -0.36,-0.2 -0.9,-0.21 -0.55,-0.01 -1.03,0.07 -1.07,0.18 -0.05,0.11 0.36,0.21 0.9,0.22z"/>
    <path class="fil1" d="M64.58 6.01c0.54,0 1.02,-0.08 1.06,-0.19 0.05,-0.11 -0.36,-0.2 -0.9,-0.21 -0.54,-0.01 -1.02,0.07 -1.07,0.18 -0.04,0.11 0.36,0.21 0.91,0.22z"/>
    <path class="fil1" d="M62.38 6.01c0.55,0 1.02,-0.08 1.07,-0.19 0.04,-0.11 -0.36,-0.2 -0.91,-0.21 -0.54,-0.01 -1.02,0.07 -1.06,0.18 -0.05,0.11 0.36,0.21 0.9,0.22z"/>
    <path class="fil1" d="M60.19 6.01c0.54,0 1.02,-0.08 1.06,-0.19 0.05,-0.11 -0.36,-0.2 -0.9,-0.21 -0.55,-0.01 -1.02,0.07 -1.07,0.18 -0.04,0.11 0.36,0.21 0.91,0.22z"/>
    <path class="fil1" d="M57.99 6.01c0.54,0 1.02,-0.08 1.07,-0.19 0.04,-0.11 -0.36,-0.2 -0.91,-0.21 -0.54,-0.01 -1.02,0.07 -1.06,0.18 -0.05,0.11 0.36,0.21 0.9,0.22z"/>
    <path class="fil1" d="M55.79 6.01c0.55,0 1.03,-0.08 1.07,-0.19 0.05,-0.11 -0.36,-0.2 -0.9,-0.21 -0.55,-0.01 -1.02,0.07 -1.07,0.18 -0.04,0.11 0.36,0.21 0.9,0.22z"/>
    <path class="fil1" d="M53.6 6.01c0.54,0 1.02,-0.08 1.07,-0.19 0.04,-0.11 -0.36,-0.2 -0.91,-0.21 -0.54,-0.01 -1.02,0.07 -1.07,0.18 -0.04,0.11 0.36,0.21 0.91,0.22z"/>
    <path class="fil1" d="M51.4 6.01c0.55,0 1.03,-0.08 1.07,-0.19 0.05,-0.11 -0.36,-0.2 -0.9,-0.21 -0.55,-0.01 -1.03,0.07 -1.07,0.18 -0.05,0.11 0.36,0.21 0.9,0.22z"/>
    <path class="fil1" d="M49.21 6.01c0.54,0 1.02,-0.08 1.07,-0.19 0.04,-0.11 -0.36,-0.2 -0.91,-0.21 -0.54,-0.01 -1.02,0.07 -1.07,0.18 -0.04,0.11 0.36,0.21 0.91,0.22z"/>
    <path class="fil1" d="M47.01 6.01c0.55,0 1.03,-0.08 1.07,-0.19 0.05,-0.11 -0.36,-0.2 -0.9,-0.21 -0.55,-0.01 -1.03,0.07 -1.07,0.18 -0.05,0.11 0.36,0.21 0.9,0.22z"/>
    <path class="fil1" d="M44.82 6.01c0.54,0 1.02,-0.08 1.06,-0.19 0.05,-0.11 -0.35,-0.2 -0.9,-0.21 -0.54,-0.01 -1.02,0.07 -1.07,0.18 -0.04,0.11 0.36,0.21 0.91,0.22z"/>
    <path class="fil1" d="M42.62 6.01c0.55,0 1.02,-0.08 1.07,-0.19 0.04,-0.11 -0.36,-0.2 -0.9,-0.21 -0.55,-0.01 -1.03,0.07 -1.07,0.18 -0.05,0.11 0.36,0.21 0.9,0.22z"/>
    <path class="fil1" d="M40.43 6.01c0.54,0 1.02,-0.08 1.06,-0.19 0.05,-0.11 -0.36,-0.2 -0.9,-0.21 -0.54,-0.01 -1.02,0.07 -1.07,0.18 -0.04,0.11 0.36,0.21 0.91,0.22z"/>
    <path class="fil1" d="M38.23 6.01c0.55,0 1.02,-0.08 1.07,-0.19 0.04,-0.11 -0.36,-0.2 -0.91,-0.21 -0.54,-0.01 -1.02,0.07 -1.06,0.18 -0.05,0.11 0.36,0.21 0.9,0.22z"/>
    <path class="fil1" d="M36.04 6.01c0.54,0 1.02,-0.08 1.06,-0.19 0.05,-0.11 -0.36,-0.2 -0.9,-0.21 -0.55,-0.01 -1.02,0.07 -1.07,0.18 -0.04,0.11 0.36,0.21 0.91,0.22z"/>
    <path class="fil1" d="M33.84 6.01c0.54,0 1.02,-0.08 1.07,-0.19 0.04,-0.11 -0.36,-0.2 -0.91,-0.21 -0.54,-0.01 -1.02,0.07 -1.06,0.18 -0.05,0.11 0.36,0.21 0.9,0.22z"/>
    <path class="fil1" d="M31.64 6.01c0.55,0 1.03,-0.08 1.07,-0.19 0.05,-0.11 -0.36,-0.2 -0.9,-0.21 -0.55,-0.01 -1.02,0.07 -1.07,0.18 -0.04,0.11 0.36,0.21 0.9,0.22z"/>
    <path class="fil1" d="M29.45 6.01c0.54,0 1.02,-0.08 1.07,-0.19 0.04,-0.11 -0.36,-0.2 -0.91,-0.21 -0.54,-0.01 -1.02,0.07 -1.07,0.18 -0.04,0.11 0.36,0.21 0.91,0.22z"/>
    <path class="fil1" d="M27.25 6.01c0.55,0 1.03,-0.08 1.07,-0.19 0.05,-0.11 -0.36,-0.2 -0.9,-0.21 -0.55,-0.01 -1.03,0.07 -1.07,0.18 -0.05,0.11 0.36,0.21 0.9,0.22z"/>
    <path class="fil1" d="M25.06 6.01c0.54,0 1.02,-0.08 1.07,-0.19 0.04,-0.11 -0.36,-0.2 -0.91,-0.21 -0.54,-0.01 -1.02,0.07 -1.07,0.18 -0.04,0.11 0.36,0.21 0.91,0.22z"/>
    <path class="fil1" d="M22.86 6.01c0.55,0 1.02,-0.08 1.07,-0.19 0.05,-0.11 -0.36,-0.2 -0.9,-0.21 -0.55,-0.01 -1.03,0.07 -1.07,0.18 -0.05,0.11 0.36,0.21 0.9,0.22z"/>
    <path class="fil1" d="M20.67 6.01c0.54,0 1.02,-0.08 1.06,-0.19 0.05,-0.11 -0.36,-0.2 -0.9,-0.21 -0.54,-0.01 -1.02,0.07 -1.07,0.18 -0.04,0.11 0.36,0.21 0.91,0.22z"/>
    <path class="fil1" d="M18.47 6.01c0.55,0 1.02,-0.08 1.07,-0.19 0.04,-0.11 -0.36,-0.2 -0.9,-0.21 -0.55,-0.01 -1.03,0.07 -1.07,0.18 -0.05,0.11 0.36,0.21 0.9,0.22z"/>
    <path class="fil1" d="M16.28 6.01c0.54,0 1.02,-0.08 1.06,-0.19 0.05,-0.11 -0.36,-0.2 -0.9,-0.21 -0.55,-0.01 -1.02,0.07 -1.07,0.18 -0.04,0.11 0.36,0.21 0.91,0.22z"/>
    <path class="fil1" d="M14.08 6.01c0.55,0 1.02,-0.08 1.07,-0.19 0.04,-0.11 -0.36,-0.2 -0.91,-0.21 -0.54,-0.01 -1.02,0.07 -1.06,0.18 -0.05,0.11 0.36,0.21 0.9,0.22z"/>
    <path class="fil1" d="M11.89 6.01c0.54,0 1.02,-0.08 1.06,-0.19 0.05,-0.11 -0.36,-0.2 -0.9,-0.21 -0.55,-0.01 -1.02,0.07 -1.07,0.18 -0.04,0.11 0.36,0.21 0.91,0.22z"/>
    <path class="fil1" d="M9.69 6.01c0.54,0 1.02,-0.08 1.07,-0.19 0.04,-0.11 -0.36,-0.2 -0.91,-0.21 -0.54,-0.01 -1.02,0.07 -1.06,0.18 -0.05,0.11 0.35,0.21 0.9,0.22z"/>
    <path class="fil1" d="M7.49 6.01c0.55,0 1.03,-0.08 1.07,-0.19 0.05,-0.11 -0.36,-0.2 -0.9,-0.21 -0.55,-0.01 -1.02,0.07 -1.07,0.18 -0.05,0.11 0.36,0.21 0.9,0.22z"/>
    <path class="fil1" d="M5.3 6.01c0.54,0 1.02,-0.08 1.07,-0.19 0.04,-0.11 -0.36,-0.2 -0.91,-0.21 -0.54,-0.01 -1.02,0.07 -1.07,0.18 -0.04,0.11 0.36,0.21 0.91,0.22z"/>
    <path class="fil1" d="M3.1 6.01c0.55,0 1.03,-0.08 1.07,-0.19 0.05,-0.11 -0.36,-0.2 -0.9,-0.21 -0.55,-0.01 -1.03,0.07 -1.07,0.18 -0.05,0.11 0.36,0.21 0.9,0.22z"/>
    <path class="fil1" d="M0.91 6.01c0.54,0 1.02,-0.08 1.07,-0.19 0.04,-0.11 -0.36,-0.2 -0.91,-0.21 -0.54,-0.01 -1.02,0.07 -1.07,0.18 -0.04,0.11 0.36,0.21 0.91,0.22z"/>
    <path class="fil1" d="M168.04 6.07c0.73,0.01 1.36,-0.09 1.42,-0.24 0.06,-0.15 -0.48,-0.28 -1.2,-0.29 -0.73,-0.01 -1.36,0.1 -1.42,0.24 -0.06,0.15 0.47,0.28 1.2,0.29z"/>
    <path class="fil1" d="M171.34 6.16c0.97,0.02 1.82,-0.13 1.9,-0.32 0.08,-0.2 -0.64,-0.37 -1.61,-0.39 -0.97,-0.01 -1.82,0.13 -1.9,0.33 -0.08,0.19 0.64,0.36 1.61,0.38z"/>
    <path class="fil1" d="M175.73 6.28c1.29,0.02 2.43,-0.17 2.53,-0.43 0.11,-0.26 -0.85,-0.49 -2.14,-0.52 -1.29,-0.02 -2.42,0.18 -2.53,0.44 -0.11,0.26 0.85,0.49 2.14,0.51z"/>
    <path class="fil1" d="M181.59 6.44c1.72,0.02 3.23,-0.23 3.38,-0.58 0.14,-0.35 -1.14,-0.65 -2.86,-0.68 -1.72,-0.03 -3.23,0.23 -3.37,0.57 -0.15,0.35 1.13,0.66 2.85,0.69z"/>
    <path class="fil1" d="M189.41 6.65c2.29,0.03 4.31,-0.31 4.5,-0.77 0.19,-0.47 -1.52,-0.87 -3.81,-0.91 -2.3,-0.04 -4.31,0.3 -4.5,0.77 -0.19,0.46 1.51,0.87 3.81,0.91z"/>
   </g>
  </g>
 </g>
</svg>
