<?xml version="1.0" encoding="UTF-8"?>
<!DOCTYPE svg PUBLIC "-//W3C//DTD SVG 1.1//EN" "http://www.w3.org/Graphics/SVG/1.1/DTD/svg11.dtd">
<!-- Creator: CorelDRAW -->
<svg xmlns="http://www.w3.org/2000/svg" xml:space="preserve" width="22.0101mm" height="15.8947mm" version="1.1" style="shape-rendering:geometricPrecision; text-rendering:geometricPrecision; image-rendering:optimizeQuality; fill-rule:evenodd; clip-rule:evenodd"
viewBox="0 0 2200.8 1589.32"
 xmlns:xlink="http://www.w3.org/1999/xlink"
 xmlns:xodm="http://www.corel.com/coreldraw/odm/2003">
 <defs>
  <style type="text/css">
   <![CDATA[
    .fil0 {fill:#FEFEFE}
    .fil1 {fill:#FEFEFE;fill-rule:nonzero}
   ]]>
  </style>
 </defs>
 <g id="Camada_x0020_1">
  <metadata id="CorelCorpID_0Corel-Layer"/>
  <g id="_2803414711376">
   <path class="fil0" d="M1394.35 1458.14c-0.21,-0.21 -0.42,-0.63 -0.42,-0.63l-1.67 -3.13 5.42 -1.67c0.83,1.46 0.42,0.63 1.25,1.88l-4.59 3.75 0.01 -0.2zm131.8 -2.51l-5.21 -2.92c-4.17,-1.67 -1.04,0.63 -3.96,-2.71l8.55 -1.25c0.42,-3.75 0.42,-0.83 -1.04,-2.09 -0.63,-5.21 -0.83,-4.38 -4.38,-5.42 -9.39,-3.13 -14.39,-6.88 -20.02,-8.34 -13.77,-3.55 -20.86,-3.34 -35.66,-2.92 -10.43,0.42 -5.42,0.83 -14.6,3.96 -10.64,3.55 -32.12,11.89 -40.46,17.31 -3.13,3.55 -2.5,2.92 -7.51,3.13 0.21,-0.42 0.42,-0.63 0.63,-1.04l1.25 -1.88c3.13,-5.21 -0.21,-2.5 3.34,-4.8 5.21,-5.21 10.01,-8.97 16.48,-14.6 2.29,-2.09 6.05,-5.84 7.93,-7.09 3.55,-2.29 4.38,-0.21 7.3,-5.42 7.51,-12.72 18.77,-22.32 33.79,-26.07 34.41,-8.55 59.22,-4.8 87.59,12.51 4.8,2.92 -0.63,2.71 5.63,4.38 -1.46,-6.05 -8.13,-14.39 -12.72,-17.31 -2.92,-1.88 -1.67,-0.42 -4.17,-3.55 -5.01,-6.47 -4.38,-5.01 -12.1,-8.97 -3.75,-1.88 -5.84,-6.47 -20.23,-9.59 -8.34,-1.67 -17.94,-2.09 -25.24,1.04 -2.29,1.88 -8.13,2.92 -11.68,3.55 1.04,-2.09 2.09,-3.96 3.13,-5.84 1.25,-2.29 0.83,-3.55 4.38,-3.34l2.71 -2.92c1.04,-1.04 1.25,-1.25 2.09,-2.29 8.97,-9.59 12.93,-12.93 25.86,-18.56l18.98 -7.72c3.13,-2.09 0.42,-0.42 2.29,-2.09 2.71,-2.5 3.34,-1.67 7.72,-3.13 2.09,-0.83 4.17,-1.67 6.47,-2.5 5.01,-2.09 7.51,-3.75 12.51,-5.42l12.1 -5.84c17.31,-8.76 26.28,-12.72 41.09,-22.32 7.51,-4.8 8.34,-5.84 17.1,-9.59 9.59,-3.96 14.18,-10.43 25.24,-10.64 16.69,-0.21 45.26,4.59 57.55,13.77 6.67,5.01 13.56,10.01 18.77,16.69 2.71,3.34 4.8,6.05 7.09,10.64 10.64,22.11 4.38,24.19 1.67,36.5 -1.25,5.84 -2.29,6.67 -6.88,10.64l-16.48 10.43 -16.89 4.17c-7.3,0.63 -15.64,1.25 -21.48,-2.71 -12.51,-8.34 -3.13,-23.57 -3.13,-23.57 -4.59,1.25 -16.48,3.13 -19.61,4.59 -1.88,0.83 -2.09,1.25 -2.71,2.5l-1.46 3.13c-2.92,7.51 -0.21,16.89 5.84,22.11 3.13,2.71 6.47,3.13 9.8,5.63 3.75,2.92 2.5,4.38 3.75,7.09 -6.26,0.63 -33.37,-1.88 -38.79,-4.59 -3.55,-1.67 -4.59,-3.13 -7.72,-4.38 -8.34,-3.55 -13.97,-4.59 -18.56,-13.35 -5.21,-9.59 -5.84,-33.79 1.67,-42.96 0.21,-0.21 2.09,-2.09 2.71,-2.71 6.05,-6.47 13.56,-10.43 23.78,-10.64 0.21,10.22 -2.71,12.31 2.71,19.81 2.29,3.13 8.97,9.18 12.72,10.22 6.47,1.88 21.48,2.29 28.16,-2.29l7.72 -6.88c3.13,-2.5 2.71,-0.63 3.96,-5.01 1.88,-6.26 -0.42,-13.56 -4.59,-17.94 -2.71,-2.71 -2.29,-3.34 -5.84,-5.42 -5.84,-3.55 -7.3,-1.88 -13.77,-4.59 -10.64,-4.17 -39,-1.67 -49.85,5.42 -11.47,7.51 -23.15,13.77 -26.49,28.78 -1.25,5.01 1.25,14.39 2.29,20.02 4.8,21.9 7.51,18.15 16.69,30.24 12.31,16.06 35.04,16.69 53.59,16.48 26.9,-0.42 16.06,0.83 40.25,-6.88 13.97,-4.38 24.82,-8.55 34.41,-19.19 0.21,-0.21 0.42,-0.42 0.42,-0.63 6.05,-6.47 13.77,-13.56 17.1,-21.69 1.25,-3.34 2.71,-16.06 2.92,-20.02 0.63,-11.47 -3.55,-23.15 -10.01,-32.33 -1.67,-2.5 0.42,0.83 -1.04,-1.25 -6.47,-9.39 -13.77,-16.69 -23.78,-22.73 -14.6,-8.97 -26.07,-10.22 -32.95,-13.14l-13.77 -3.75c-2.71,-1.04 -1.88,0 -2.92,-2.5 -0.42,-3.75 3.34,-5.01 5.21,-5.84l17.1 -11.68c10.85,-6.67 6.26,-4.59 12.1,-8.97 2.29,-1.67 3.34,-1.46 6.26,-3.75 4.59,-3.75 8.97,-6.47 11.26,1.25 1.67,5.42 3.75,5.01 6.26,8.97l3.55 5.42c3.55,4.38 7.09,8.34 11.68,11.47 7.93,5.42 2.92,6.26 20.02,14.18 7.51,3.55 10.43,3.75 16.89,6.05 3.34,1.25 3.96,2.71 8.55,3.55 3.13,0.63 6.47,0.83 9.8,1.25 15.43,1.88 26.49,2.71 42.55,-0.42 6.26,-1.25 15.23,-1.67 19.4,-4.59 1.67,-1.25 -1.67,0 2.92,-2.09 13.56,-6.26 21.07,-9.8 32.33,-20.02 2.09,-1.88 3.34,-3.34 5.63,-5.42 9.39,-8.76 5.42,-13.35 10.64,-24.4 4.59,-9.18 -0.21,-30.45 -6.05,-37.75 -1.88,-2.5 -3.96,-3.13 -5.84,-5.01 -3.96,-4.38 1.25,0 -2.09,-2.92l-27.11 -13.14c-4.17,-0.83 -7.3,-0.42 -11.26,-1.04 -11.68,-1.88 -29.2,-8.76 -47.97,-1.88 -16.48,6.05 -11.26,3.96 -22.53,13.14 -15.02,12.31 -8.97,6.47 -13.77,20.44 -0.83,2.5 -2.71,6.47 -2.5,9.18 0.42,6.05 7.72,18.35 11.68,22.53 6.67,7.09 27.53,8.34 37.75,2.71 7.72,-4.38 7.09,-7.51 8.13,-15.02 0.83,-5.63 3.13,-6.26 -3.34,-16.27 -2.71,-4.17 -11.26,-6.26 -16.48,-6.67 -7.72,-0.63 -13.56,1.25 -22.11,1.46 0.21,-6.47 5.63,-10.01 9.8,-13.97 3.55,-3.34 10.85,-5.01 16.27,-6.47 3.34,-0.83 5.84,-2.29 9.39,-2.92 7.51,-1.46 25.44,-1.04 31.08,0.42 17.1,4.38 21.27,3.96 31.49,15.85 2.92,3.34 9.18,10.22 10.01,14.39 1.46,5.84 0.21,21.69 0,21.48 0,-0.21 -0.21,0.63 -0.42,0.83 -4.17,3.96 -6.88,-5.63 -11.68,-9.8 -4.59,-3.96 -10.01,-6.67 -17.52,-7.93 -7.3,-1.25 -16.27,-0.83 -22.11,1.46 -6.05,2.29 -8.55,10.01 -8.76,16.69 9.18,-0.42 9.8,-3.96 21.48,-1.46 6.05,1.46 9.59,5.63 14.6,8.55 0.42,9.18 0.83,8.13 -2.5,15.02 -3.75,7.72 -9.39,13.14 -16.06,18.35 -10.85,8.13 -29.82,7.72 -43.8,7.93l-27.32 -3.34 -22.73 -11.26c-6.67,-3.13 -3.96,-2.92 -8.76,-7.72 -1.25,-1.46 -3.96,-3.34 -4.8,-4.17l-2.09 -2.29c-2.29,-2.92 -3.34,-3.34 -5.21,-7.09 -2.29,-5.01 -7.51,-13.35 -7.72,-17.94 -0.63,-8.13 6.88,-13.35 12.72,-17.1 1.25,-0.83 0.63,-0.42 1.88,-1.46l39 -34.41c3.55,-2.29 4.59,-6.05 8.13,-9.18l3.13 -2.5c3.96,-2.92 5.84,-4.38 7.93,-8.55 2.29,-4.59 18.98,-22.73 23.36,-27.32 5.21,-5.42 10.01,-12.72 15.43,-17.73 3.13,-2.92 4.38,-7.72 6.47,-11.05 1.67,-2.5 27.95,-16.89 31.49,-18.35 -2.5,7.3 -13.35,11.26 -14.81,21.48 -1.25,8.55 4.8,19.81 9.59,23.36l14.39 9.8c2.5,1.88 1.88,2.09 4.8,3.96l21.69 8.97c5.84,0 1.25,0.21 3.13,-1.04 -1.25,-4.17 -6.67,-5.01 -10.01,-8.76 -10.22,-12.1 -19.81,-19.19 -15.85,-39 1.67,-8.13 6.05,-20.44 10.85,-25.44 2.09,-2.29 6.67,-6.88 9.59,-9.18l22.32 -12.31c9.59,-6.26 10.01,2.29 34.83,-19.81 2.29,-2.09 8.34,-5.63 11.26,-7.72 7.09,-5.01 24.19,-25.44 27.32,-26.9 -4.17,13.97 -33.37,39.21 -45.26,52.97 -2.29,2.71 -4.8,3.55 -6.47,5.84 -2.5,3.55 -0.83,4.59 -3.34,8.76 -3.55,5.84 -7.93,4.38 -8.76,15.43 -1.04,15.02 1.67,22.53 8.97,31.7 1.25,2.5 2.92,5.01 3.96,6.67 2.09,2.92 6.26,2.29 8.97,2.29 0,-0.83 -1.25,-3.34 -0.21,-5.63 2.09,-5.01 1.25,-8.13 6.88,-10.22 2.71,8.34 -0.42,4.17 4.38,13.14 2.29,4.17 1.25,5.01 7.09,10.64 5.84,5.21 7.51,4.59 11.05,6.47 4.38,2.29 2.09,3.55 11.26,4.8 11.05,1.46 5.21,2.5 11.89,3.96 14.81,3.13 30.03,5.42 45.05,3.34 -9.18,-7.51 -8.76,-3.96 -20.02,-12.51l-3.34 -2.09c-1.88,-1.04 -3.13,-1.88 -4.8,-2.92 -4.38,-2.71 -4.8,-2.5 -7.51,-6.67 -7.09,-10.43 -8.97,-23.36 -11.68,-34 -0.83,-3.75 -2.5,-7.51 -3.13,-11.47l5.01 -39.21c1.67,-7.93 9.59,-22.32 11.89,-31.7 6.67,-9.59 7.09,-16.48 12.51,-25.86l4.17 -33.16c0.63,-3.55 1.46,-7.72 1.46,-11.26 0,0 -3.96,-22.32 -4.17,-23.36l-3.34 -7.72c-1.25,-3.96 -2.5,-5.84 -3.96,-9.39 -1.46,-3.75 -2.09,-7.3 -3.75,-10.64 -1.67,-3.55 -3.34,-5.01 -4.59,-8.76l-3.96 -9.18c-1.67,-3.13 -1.25,-6.88 -2.71,-10.85l-10.22 -17.52c-1.67,-3.96 -1.88,-6.26 -3.55,-9.8 -1.67,-3.13 -2.92,-4.59 -4.17,-8.34 -1.25,-2.71 -1.04,-2.29 -2.29,-4.17 -5.84,-7.72 -3.96,-4.59 -8.55,-6.26 -0.42,3.55 -0.83,3.96 0.83,6.67 0.83,4.17 2.5,7.3 5.84,9.59l6.05 18.56c2.29,7.09 4.17,12.93 5.84,21.07 4.8,22.32 6.47,47.55 -3.75,68.19 0,0.21 -0.21,0.42 -0.42,0.63 0,0.21 -0.21,0.42 -0.42,0.63 -4.38,8.76 -9.59,19.4 -18.56,23.78 -4.17,2.09 0.21,-1.88 -3.34,1.67 -2.92,2.92 -1.67,4.59 -6.67,6.67 -4.59,1.88 -4.8,0.63 -9.59,3.75 -5.21,3.55 -2.5,3.13 -10.01,4.59 -9.18,1.67 -16.69,4.17 -22.73,4.17 -16.06,0 -20.44,2.5 -13.77,-15.64 1.46,-3.75 2.5,-5.63 3.96,-9.18l9.18 -30.45c2.92,-11.26 8.55,-7.72 23.36,-16.48 13.35,-7.93 18.15,-16.06 21.9,-17.73 0.83,-2.71 3.13,-6.88 2.29,-10.85l-7.09 5.84c-3.13,2.71 -10.85,5.63 -15.02,7.3 -7.3,3.13 -6.26,3.96 -17.52,3.34 -0.83,-8.97 1.67,-12.1 2.92,-19.61l2.29 -21.9c9.18,-44.63 1.04,-89.88 -1.46,-133.05 -0.21,-2.09 0,-0.63 0,-2.29l1.67 -1.88c6.47,-1.25 23.78,7.09 29.41,10.01 1.88,1.04 9.18,7.51 9.39,0.63l-2.09 -4.8c-0.63,-1.04 -0.83,-1.25 -1.88,-2.71 -3.34,-4.38 -1.46,-2.92 -6.67,-5.63 -6.88,-3.55 -6.67,-6.26 -12.93,-10.22 -3.96,-2.5 -4.17,-1.46 -7.93,-2.92 -3.55,-1.46 -2.71,-2.5 -7.09,-3.96 -3.13,-1.04 -7.3,-0.83 -8.55,-2.29l-8.97 -33.58c-1.04,-3.55 -1.25,-5.21 -2.09,-9.18 -1.88,-7.93 -3.13,-2.09 -5.84,-14.18 -2.09,-8.76 0.63,-9.59 7.51,-10.85 3.96,-0.83 5.21,-0.83 9.18,-0.83 22.11,-0.21 13.35,-0.63 32.74,4.38 5.21,1.25 14.6,6.05 18.77,9.8 2.29,2.09 1.46,1.88 4.8,4.17 6.47,4.17 4.59,5.63 9.39,9.18 6.26,4.59 2.92,5.01 6.88,9.8 5.01,6.05 8.13,13.56 10.01,21.07 1.25,5.01 0.42,4.8 0.63,7.93 0.42,7.72 1.46,-2.09 2.09,7.51 0.21,3.13 -0.83,4.38 -1.25,6.67l-6.88 28.99c-2.71,11.26 -4.8,17.31 -9.59,27.53 -5.21,10.85 -5.01,13.14 -7.3,18.35l-1.04 6.05c1.67,1.46 -2.29,1.25 2.5,1.25l1.88 -1.88c1.04,-3.96 2.71,-6.05 4.8,-8.76 2.5,-2.92 6.05,-5.63 7.3,-9.18 1.04,-2.92 0.42,-3.13 2.09,-4.8l3.13 -5.21c2.09,-6.88 0.63,-2.09 4.59,-7.51 5.42,-7.72 6.26,-17.52 11.26,-24.82 8.13,-11.89 3.75,-8.34 7.09,-17.1l6.26 -17.94c1.88,-5.21 1.88,-2.5 2.71,-9.18 1.46,-11.05 3.55,-21.9 3.13,-32.54 -1.46,-34 -10.01,-41.09 -11.89,-49.64 -1.25,-5.63 0,-5.01 -2.29,-10.22 -2.09,-5.21 -5.01,-12.51 -5.84,-18.15 -1.25,-9.18 -2.5,-36.08 0.83,-44.42 2.29,-6.05 4.59,-10.64 6.26,-17.73 1.88,-7.09 -0.63,-12.93 7.3,-12.72 0.21,-7.72 13.14,-20.65 18.56,-25.24l1.25 -1.04c2.09,-2.09 0.21,-0.83 2.29,-2.29 2.71,-2.09 0.63,-0.42 3.96,-1.67 1.25,-0.42 2.29,-1.04 3.13,-1.25 5.42,-2.5 12.72,0.21 13.77,-6.67 -7.51,-2.09 -22.53,-1.04 -30.87,1.25 -0.21,0 -0.42,0.21 -0.83,0.21 -10.64,2.92 -20.65,3.55 -29.82,8.34 -6.26,3.13 -7.3,3.13 -14.18,5.84 -6.67,2.5 -1.25,0.63 -5.84,4.38 -2.29,1.88 -3.34,1.67 -5.63,3.34 -14.39,9.39 -1.88,19.61 -15.02,20.23 -1.67,-3.55 -2.5,-8.76 -3.34,-11.05l-5.63 0.21c-3.13,4.17 -4.8,8.13 -7.72,13.14 -3.96,6.67 -12.31,17.94 -7.93,30.24l5.42 14.81 9.8 11.26c3.13,3.34 5.42,7.09 8.97,10.85 4.17,4.17 6.05,2.92 10.22,9.59 2.5,3.96 8.13,7.09 6.88,11.89 -5.84,1.04 -12.31,-10.64 -16.27,-14.39 -1.67,-1.46 -7.93,-5.21 -10.01,-6.67 -3.96,-2.71 -21.07,-13.35 -25.03,-14.6 -9.18,-2.5 -3.13,-0.42 -11.26,-5.21l-10.22 -5.21c-15.02,-8.55 -14.81,-10.43 -17.73,-20.23 -3.34,-11.05 -4.38,-13.14 -3.34,-26.7 2.5,-30.66 24.82,-28.16 27.53,-39.84 -6.88,0.21 -15.02,5.21 -20.44,7.93 -2.5,1.04 -6.88,2.71 -9.8,5.42 -0.21,0.21 -0.42,0.42 -0.42,0.42l-6.05 4.17c-5.84,4.59 -14.39,12.1 -17.1,19.61 -2.92,8.13 1.25,14.6 2.29,22.94 -5.42,0.21 -15.85,-4.59 -20.44,-7.09 -5.21,-2.71 -1.04,-1.04 -4.59,-4.38 -3.13,-2.92 -8.97,-3.34 -12.31,-6.47 -4.8,-4.17 -7.93,-1.46 -10.64,-6.88 -2.71,-4.8 -4.17,-6.47 -8.76,-10.22 -3.96,-3.34 -3.34,-6.26 -7.51,-10.22 -1.04,-1.04 -2.29,-1.88 -2.92,-2.5 -0.21,-0.21 -0.42,-0.42 -0.63,-0.63l-12.1 -15.43c-9.8,-10.85 -12.51,-10.85 -18.98,-18.15 0,0 -0.21,-0.42 -0.42,-0.42l-2.92 -3.34c-10.01,-11.47 -10.64,-9.59 -19.4,-17.31l-10.85 -13.56c-4.8,-12.72 3.96,-31.49 9.39,-43.38 2.09,-4.38 5.21,-6.47 8.55,-9.18 3.96,-3.34 4.38,-4.59 7.3,-5.84l37.12 -18.77c19.19,-4.59 12.1,-2.92 32.12,-3.96 6.67,-0.21 10.64,1.67 16.69,1.88 12.51,0.63 28.16,13.97 31.7,22.32 1.88,4.38 3.13,11.26 1.46,16.06 -1.04,3.13 -5.63,7.93 -8.13,9.59 -11.47,7.93 -16.48,1.04 -29.41,2.09 1.25,8.97 1.67,12.31 9.59,14.6 6.88,1.88 13.97,1.67 21.48,0.21l17.1 -7.51c5.21,-3.96 5.63,-11.05 12.31,-12.1 1.88,4.8 3.13,10.64 0.83,16.06 -3.55,8.55 -4.38,18.35 -12.31,25.03l-3.13 3.55c-4.59,5.42 -14.39,7.51 -21.48,9.8 -21.69,6.88 -54.63,7.3 -70.49,-11.47l-4.17 -9.18c0,-0.42 -0.21,-0.42 -0.42,-0.63 4.59,1.04 2.29,0.63 6.88,0.63 7.72,0 8.55,2.5 18.15,0.21l2.71 -0.42c3.96,-0.83 2.71,-1.04 5.42,-2.92 2.92,-1.88 2.92,-1.04 5.63,-3.34 5.42,-3.96 10.43,-16.27 2.92,-23.15 -10.85,-9.8 -22.53,-14.81 -38.17,-8.76 -16.89,6.67 -23.36,34 -11.68,46.93 4.8,5.21 2.09,6.47 7.72,10.01 4.59,3.13 4.8,5.21 9.18,7.3 23.15,11.05 56.93,10.85 79.87,-0.83 2.29,-1.25 -0.21,-0.21 2.92,-1.67l10.85 -5.84c3.55,-2.5 9.39,-7.09 11.68,-10.43l2.09 -4.59c0.21,-0.21 0.21,-0.63 0.42,-0.63 1.25,-2.09 3.13,-2.29 4.8,-5.21 6.88,-11.68 5.01,-33.58 -0.83,-42.96 -1.46,-2.29 -1.67,-2.29 -3.55,-5.42l-3.96 -7.3c-3.34,-4.38 -6.47,-6.26 -10.64,-10.22 -2.5,-2.29 -2.09,-2.29 -4.8,-3.96 -3.75,-2.5 -1.88,-1.25 -4.59,-4.17l-10.43 -6.05c-2.29,-1.25 -3.34,-1.67 -6.05,-2.09 -2.71,-0.42 0.21,0.21 -2.71,-0.42 -4.59,-0.83 -2.92,-1.04 -3.96,-3.13 -10.43,0.42 -14.18,-0.21 -24.82,-1.67 -21.69,-2.5 -30.87,2.09 -49.85,7.3 -14.39,3.96 -25.44,11.47 -37.12,19.81 -6.67,4.8 -12.1,12.1 -16.89,18.56 -1.04,1.46 -1.46,1.88 -2.29,4.17l-4.8 13.97c-2.09,4.8 -2.09,11.26 -7.72,13.14 -5.63,-2.71 -4.59,-4.17 -8.76,-6.67 -3.96,-2.29 -5.84,-2.92 -8.97,-6.47 -1.88,-2.29 -5.63,-4.59 -8.55,-6.88l-6.47 -5.84c-1.67,-1.46 -0.21,0.21 -3.34,-2.09l-31.08 -19.61 -0.42 -6.67 31.08 -8.34c6.26,-1.88 8.13,-3.55 12.72,-7.3 7.72,-6.05 15.43,-10.01 21.9,-17.1l11.89 -16.89c1.04,-2.09 1.67,-3.96 2.71,-6.05 4.38,-9.18 6.47,-21.48 2.92,-31.91l-2.09 -5.63c-1.04,-2.5 -1.25,-3.75 -2.29,-6.67 -6.26,-14.6 -7.72,-9.59 -11.68,-17.31 -1.46,-2.92 -1.04,-2.92 -3.75,-5.01 -4.38,-3.55 -11.68,-5.84 -16.48,-8.97l-8.97 -4.17c-9.59,-3.75 -19.19,-4.8 -30.87,-6.47 -22.11,-2.92 -29.2,1.67 -42.96,4.38 -1.67,0.42 -5.21,0.83 -7.51,1.46 -4.8,1.46 -8.34,3.96 -12.1,6.88 -15.43,11.89 -16.48,16.27 -25.03,32.33 -4.59,8.55 -3.55,24.19 2.29,31.28 19.61,23.78 14.18,11.89 32.74,23.36 10.01,6.05 44.84,3.55 55.05,-6.05l6.47 -10.01c2.29,-6.88 -1.88,-16.27 -7.3,-19.81 -6.67,-4.59 -5.21,-3.13 -7.3,-12.72 -2.71,-12.31 1.04,-19.4 13.77,-22.32 4.38,-1.04 1.67,-1.46 6.88,-1.46 7.09,0 15.23,0.42 22.53,2.29 6.67,1.88 7.72,2.29 12.31,6.47 8.34,7.3 12.93,8.34 16.06,22.73 1.46,7.09 1.67,9.18 -0.83,16.06 -0.83,2.5 -0.42,-0.21 -1.25,4.17 -0.21,1.25 -0.21,1.88 -0.42,2.92 -1.46,4.8 -7.72,12.72 -10.85,16.48 -2.5,2.92 -5.42,8.13 -8.55,10.22l-10.43 8.34c-7.51,4.17 -16.06,7.3 -23.99,10.64 -4.38,1.88 0.63,-0.42 -2.92,1.67 -1.88,1.04 -1.04,1.04 -3.55,1.46l-5.84 1.04c-5.63,0.83 -11.68,2.29 -19.81,2.09 -7.51,-0.42 -1.88,-0.42 -7.09,-2.09l-22.32 -14.6c-13.35,-5.84 -28.16,-12.93 -38.58,-21.07 -0.83,-0.63 -1.67,-1.04 -2.5,-1.67 -7.09,-4.17 -17.94,-7.3 -24.61,-10.64l-26.49 -11.89c-1.46,-0.63 -2.5,-0.83 -3.96,-1.46 -0.42,-0.21 -1.25,-0.63 -1.46,-0.63l-20.65 -8.97c-6.05,-2.71 -7.3,-4.17 -14.18,-4.8l-2.5 -4.17c-1.25,-1.25 -3.13,-2.09 -3.34,-2.09l-8.55 -10.22c-6.88,-7.09 -3.55,-3.96 -2.92,-6.05 2.09,-7.51 -2.5,2.5 0.21,-2.5 18.98,5.42 31.49,5.84 48.8,-2.92 3.96,-2.09 5.84,-3.96 9.59,-6.05 7.09,-3.75 3.55,-3.55 7.72,-6.88 7.3,-5.84 6.26,-2.71 13.97,-14.6 -23.15,5.63 -33.79,15.85 -60.27,15.64 -18.77,-0.21 -44.22,-7.93 -54.63,-18.98 -4.17,-4.38 -4.17,-5.01 -9.59,-9.39 -6.26,-5.21 -6.05,-13.56 -28.36,-27.95 -8.34,-5.42 -15.23,-11.89 -22.11,-15.43 -8.97,-4.38 -15.02,-8.97 -24.19,-11.68 0.63,-1.67 -0.42,-3.34 4.17,-3.34 2.29,0 33.16,16.48 33.58,16.69 4.17,3.13 4.59,3.55 10.22,5.21 7.51,2.29 0.63,1.25 7.3,4.59 4.59,2.29 5.42,1.88 9.59,4.8 5.84,3.96 12.31,4.8 18.56,8.97 2.5,1.67 17.94,6.05 22.11,5.63 5.21,-0.42 8.34,-0.42 12.72,-0.42 8.55,0.21 40.46,-3.34 42.55,-14.81 -4.17,-2.5 -12.72,-1.46 -15.43,-6.26 4.17,-3.13 22.94,-2.71 39.42,-15.23l10.01 -12.93c4.59,-8.76 1.04,-2.09 4.8,-6.47 2.71,-2.92 2.71,-8.97 3.75,-13.77 1.67,-6.67 11.05,-22.11 1.25,-25.03 -0.21,0.21 -0.21,0.63 -0.42,0.83l-1.04 2.29c-5.84,12.72 -8.34,12.72 -18.98,20.86 -5.42,4.17 -14.6,6.05 -20.65,9.59 -2.71,1.67 -5.42,1.25 -9.39,1.88 -6.67,1.04 -7.51,2.71 -13.14,3.55 -39.42,6.47 -49.01,8.76 -94.05,3.13 -17.73,-2.29 -27.53,-6.47 -41.92,-9.39l-16.69 -2.29c-0.21,0 -0.42,0 -0.63,-0.21 -4.38,-1.25 -1.88,-1.88 -7.09,-2.29 -28.16,-2.92 -81.12,-4.59 -108.65,2.29l-7.93 1.67c-6.05,1.46 -8.76,0.42 -14.6,3.34 -6.67,3.13 -13.56,3.96 -20.86,5.63l-24.61 5.01c-4.59,1.25 -8.13,2.29 -13.14,3.75 -7.3,2.09 -29.41,5.42 -34.41,11.68 9.8,-0.42 27.11,-5.01 35.46,-6.67 34.2,-7.3 80.29,-10.85 114.08,-4.17 7.09,1.46 23.78,5.42 29.2,8.55 1.46,0.83 2.71,1.88 5.21,2.92l6.67 3.55c5.42,4.8 10.22,6.47 15.43,10.85 0.21,0.21 0.83,0.63 1.04,0.83l11.68 16.48c4.38,12.72 2.29,22.11 -3.55,30.87 -7.72,0.21 -47.97,-7.51 -55.89,-9.8 -10.43,-3.13 -16.89,1.04 -24.82,-3.75 -1.46,-1.04 -1.88,-1.04 -3.13,-2.09l-3.55 -5.42 -29.62 -19.81c-1.25,-0.42 -1.67,-0.63 -3.13,-0.63l-2.5 0.83c1.88,4.8 2.5,6.05 5.84,9.59 2.92,2.92 4.17,6.05 7.51,7.93l-1.25 3.55c-1.25,4.59 2.5,-2.09 -0.63,3.13l-115.33 -7.51c-20.02,-1.88 -45.05,3.34 -62.77,2.09 -6.88,-0.42 -6.47,-0.42 -14.39,0.42l-13.35 0.21c-5.21,-0.21 -8.97,2.5 -14.18,2.29 -3.55,0 -3.13,-0.83 -6.47,-0.63 -2.71,0.21 -6.26,2.09 -9.39,-1.04l-1.04 -1.25c-0.21,-0.21 -0.63,-1.04 -1.04,-1.25 1.04,-1.67 1.46,-1.88 2.09,-3.13 0,-0.21 0.21,-0.42 0.21,-0.63l3.96 -6.47c4.38,-3.75 5.84,-3.34 8.76,-8.97 -8.97,0 -10.01,3.96 -18.35,6.26 -13.35,3.96 -9.8,6.05 -17.1,13.97 -0.21,0.21 -0.83,0.83 -1.04,1.04 -1.25,1.25 -5.21,4.38 -6.26,5.01 -3.34,1.67 -16.69,1.67 -21.07,2.29 -2.09,0.21 0.42,-0.21 -2.09,0.42l-23.99 3.96c-8.34,2.71 -17.1,1.67 -25.24,4.17 -7.72,2.29 -16.89,2.92 -25.86,3.34 -7.09,-10.85 -5.01,-18.15 -1.25,-30.66 2.09,-7.3 6.26,-8.97 11.05,-13.97l4.8 -4.59c1.46,-0.83 11.05,-7.09 11.89,-7.93l3.55 -4.17c8.13,-6.05 26.28,-10.85 35.87,-12.72l6.26 -1.04c8.55,-0.63 -0.83,-0.42 7.09,-1.67 4.38,-0.63 13.97,-0.42 18.77,-0.42 12.72,-0.21 25.44,-0.63 37.54,0.42 5.63,0.42 9.59,2.71 16.69,2.92 14.18,0.42 26.9,4.8 40.46,6.67 3.75,0.83 6.47,1.25 8.34,1.67 0,1.04 0.21,0 2.29,0.83l17.1 2.92c-3.34,-3.13 -15.02,-6.88 -19.19,-7.72l0 0c-10.85,-3.13 -27.11,-8.76 -43.8,-11.89 -3.75,-0.63 -7.93,-0.63 -11.47,-1.67 -3.13,-1.04 -5.21,-2.71 -9.18,-3.96 -22.11,-7.09 -42.76,-8.76 -66.73,-10.85l-60.47 1.04c-5.42,1.25 -6.05,1.04 -12.31,1.25 -15.43,0.83 -31.49,5.42 -45.26,10.64l-19.4 3.13c-5.63,1.25 -7.3,1.25 -11.26,1.67 -5.21,0.42 -4.59,1.88 -10.64,1.25 -7.93,-1.04 -17.52,-0.63 -26.07,-0.21 -4.17,0.21 -5.21,1.46 -8.55,1.04 -4.38,-0.63 -0.42,-0.21 -2.29,-0.83 -3.96,-1.25 -6.05,0.63 -10.64,-0.21 -4.38,-0.83 0.21,-0.21 -2.29,-0.83 -3.75,-1.04 -3.75,0.63 -7.72,-0.21 -3.55,-0.63 -0.42,-1.25 -4.8,-1.25 -2.71,0 -1.67,0.63 -5.63,1.04 -2.71,-0.42 -0.63,-1.67 -4.59,-3.13 -5.42,-2.09 -11.26,-2.5 -17.1,-3.75 -7.93,-1.67 -4.59,-1.04 -10.01,-4.17 -9.59,-5.63 -8.97,-1.46 -27.11,-14.81 -6.26,-4.59 -5.84,-11.68 -10.64,-17.1 -4.17,2.09 -3.55,0 -3.75,3.96 -0.42,10.43 4.17,26.49 9.59,35.04 0.21,0.21 0.42,0.42 0.42,0.63 0,0.21 0.21,0.42 0.42,0.63l0.83 3.96c1.67,3.55 5.01,5.63 6.67,9.39 2.09,4.59 4.17,4.17 8.76,7.09 16.27,10.01 7.09,6.47 31.49,10.43 0.21,0 7.72,-0.42 0.42,3.75 -4.8,1.67 -13.56,2.5 -17.73,4.8 2.29,2.29 2.71,1.88 4.8,3.75 11.68,6.67 32.95,13.97 58.6,7.93 13.35,-3.13 23.78,-5.63 36.5,-12.72 2.92,-1.67 6.67,-3.55 8.97,-5.42 7.09,-5.42 18.35,-12.1 26.28,-15.85 6.05,-2.92 14.81,-5.01 21.69,-7.51 6.05,-2.09 15.64,-7.09 21.27,-4.17 -2.09,5.63 -20.65,10.64 -26.49,13.14 -14.6,6.05 -12.72,7.72 -19.19,10.85 -2.5,1.25 -4.38,1.46 -6.47,3.55 -0.21,0.21 -0.42,0.42 -0.42,0.63l-5.01 3.75c-2.71,1.04 -4.8,1.25 -6.88,3.13l-14.18 15.64c-5.63,5.42 -10.22,8.13 -15.43,14.39 -17.73,21.69 -67.36,28.78 -93.01,19.4 -3.75,-1.46 -6.47,-4.17 -10.22,-5.21 -6.88,-2.09 -15.85,-10.01 -20.44,-10.85 1.46,5.84 9.8,13.77 13.97,17.73l2.71 2.92c4.38,6.05 12.31,8.55 18.56,11.89 11.05,5.84 11.26,4.38 26.7,5.42 6.88,0.42 6.47,0.63 12.1,-1.88 1.46,-0.63 8.97,-2.92 9.8,-3.13 -0.83,7.3 -3.96,7.72 -8.34,11.05 -5.84,4.59 -0.21,5.01 -9.59,10.43 -6.88,3.75 -3.55,5.42 -12.1,7.72l-26.07 10.85c-3.13,1.67 -4.8,1.25 -7.51,2.5 -6.88,3.34 -3.13,3.34 -12.72,4.38 -2.92,0.42 -4.17,1.25 -7.09,2.5 -4.8,2.09 -7.72,4.17 -12.1,6.67 -8.13,5.01 -15.43,7.51 -22.94,11.68 -4.17,2.29 -8.76,5.01 -12.51,7.51 -1.25,0.83 -2.09,1.67 -3.34,2.29l-33.16 16.89c-15.43,8.34 -8.55,13.35 -33.79,10.64 -7.93,-0.83 -12.72,-3.13 -21.48,-5.63 -0.21,0 -0.42,-0.21 -0.63,-0.21 -0.21,0 -0.42,-0.21 -0.63,-0.21 -0.21,0 -0.42,-0.21 -0.63,-0.21l-3.96 -1.25c-3.34,-2.29 -0.21,-2.29 -5.42,-4.59l-12.1 -6.47c-5.42,-3.55 -6.47,-5.21 -10.64,-9.18l-13.35 -15.43c-2.29,-3.96 -1.88,-4.17 -3.13,-8.13 0,-0.21 -0.21,-0.42 -0.21,-0.83l-0.63 -18.35c-0.21,-19.4 9.18,-21.48 13.35,-25.65 3.34,-3.55 5.84,-3.55 9.59,-6.05 7.93,-5.42 12.72,-4.59 19.81,-6.88 1.88,-0.63 0.42,-0.63 3.75,-1.04 3.55,-0.42 6.88,0.42 8.97,1.04 9.39,2.29 12.93,0.21 18.77,10.01 2.5,4.17 2.09,8.34 2.5,12.93l0.21 1.46c10.43,2.92 8.97,-1.25 16.27,-2.09 -2.92,-21.48 7.51,-21.9 -24.4,-32.54 -5.21,-1.67 -10.85,-1.25 -12.72,-6.67 10.85,-2.71 38.58,-0.83 50.06,0.63 3.96,0.42 15.85,6.67 18.98,8.55l6.88 2.92c5.63,2.92 7.09,10.22 10.01,14.39 7.09,9.8 3.96,27.95 -1.04,37.96 -6.88,13.97 -7.51,9.18 -13.35,12.1 -1.88,1.04 -5.01,3.34 -8.34,5.01 -1.67,0.83 -2.92,1.67 -5.01,1.88 -5.84,0.21 -4.17,-0.21 -4.38,-2.71l0 -1.88c2.29,-8.97 5.63,-8.97 -3.96,-21.69 -4.59,-6.26 -15.02,-8.76 -26.49,-7.72 -8.13,0.63 -9.59,3.75 -15.02,7.09 -5.42,3.13 -11.05,13.35 -6.67,20.23l5.63 6.67c2.5,2.71 6.05,4.17 9.39,6.05 11.68,7.09 35.25,3.96 46.09,1.25 12.1,-3.13 15.02,-5.63 23.15,-13.56l3.75 -2.71c1.67,-1.25 2.71,-2.09 4.17,-3.75 1.04,-1.25 1.25,-1.46 1.88,-2.5 2.5,-4.17 -0.83,-0.83 3.13,-4.59 7.09,-6.47 2.92,-31.7 -4.38,-40.46 -0.63,-0.63 -2.09,-2.5 -2.92,-3.75l-8.76 -10.22c-3.34,-2.71 -6.88,-6.88 -11.26,-8.34 -11.26,-3.55 -2.92,-3.75 -13.77,-6.47 -17.52,-4.38 -34.62,-5.63 -53.8,-2.5l-13.14 2.5c-7.51,1.25 -15.85,7.3 -22.73,10.85l-10.22 7.51c-7.93,5.21 -13.56,12.51 -17.73,21.07 -1.04,2.09 -1.25,2.71 -2.92,4.8 -4.38,5.84 -7.09,23.15 -5.01,31.28 0.83,3.13 1.67,3.55 2.29,5.42 0.83,2.29 0.42,3.34 1.46,6.47l11.68 18.35c17.1,14.18 20.65,17.94 41.09,26.9l16.48 4.8c5.84,1.25 6.67,0.42 9.59,4.59 -2.29,5.42 -0.83,2.09 -6.05,4.8 -3.13,1.67 -2.5,2.29 -5.42,4.59 -2.29,1.88 -3.75,1.88 -6.26,3.96 -2.5,2.09 -2.29,2.92 -4.8,5.01l-24.19 16.89c-4.17,-2.71 -7.3,-7.51 -9.39,-12.93 -1.88,-4.59 -0.42,-3.34 -2.92,-5.84l-2.5 -1.88c-0.21,-0.21 -0.42,-0.42 -0.63,-0.42 -1.88,-1.46 -1.04,-0.42 -3.13,-2.5 -3.13,-3.55 -0.83,-2.92 -4.17,-6.88 -4.8,-5.63 -12.31,-11.47 -19.4,-13.77l-11.68 -4.8c-1.46,-0.83 -2.09,-1.04 -3.96,-1.46 -6.05,-1.67 -3.96,-1.67 -8.13,-2.92 -15.23,-4.59 -30.66,-5.84 -47.97,-4.17 -30.03,3.13 -34.2,10.64 -50.06,15.02 -8.34,2.5 -5.63,7.09 -11.47,10.43 -3.34,2.09 -2.5,-1.25 -4.8,2.92 -0.21,0.21 -0.42,0.83 -0.42,1.04l-0.63 1.46c-0.83,1.67 -0.42,0.63 -1.67,2.5 -11.47,17.31 -14.6,28.99 -9.8,50.89 1.46,7.09 5.21,9.59 8.97,13.14 12.93,12.31 23.57,19.61 41.3,22.53 6.67,1.04 13.14,1.88 19.19,2.71 6.67,1.04 23.36,-1.67 29.62,-3.34l12.72 -4.17c4.8,-2.09 12.93,-7.93 16.27,-11.47l7.09 -12.72c3.55,-11.47 0.42,-21.9 -4.59,-31.08 -8.13,-14.81 -32.54,-12.72 -44.01,-4.8 -15.02,10.43 -6.26,20.86 -3.55,29.2 8.13,-1.25 1.67,-0.21 8.76,3.34 5.63,2.92 15.23,3.13 21.48,1.67 4.59,-1.04 6.05,-0.42 11.26,-0.83 -0.21,5.42 0.21,2.29 -1.25,4.8 -7.3,12.31 -9.39,6.26 -17.94,13.56 -2.09,1.88 -5.01,3.34 -8.97,3.96 -17.31,3.55 -51.31,4.38 -65.69,-6.26l-7.09 -6.26c-7.09,-8.97 -11.68,-13.97 -13.77,-26.28 -1.67,-9.18 0,-16.06 3.55,-21.48 4.38,2.92 3.55,2.92 5.21,7.93 1.88,5.21 1.25,3.55 5.42,6.67 5.01,3.75 9.18,8.76 16.06,9.18 7.51,0.42 16.48,2.09 23.36,-0.42 7.72,-2.92 10.85,-6.47 10.85,-14.6 -5.21,0.21 -7.72,1.67 -13.14,2.71 -5.21,1.04 -13.35,-0.42 -18.35,-2.92 -3.34,-1.67 -7.09,-9.39 -7.51,-12.31 -0.83,-4.59 -0.21,-9.8 1.88,-13.35 0.21,-0.21 0.21,-0.42 0.42,-0.63 0.21,-0.21 0.21,-0.42 0.42,-0.63l1.88 -3.75c4.38,-8.13 14.39,-11.68 21.69,-16.06 12.31,-7.3 40.04,-6.05 53.38,-3.13 10.01,2.09 24.82,6.26 32.74,12.31 22.32,17.31 14.6,13.77 23.36,22.11 6.88,6.67 1.46,4.38 5.42,10.22 2.92,4.59 5.01,1.46 3.75,9.8 -1.46,9.39 -7.93,8.55 -12.93,14.6 -3.55,4.17 -3.55,4.38 -8.13,7.51 -4.8,3.34 -5.42,6.67 -16.48,13.56l-7.51 6.88c-4.17,5.42 -10.22,9.39 -13.97,14.81 -2.71,3.96 -5.01,4.17 -8.34,7.09 -2.92,2.5 -3.55,4.8 -6.67,7.72l-9.39 10.43c-2.29,2.29 -4.17,2.29 -7.51,2.29 -3.55,-24.82 -8.55,-13.35 -30.87,-18.77 -7.93,-1.88 -12.1,-3.13 -19.19,-6.05 -22.11,-9.18 -25.03,-14.6 -31.7,-17.94 0.83,4.38 0,1.04 1.04,3.75 0.83,2.09 0.83,1.88 1.04,2.09 0.63,1.46 0,-0.21 0.83,1.67 1.88,5.21 3.75,6.05 7.51,8.97 2.29,1.88 1.88,2.09 3.75,4.17 3.34,3.55 4.38,2.71 7.51,5.63 3.55,3.13 8.97,5.42 13.56,7.51 3.96,1.88 7.09,1.46 11.47,2.92 6.05,1.88 12.93,5.21 17.94,9.59 5.21,4.38 5.21,17.73 1.67,23.36l-14.39 16.69c-0.21,0.42 -1.46,1.67 -1.46,1.88 -1.46,2.29 -0.83,2.09 -2.09,4.59 -1.88,4.17 -3.34,5.21 -6.67,7.51 -3.96,2.92 -12.93,9.39 -18.35,8.97 0.21,-8.34 10.85,-12.1 11.47,-22.11l-1.67 -13.77c-1.04,-3.13 -7.51,-9.39 -10.22,-12.1 -3.75,-3.75 -2.09,-1.25 -5.01,-3.13l-1.67 -1.46c-10.22,-11.47 -16.69,-10.01 -29.82,-15.02 1.04,3.34 1.88,3.55 4.17,5.84 0.21,0.21 1.67,1.67 1.67,1.67 6.67,6.05 8.76,7.3 13.35,13.97 2.29,3.55 3.96,6.47 4.8,11.26 1.04,6.67 2.09,10.01 1.25,17.73 -0.83,8.97 -6.26,20.23 -12.72,25.65 -10.85,9.18 -21.07,17.31 -34,23.57 -5.01,2.5 -8.13,2.92 -13.14,5.84 -4.8,2.71 -9.18,3.75 -13.77,6.26 -8.34,4.38 -26.07,18.35 -32.74,24.82 -5.42,5.42 -13.14,18.56 -18.15,18.98 -0.42,-5.01 1.25,-5.84 3.75,-8.97 9.18,-11.89 17.73,-24.19 29.82,-34.41 7.09,-5.84 13.97,-12.1 19.4,-19.4 5.84,-7.72 12.31,-14.18 13.56,-25.03 1.04,-8.76 -0.21,-12.51 -2.92,-20.23 -0.63,-1.67 -1.25,-3.34 -2.09,-4.59 -1.25,-1.88 0.42,0.21 -1.46,-1.67 -0.42,-0.42 -0.42,-0.42 -1.67,-1.67 -1.67,-1.88 -4.17,-5.01 -5.21,-6.88 -8.34,0.83 -7.3,0.21 -9.59,6.47 -2.29,6.26 -1.88,2.29 -8.13,4.38 0.42,-5.84 1.04,-2.09 -0.21,-7.72 -1.88,-7.93 -4.8,-13.14 -11.47,-17.73 -23.15,-15.64 -7.93,-5.42 -22.73,-12.31 -5.21,-2.5 -30.24,-6.67 -38.38,-8.76l-6.05 -1.46c-5.21,-1.04 -9.8,-3.34 -13.77,0.83 5.84,3.55 13.35,3.34 18.98,7.51 8.13,6.26 13.77,13.97 20.86,21.27l2.09 2.29c4.38,5.21 8.34,16.48 9.59,22.94l4.59 26.49c1.04,4.8 0.42,7.93 -0.83,14.6 -1.46,7.3 -0.42,15.43 -2.09,22.32 -1.46,6.47 -9.39,23.78 -13.35,28.99 0,0 -0.21,0.42 -0.42,0.42 -11.47,15.43 -12.72,51.31 -10.22,69.65 0.63,5.01 1.04,21.27 1.88,23.15l3.75 9.59c3.13,12.72 10.43,19.4 12.31,26.7 0.63,2.09 0.63,3.55 1.04,5.63 0.21,1.04 0.21,1.67 0.63,2.71 1.88,5.63 3.13,5.84 3.55,12.72 4.17,1.25 2.29,-1.25 5.01,5.42l8.13 17.52 0.42 0.63 0 0c0.42,0.83 2.71,9.18 8.76,10.64 -0.21,-3.55 -1.04,-4.59 -1.88,-6.26l0.21 0c-4.17,-10.01 -9.8,-29.62 -10.85,-39.63 -0.83,-8.34 -2.5,-6.05 -3.34,-12.31l-2.71 -14.18c-0.83,-9.59 -0.83,-21.48 2.71,-30.03 1.88,-4.8 3.55,-5.21 4.17,-10.85 0.83,-7.93 4.8,-6.88 8.55,-12.72 2.71,-4.38 -0.83,-1.04 1.25,-4.17 1.04,-1.46 0.63,0.21 3.75,-2.71 5.21,-5.01 5.84,-9.18 11.68,-11.68 7.09,-3.13 5.42,-5.01 22.32,-11.26l17.94 -5.01c5.21,-0.83 -2.71,0.63 3.34,-1.67 10.22,-0.21 11.89,0.63 20.02,1.88 0,12.51 -5.63,19.81 -8.13,31.28 -0.63,2.92 -1.04,5.63 -2.09,7.93l-7.09 22.53c-1.88,6.26 -5.01,6.67 -10.64,9.39 -4.17,1.88 -10.43,4.38 -13.35,6.67l-4.8 5.01c-2.92,2.29 -2.71,0.83 -5.63,4.38 -2.29,2.71 -1.25,2.71 -4.59,5.42 -3.55,2.71 -3.55,0.63 -3.75,6.26 5.01,-0.21 15.64,-6.88 23.36,-8.97 1.67,-0.42 1.88,-0.42 3.55,-1.04 0.63,-0.21 1.67,-0.63 2.5,-1.04 4.38,-1.46 9.39,-1.04 7.93,5.21 -5.63,24.4 -10.85,99.89 -4.17,122.83 1.25,4.17 0.63,16.27 2.5,26.7 0.83,4.59 1.46,8.34 2.29,13.35 0.21,1.46 1.46,5.63 1.67,6.47 2.09,11.47 -5.84,6.88 -12.1,4.59 -7.72,-2.5 -14.81,-3.75 -21.48,-8.34 -3.55,-2.5 -6.47,-3.55 -10.43,-1.67 0.42,6.47 0.21,2.5 1.46,4.17l2.92 2.5c10.43,10.43 12.93,14.6 27.74,19.61 5.21,1.67 3.13,3.13 9.8,4.38 11.26,2.29 10.43,7.51 13.14,17.94 0.63,2.5 1.04,6.67 1.88,9.39 1.46,4.38 1.88,3.13 3.34,6.88 1.25,3.55 0.63,5.01 2.29,8.97 2.29,5.63 1.88,0.83 2.09,4.59 0.42,5.01 -0.83,2.5 1.88,6.88 10.85,16.27 -21.9,14.39 -29.82,12.93 -10.43,-1.88 -30.45,-5.84 -38.58,-12.93l-13.77 -12.72c-12.31,-11.68 -7.09,-11.05 -13.35,-18.98 -3.34,-4.38 -6.47,-16.89 -6.88,-22.53 -0.21,-4.38 0.63,1.88 0,-3.34 -1.04,-8.34 -2.29,-7.93 0.21,-18.98 1.88,-8.34 0,-12.93 3.55,-20.44l3.34 -9.8c3.34,-8.97 4.38,-19.19 9.8,-27.53 2.5,-3.96 4.8,-7.93 5.01,-13.56 -4.8,3.34 -7.09,8.13 -10.01,13.14l-15.85 32.54c-2.29,3.96 -2.5,5.84 -4.59,9.8 -6.88,12.72 -4.38,10.85 -8.55,20.02 -4.17,8.97 -5.63,10.43 -8.13,21.48l-3.13 18.77c-3.34,17.94 2.71,56.93 11.89,73.4l8.76 24.61c3.34,23.99 5.01,20.86 -1.46,47.14 -5.63,22.73 -4.59,21.48 -17.73,37.12 -1.04,1.25 -0.21,0.42 -1.46,1.88 -2.09,2.29 -4.59,4.8 -6.88,7.51l-16.06 12.93c-4.17,2.71 -5.84,2.29 -8.97,5.63 26.7,0.83 48.8,-5.63 70.49,-15.43 3.96,-1.88 12.1,-9.39 14.6,-12.72l0.83 -1.04c2.71,-4.17 0.63,-9.59 5.21,-11.47 4.38,-1.88 5.21,2.92 7.09,6.26l1.88 2.5c7.3,-0.21 8.34,-4.38 12.31,-8.76 1.25,-1.46 1.67,-1.25 2.92,-3.55 1.25,-2.5 1.88,-6.47 2.29,-7.72 3.96,-15.43 4.8,-17.31 -2.5,-31.49l-11.47 -15.02c-12.1,-18.77 -46.3,-38.79 -47.97,-61.31 2.92,1.88 13.56,17.1 18.35,21.9 6.88,6.88 12.31,12.31 20.44,18.35l48.18 28.99c3.96,2.92 8.13,5.21 12.51,7.3 8.97,3.96 16.48,14.18 19.4,23.78l0.42 1.88c4.17,21.27 -0.83,32.33 -14.18,47.76 -4.38,5.01 -7.09,2.5 -10.43,8.34 3.96,2.09 3.75,0.63 6.05,-0.42l31.91 -19.19c4.17,-1.88 6.05,-4.17 9.18,-7.93 2.29,-2.92 2.29,-7.3 3.13,-10.22 2.09,-8.76 0,-10.43 -4.38,-16.89 -1.67,-2.71 -1.46,-2.5 -1.67,-6.05 9.39,0.83 6.88,1.46 12.72,5.84 4.59,3.34 11.26,4.8 16.48,7.72l2.71 1.67c10.01,6.88 15.23,1.04 34.62,29.62l16.27 16.89c3.13,2.71 0.42,0.21 1.88,2.29l10.01 10.22c1.46,1.88 2.09,3.75 3.55,5.42 2.71,3.55 0,0.63 2.71,2.71l3.13 2.29c5.01,3.96 10.43,6.05 13.77,11.68 8.97,14.81 30.87,10.64 18.77,49.22 -4.8,15.23 -17.1,26.49 -29.2,35.87 -5.21,3.96 -11.68,5.21 -17.31,8.34 -12.1,6.26 -32.74,8.55 -46.93,8.13 -10.22,-0.42 -21.48,-1.25 -29.62,-5.42l-6.05 -2.71c-0.21,-0.21 -0.42,-0.42 -0.63,-0.42 -6.47,-5.63 -6.88,-4.59 -9.39,-8.34 -0.21,-0.21 -0.21,-0.42 -0.42,-0.63 -3.13,-4.8 -7.3,-14.18 -4.17,-20.86 0,-0.21 3.34,-5.21 3.96,-6.05 2.71,-3.55 1.04,-2.09 5.01,-3.96 13.97,-6.47 27.53,1.88 29.82,-0.83 3.55,-4.17 -7.3,-15.85 -20.23,-17.1 -12.1,-1.25 -30.66,6.26 -35.66,16.48 -2.71,5.42 0.42,5.63 -5.84,6.47 0,-4.8 -1.25,-7.51 -1.25,-11.05 0,-7.51 0.83,-18.77 6.05,-24.61 0,0 1.46,-1.46 1.67,-1.67 5.01,-5.21 6.88,-9.39 13.56,-12.93 6.88,-3.75 7.72,-5.63 17.31,-7.3 15.85,-2.71 28.16,-3.34 44.63,-0.63 9.8,1.46 11.47,0.83 17.52,6.67 2.92,2.71 3.96,2.5 6.47,5.84 3.55,4.8 1.25,2.71 6.26,5.84l-1.25 5.84c-0.21,0 -0.42,-0.21 -0.63,-0.21l-7.3 -0.63c-4.59,-0.42 -6.88,-1.46 -10.64,-1.46 -6.05,0 -13.35,4.17 -17.94,6.67 -11.89,6.67 -10.01,22.94 1.04,29.2 5.42,3.13 9.59,5.63 15.64,6.05 5.63,0.42 15.23,-2.29 20.02,-4.38 11.89,-4.8 17.52,-19.61 15.64,-32.54 -0.63,-5.01 -2.92,-10.64 -6.05,-13.97l-12.51 -11.89c-0.83,-0.63 -2.71,-1.67 -3.55,-2.09 -2.92,-1.25 -5.01,-2.09 -8.34,-3.55l-7.93 -2.5c-11.05,-1.88 -0.21,-2.71 -20.86,-2.5 -18.35,0.21 -45.88,3.34 -58.39,15.43l-6.47 5.63c-2.71,2.29 -6.88,3.13 -8.34,6.05 -3.55,6.88 -6.26,8.97 -7.51,15.43 -1.46,7.09 -1.46,15.02 -1.04,22.73 0.42,11.05 4.38,9.59 7.09,16.69 0.42,1.25 0.21,0.83 0.83,2.5 4.59,10.64 9.39,10.64 14.39,15.43 2.5,2.5 3.34,3.75 6.26,6.05 4.38,3.55 11.05,6.26 15.85,8.34 35.46,15.43 89.88,6.26 116.37,-12.72 3.13,-2.09 3.34,-3.34 6.47,-5.63 13.77,-10.01 6.47,-5.84 12.51,-11.89 2.92,-2.92 3.75,-2.29 5.84,-6.26 2.71,-5.01 7.72,-10.64 8.13,-16.06 0.63,-6.47 1.88,-15.23 3.96,-20.02 3.55,1.25 0.42,0.21 2.92,1.46l15.85 11.68c2.71,2.09 5.84,6.05 8.97,7.72l10.22 5.21c3.75,2.71 3.75,5.01 8.55,8.13 3.13,2.09 5.84,5.01 8.97,6.47l10.01 5.42c2.71,2.09 8.97,2.71 9.8,5.63 2.09,7.09 -12.93,6.47 -17.1,7.51 -10.01,2.29 -21.9,6.26 -30.24,12.1l-1.25 1.04c-0.21,0.21 -0.42,0.42 -0.63,0.42 -4.59,3.34 -10.85,5.42 -15.02,9.39 -2.5,2.29 -3.13,4.17 -5.01,7.09l-6.05 6.05c-15.02,16.27 -18.35,40.88 -7.3,61.31 1.04,2.09 1.46,2.09 2.5,4.17 1.67,3.55 0.21,1.04 1.04,3.34 1.67,5.63 1.46,1.46 4.38,4.59 2.29,2.71 1.04,3.55 4.59,6.47 22.53,19.4 60.68,26.9 89.46,21.07l18.35 -5.21c7.72,-2.92 25.44,-15.02 28.36,-19.4 2.92,-4.59 1.25,-2.71 5.21,-7.09 9.18,-9.8 12.31,-36.92 -2.71,-51.1 -6.67,-6.26 -4.59,-6.67 -8.55,-9.18l-11.26 -5.42c-6.05,-2.5 -25.86,-6.47 -32.74,-3.96 -8.55,3.13 -17.1,2.09 -25.24,7.3 -37.54,24.19 26.49,56.3 41.3,21.27 2.71,-6.47 2.29,-15.23 3.34,-17.31 16.27,2.5 15.02,2.09 24.61,13.14 3.34,3.96 4.38,6.05 5.63,11.05 1.04,4.17 -0.42,10.01 0.63,16.89 0.63,3.96 -0.21,4.38 -1.67,7.51l-5.42 8.97c-2.09,2.71 -3.75,5.42 -5.63,7.51 -4.59,4.8 -18.98,11.05 -26.28,12.72 -8.13,1.88 -15.02,3.13 -23.57,3.34 -5.63,0.21 -19.19,0.21 -22.11,-2.92 1.04,-0.83 15.85,-5.01 18.98,-6.47 5.42,-2.29 10.22,-5.84 12.93,-11.68 6.26,-13.97 -6.88,-25.65 -23.15,-25.24 5.42,7.93 8.13,13.14 1.67,21.07 -2.09,2.71 -6.88,4.59 -9.39,6.05 -5.01,2.92 -17.94,1.88 -23.78,0.83l-3.55 -0.63c-0.21,0 -1.04,-0.21 -1.25,-0.21 -9.8,-1.88 -27.11,-14.6 -29.62,-23.99 -0.83,-3.55 -2.09,-14.39 -1.67,-18.56 0.42,-5.84 1.25,-3.13 2.09,-8.97 0.83,-5.21 2.29,-7.93 5.63,-11.89 0.21,-0.21 0.42,-0.42 0.42,-0.63l5.21 -5.84c4.17,-4.17 4.8,-7.3 9.18,-10.64 12.93,-9.18 24.61,-15.85 40.25,-20.02 13.35,-3.55 20.23,-3.55 36.71,-3.96 1.25,5.01 0.83,2.09 4.59,5.01 0,0 0.42,0.21 0.42,0.42l10.43 6.05c1.88,1.04 1.04,0.63 2.5,1.67l45.47 24.82c7.72,2.92 15.02,8.13 24.4,11.05 10.01,3.13 15.43,6.67 24.82,10.22 14.18,5.42 32.33,8.34 41.09,20.65l6.05 8.55c2.09,1.25 16.69,13.56 6.88,12.93 -2.09,-0.21 -1.88,-0.21 -3.34,-0.83 -8.13,-3.34 -8.76,-3.75 -19.61,-3.55 -6.47,0.21 -21.07,3.13 -25.65,5.84 -3.13,1.88 -2.5,1.67 -4.8,4.17 -3.96,4.17 -8.97,6.26 -13.14,10.22 -1.04,1.04 -1.67,1.88 -2.09,2.29 -2.5,2.29 -3.75,1.67 -5.42,4.8 -2.5,5.01 -4.8,1.88 -4.8,9.59 2.29,-0.42 3.34,-0.63 4.8,-1.04 3.96,-1.46 4.38,-3.96 7.93,-6.47 11.05,-7.93 32.12,-12.31 45.88,-10.85 25.65,2.71 14.39,-1.25 41.3,6.88 5.42,1.67 12.1,7.3 16.06,11.47l6.05 7.09c4.8,3.96 7.72,8.76 11.89,13.77 8.34,10.01 13.77,11.68 20.65,16.89l5.42 4.59c2.09,1.46 4.38,2.71 6.05,3.75 2.5,1.67 3.75,2.09 6.05,3.75 5.21,3.75 13.14,5.84 18.35,9.18 2.92,1.88 2.5,2.29 5.84,4.17 3.55,1.88 2.92,0.63 5.42,3.34 -3.75,2.09 -15.43,-5.01 -19.61,-6.47 -21.07,-8.13 -24.4,-12.72 -37.75,-19.61 -6.67,-3.34 -11.89,-5.84 -18.35,-8.97 -14.6,-7.09 -17.31,-8.34 -33.58,-7.51 -16.69,0.83 -14.81,-3.34 -36.5,4.17 -3.75,1.25 -7.3,2.09 -11.26,3.34 -2.5,0.83 -7.93,1.88 -7.3,3.96 1.25,3.75 3.55,1.67 11.26,1.88 5.21,0.21 7.3,0.42 7.3,5.21 -3.13,2.09 -9.8,2.09 -14.81,3.13 -6.05,1.25 -7.72,1.46 -13.35,3.55 -8.34,3.34 -14.81,7.93 -19.81,13.56 -4.38,4.8 -3.55,4.8 -6.67,10.85 -5.63,11.05 -10.64,26.49 -8.76,40.04l15.85 -19.19c6.26,-5.63 15.85,-7.51 25.24,-10.43 7.93,-2.5 16.89,-6.47 26.49,-9.39 10.85,-3.34 21.27,-1.67 31.91,-3.13 21.07,-2.5 47.55,-1.04 66.11,2.29 20.44,3.75 21.69,6.47 42.34,10.22 27.74,4.8 50.68,5.01 81.54,4.38 5.84,-0.21 11.68,0.21 17.52,-0.63l13.77 -1.88c11.05,-2.09 19.4,-2.92 29.2,-5.63 3.96,-1.04 11.26,-3.55 13.77,-3.75l20.65 -4.38c5.63,-0.42 8.76,-2.09 14.39,-3.55 6.26,-1.67 17.1,-2.29 22.11,-4.8l9.59 -4.38c3.96,-1.25 7.09,-4.17 11.47,-5.42l12.1 -3.13c-4.17,-2.5 -0.42,-0.83 -3.34,-1.04l-22.11 3.75c-10.85,0.83 -26.07,6.05 -37.54,8.34 -4.8,1.04 -7.51,0.83 -12.93,1.67 -9.18,1.04 -16.06,2.29 -26.7,2.5 -21.27,0.83 -32.12,3.34 -53.38,-2.29 -8.97,-2.5 -30.87,-11.05 -39.21,-16.06l-9.59 -5.63c-9.8,-5.63 -5.21,-1.67 -7.72,-6.67 -1.88,-3.75 -5.01,-5.42 -7.09,-9.39 -4.38,-8.97 -6.88,-32.74 5.63,-35.66 7.72,-1.88 25.24,1.88 33.79,3.75l12.1 2.5c0.21,0 0.63,0 0.63,0l3.75 0.42c8.76,2.09 2.71,-0.42 8.97,0.83 0.21,0 0.42,0.21 0.63,0.21 5.84,1.46 1.67,-0.42 8.13,0.42 2.71,0.42 3.96,0.83 6.26,1.46 9.18,2.71 7.51,3.75 8.55,5.42l7.51 8.13c5.01,5.63 16.06,10.64 22.94,13.35l2.5 1.04c5.63,1.88 5.63,0 5.84,0 1.67,-6.26 -6.88,-8.55 -9.39,-10.85 -6.67,-5.63 -4.38,-8.76 -5.63,-13.35l74.86 4.38c7.51,1.04 5.84,2.29 14.18,0.83 2.71,-0.42 32.74,-0.63 39.42,1.04 0.21,0 0.42,0.21 0.63,0.21 0.21,0 0.42,0.21 0.63,0.21l27.53 -1.04c0.63,-0.21 2.5,-1.04 6.47,-1.04 7.51,0 10.01,-0.83 15.64,-1.46 4.59,-0.42 11.68,-0.21 16.48,-0.21 15.85,0 10.43,-2.92 23.57,-0.63 6.47,1.25 1.25,1.04 4.59,-0.63 2.5,-1.46 1.04,-1.46 5.42,-0.83 0.21,0 3.55,0.42 3.96,0.63 1.88,0.42 1.67,0.21 2.5,0.63 2.29,0.63 1.04,-0.21 2.29,1.25 -1.04,5.63 -11.05,12.93 -13.35,16.69 -1.67,2.5 -0.83,2.71 0.42,4.38 1.25,-1.46 0.83,-1.25 3.13,-2.29 0.42,-0.21 3.13,-0.83 3.75,-1.04 7.72,-2.09 23.36,-10.43 29.2,-17.1 9.8,-11.26 7.09,-7.3 10.64,-7.3l60.68 -9.8c2.5,-0.63 0.42,0 2.71,-0.83 8.55,-3.55 2.5,2.09 9.59,-1.46 3.75,-1.88 -1.46,-4.17 7.72,-1.04 5.63,2.09 5.21,2.29 7.51,7.93 4.59,11.26 4.38,17.31 -5.21,30.66 -8.34,11.89 -1.88,6.26 -9.8,11.05 -7.93,4.8 -4.59,7.09 -19.4,12.93 -7.72,3.13 -2.92,3.34 -10.01,5.42l-20.86 6.05c-19.81,7.09 -64.85,3.13 -85.29,1.04l-34.2 -5.01c-11.47,-4.59 -17.1,-3.34 -25.44,-5.42 -3.96,-1.25 -6.47,-2.09 -8.13,-2.5l0 -0.42c-3.34,-0.63 -4.8,-1.46 -8.13,-2.09 1.88,3.34 2.71,4.17 7.3,4.59 2.92,0.83 7.72,2.29 9.8,2.92 7.09,2.29 1.25,1.88 19.61,6.67l41.3 10.22c1.04,0.21 3.13,0.83 3.34,0.83 0.21,0 1.04,0.21 1.46,0.21 3.75,0.42 4.38,-0.63 7.51,1.88 5.21,4.17 -1.46,1.04 7.72,3.34 23.36,5.84 50.68,10.43 75.49,9.59 21.27,-0.83 43.59,-3.96 65.06,-5.63 7.72,-0.63 9.18,-2.5 13.56,-3.13 3.75,-0.63 10.22,-1.46 15.02,-2.09 52.14,-7.3 51.52,-11.89 109.7,-3.13l39.63 9.8c8.76,4.38 13.14,6.26 21.27,12.72 7.51,5.84 7.51,14.39 13.97,20.44 8.13,-12.93 2.29,-12.31 1.67,-23.36 -0.42,-6.88 -2.71,-7.09 -3.96,-11.26 -3.34,-12.1 -2.29,-3.34 -9.18,-18.15 -2.5,-5.21 -1.88,-1.25 -6.05,-7.51 -5.01,-7.51 -14.39,-6.88 -20.23,-10.85l-0.47 3.25zm-139.94 -23.56c-0.63,2.29 -1.67,5.84 -5.21,3.96 -1.25,-0.63 -1.25,-1.46 -1.04,-2.5 0.42,-4.38 0.83,-1.88 1.67,-2.92 1.04,-7.72 11.26,-6.05 2.29,-36.29 -1.67,-5.63 -1.25,-5.42 -0.63,-8.55 0.42,-2.92 0.83,0.42 0,-1.46 7.09,-0.42 5.42,-0.63 9.39,-2.71 0.63,-0.42 1.04,-0.42 1.67,-0.63l13.97 -0.63c0.21,7.09 -0.42,10.43 -2.09,16.06 -1.67,5.84 -4.59,9.39 -5.63,13.14 -1.67,6.67 -1.88,6.67 -6.67,12.1 -5.01,5.42 -1.88,3.55 -5.21,7.93 -0.83,1.04 -1.46,1.67 -2.29,2.29l-0.22 0.21zm-556.81 16.68c-8.97,-0.83 -19.19,-20.02 -23.36,-27.95 -3.34,-6.05 -7.09,-9.8 -8.13,-17.52 -1.25,-10.64 -2.92,-10.22 -1.67,-22.11 4.59,1.04 9.59,2.09 14.39,3.13 4.17,0.83 9.59,1.46 13.35,3.13 0.42,5.42 0,3.75 -3.13,7.72 -1.25,1.46 -2.29,3.55 -3.34,6.47 -8.76,28.57 11.47,40.88 11.68,47.14l0.21 -0.01zm599.14 -51.93c-0.21,-8.76 1.25,-7.51 3.34,-12.93 3.55,-8.76 -0.63,-10.64 8.13,-13.77 0.21,0 0.42,-0.21 0.63,-0.21l17.52 -3.75c-0.42,9.59 -0.42,0.83 -12.51,17.94 -3.13,4.38 -6.26,5.84 -10.01,9.8 -2.92,2.92 -6.05,6.67 -9.18,8.34 -3.13,-5.01 2.09,-5.42 2.09,-5.42l-0.01 0zm-641.9 19.6c-6.26,-0.83 -15.43,-17.1 -19.81,-22.53l-14.18 -15.64c-3.55,-3.75 -9.59,-7.3 -10.64,-12.51 4.17,-0.21 14.6,3.55 19.4,4.8 14.6,3.75 9.59,15.64 17.94,30.87 2.71,4.8 7.3,9.39 7.51,15.02l-0.22 -0.01zm1096.95 -360.78c3.55,-3.75 4.38,-6.88 7.3,-10.85 3.13,-4.17 4.8,-2.92 13.14,-5.84l4.38 -1.25c8.76,-1.88 15.85,-5.01 26.7,-5.84l-6.05 4.17c-2.09,1.04 -3.75,2.09 -5.84,3.13l-12.51 6.26c-2.29,1.25 -4.59,2.09 -6.67,3.34 -5.42,3.13 -12.93,8.13 -20.23,7.09l-0.22 -0.21zm-1560.12 16.68c-8.76,-2.29 -13.77,-5.42 -21.07,-9.18 -15.23,-8.13 -30.24,-13.97 -46.51,-22.94 -3.34,-1.88 -6.26,-3.34 -7.3,-6.88 23.36,6.88 16.89,9.8 54.63,15.23 6.47,0.83 6.05,0.42 9.39,5.01 4.38,6.05 9.39,10.85 10.85,18.77l0 -0.01zm1592.24 -63.6c6.26,-0.21 11.68,1.04 18.77,0.83 22.53,-0.42 28.99,-3.34 49.43,-11.05l-7.72 5.63c-2.92,1.25 -5.84,1.88 -9.39,2.92 -17.94,5.42 -37.12,14.6 -59.85,15.23 1.04,-4.38 3.96,-13.56 8.76,-13.77l0.01 0.21zm-1674.62 5.42c11.26,3.75 42.55,-2.92 48.18,-2.71 1.46,1.88 2.71,3.55 3.96,6.26 4.17,9.39 9.18,13.97 -7.93,12.72 -12.1,-0.83 -81.75,-15.02 -83.42,-27.95 8.55,-0.21 12.93,4.17 20.02,6.67 3.55,1.25 6.26,2.09 10.43,2.71 11.05,1.25 3.34,0.63 8.55,2.29l0.22 0.01zm1721.13 -432.52c7.09,1.46 15.64,3.34 18.56,8.97 -12.1,0.21 -17.52,-3.96 -25.44,-3.96 -20.44,0 -26.49,3.75 -36.5,3.96 -2.29,-1.25 -12.72,-16.48 -2.5,-17.73 1.88,-0.21 15.23,2.5 24.4,2.71 7.3,0.21 13.56,4.17 21.48,5.84l0 0.21zm-1753.03 20.85c2.92,-7.51 21.07,-10.43 34.2,-16.27 3.34,-1.46 0.83,-0.42 4.17,-2.5 4.59,-2.71 15.85,-4.8 21.9,-6.05 9.39,-1.67 30.24,-9.8 16.48,9.39 -3.13,4.38 -2.92,3.55 -9.18,3.55 -7.09,0 -20.65,-0.42 -27.11,0.63 -20.65,3.96 -28.16,11.47 -35.87,11.68 -6.88,0.21 -0.83,1.25 -4.59,-0.63l0 0.2zm1726.35 -46.71c-3.13,5.01 -3.96,2.5 -14.81,0.21 -17.52,-3.96 -20.86,-0.63 -28.99,-10.43 -2.92,-3.55 -2.09,-2.29 -2.92,-7.3 -0.42,-2.92 0.21,-1.04 -0.83,-3.75l5.01 -0.42c2.92,1.46 2.29,1.67 5.21,3.34 3.13,2.09 3.75,1.25 6.88,3.13l12.51 7.3c8.34,6.26 13.97,3.34 17.73,8.13l0.21 -0.21zm-51.1 -25.24c0.63,1.04 1.67,0.63 0,3.34 -1.25,-1.25 -0.63,0.21 -0.83,-2.09l0.63 -1.25 0.2 0zm-1577.86 15.02c0.63,6.05 -1.67,10.01 -5.63,12.72 -2.92,2.29 -23.36,6.47 -28.99,7.93 -3.75,1.04 -10.01,5.63 -11.47,4.17 -5.42,-5.21 30.87,-17.94 33.79,-19.4 4.38,-2.29 5.42,-5.63 12.1,-5.42l0.2 0zm604.99 -319.29c12.51,-2.29 26.9,-3.55 40.04,-6.26l7.09 -0.83c5.42,-0.83 -0.83,0.21 3.13,-1.04 4.8,-1.46 6.67,-0.42 10.64,-1.67 2.09,-0.63 1.46,-0.63 3.96,-0.63l22.73 -2.09c2.92,-0.63 5.63,-1.04 9.39,-0.83l5.63 0.83c18.98,-2.71 87.17,-7.09 104.06,-4.38 8.76,1.46 6.67,0.21 15.23,0l11.26 0.83c2.5,0.21 5.01,-0.21 7.72,-0.21 14.81,-0.21 31.08,2.29 46.72,3.55 6.47,0.42 12.31,1.04 17.94,1.88 3.75,0.42 6.26,0.63 9.8,1.25 1.88,0.42 3.55,0.83 3.75,0.83 0.21,0 0.42,0 0.63,0.21l2.29 0c17.1,0.83 36.29,4.59 52.97,6.67 2.5,0.42 5.42,0.83 8.55,1.25 2.92,0.42 5.63,0.42 8.76,1.04l64.02 14.39c5.01,1.67 9.59,2.92 15.23,4.59 11.05,3.13 20.44,6.47 31.28,9.18 3.96,1.04 12.93,2.29 15.02,2.92l15.02 3.96c5.63,2.09 3.13,2.5 6.67,4.38 4.59,2.5 23.78,5.84 31.49,8.97 4.59,1.88 0.83,0.42 3.34,1.88 6.88,4.38 22.94,8.76 31.28,11.68 12.1,4.17 20.23,11.26 26.07,13.35 4.38,1.46 10.43,3.34 14.6,5.01 3.34,1.46 10.43,3.55 12.72,6.67 4.59,6.26 18.56,8.76 25.24,12.51 4.59,2.5 -0.83,-0.63 3.13,2.5 0.42,0.42 1.67,1.25 2.71,1.67 0.21,0 3.75,1.67 3.96,1.67 8.13,2.5 3.75,2.71 9.18,6.26 3.13,2.09 9.59,3.55 12.1,6.26 6.47,7.09 16.69,7.51 24.61,13.97 2.29,1.88 0.21,0.42 3.34,2.09 4.59,2.5 0.42,1.88 6.67,5.63l2.29 1.88c3.96,3.34 9.18,5.21 12.93,8.97 5.42,5.42 11.89,8.55 18.15,12.72 1.88,1.25 1.46,1.04 3.34,2.09 4.8,2.5 11.68,7.09 14.18,11.26 2.92,4.38 6.26,4.8 9.8,7.93l9.59 7.09c8.34,7.09 18.56,18.77 24.4,23.15 1.46,1.25 1.04,0.63 2.29,2.09l5.01 3.96c3.75,1.88 6.26,7.51 9.59,10.22 11.47,9.59 6.05,5.01 15.64,15.43 1.88,2.09 1.25,1.46 2.29,3.34 1.88,2.71 4.8,4.38 7.51,6.88l15.43 20.02c8.34,11.26 10.64,10.22 21.69,29.62 2.71,4.59 6.47,6.05 8.76,10.22 1.88,3.34 2.29,2.71 4.59,5.21l20.65 38.38c3.55,6.05 8.13,11.89 11.05,18.98 1.25,2.92 1.88,5.21 3.13,8.13l2.5 7.51c1.25,4.17 3.96,4.17 4.38,8.34l11.89 30.24c2.29,5.01 2.71,11.68 4.17,17.1l8.34 32.12c2.29,10.22 5.21,37.75 5.42,38.38 0,0.21 0.21,0.42 0.21,0.63 1.67,5.84 -0.21,8.76 0.42,13.14 1.04,6.26 2.09,-2.09 2.09,6.88l-1.46 50.89c0,3.75 0.83,6.47 0.63,8.55l-2.5 16.89c-1.25,13.35 -4.38,34.41 -8.13,47.55 0,0.21 -0.21,0.42 -0.21,0.63 0,0.21 0,0.42 -0.21,0.63 0,0.21 0,0.42 0,0.63 -0.21,1.46 0,1.25 -1.04,3.34l-12.51 39c-1.04,5.01 0.63,3.96 -1.88,7.93 -2.92,4.8 -1.46,0.83 -2.92,6.88 -1.46,6.26 -15.43,36.92 -19.4,43.17l-10.85 21.07c-2.5,5.01 -5.21,10.64 -8.97,15.23l-15.64 20.65c-2.92,4.17 -5.42,7.93 -7.93,11.89 -7.3,12.1 -15.85,23.57 -26.49,33.16l-16.69 20.86c-2.09,1.88 -0.83,0.42 -2.92,2.71l-22.53 22.94c-0.21,0.21 -0.42,0.42 -0.63,0.63l-4.17 3.34c-3.55,1.88 -5.63,4.59 -9.8,8.13 -9.39,7.93 -9.59,9.18 -15.23,14.6l-46.3 34.62c-16.69,16.06 -24.61,15.02 -37.33,26.07l-1.25 1.04c-0.21,0.21 -0.42,0.42 -0.63,0.42l-37.33 22.32c-4.38,5.01 -11.89,8.55 -18.35,10.85 -4.38,1.67 -3.55,2.29 -6.47,3.55 -3.96,1.67 -4.38,0 -8.13,2.09l-17.1 10.43c0,0 -0.42,0.21 -0.42,0.42 -0.83,0.42 -5.01,1.88 -6.88,2.71l-21.07 9.18c-7.51,3.96 -4.17,1.88 -9.8,3.34 -7.93,2.09 -0.42,0.42 -5.42,4.59 -5.84,4.8 -15.02,4.59 -21.48,6.47 -3.75,1.04 -11.68,4.59 -15.02,6.26 -2.5,1.25 -3.34,2.09 -6.47,3.34 -2.5,1.04 -5.21,1.67 -7.72,2.5 -1.25,0.42 -2.5,0.83 -3.55,1.25l-8.34 2.29c-4.8,1.46 -9.59,3.34 -15.02,5.21 -9.39,3.34 -22.11,5.21 -30.66,9.59 -6.26,3.34 -11.89,4.17 -18.56,5.84l-6.05 1.46c-0.21,0 -0.42,0.21 -0.63,0.21l-44.01 10.85c-3.34,0.83 -5.84,0 -10.64,1.25 -16.27,4.8 -34.62,6.26 -51.1,9.59 -8.55,1.67 -0.63,-0.21 -6.47,3.55 -7.72,-2.71 -5.84,-2.5 -15.23,0.63l-5.01 0c-3.55,-1.04 -5.63,-1.04 -10.01,0.63 -6.47,2.5 -6.67,-0.21 -14.81,2.09 -7.3,2.09 -7.72,-1.25 -15.43,1.46 -2.71,0.83 -26.28,0.63 -33.37,1.46 -12.1,1.46 -11.05,-0.63 -17.1,0.83 -13.77,3.55 -25.44,1.25 -34.83,1.67 -23.78,1.04 -23.99,0.42 -47.34,0.21 -3.55,0 -1.67,0.21 -5.84,0.42 -10.22,0.21 -52.97,-2.29 -62.14,-4.17 -7.51,-1.67 -6.47,2.09 -11.89,0.21 -6.26,-2.09 1.67,-2.5 -6.47,-1.88 -2.5,0.21 -1.67,1.25 -6.67,0.83 -3.75,-0.42 -10.01,-2.09 -14.39,-3.13 -3.75,-0.83 -10.43,-1.25 -14.81,-1.67 -20.44,-1.46 -37.54,-5.63 -57.14,-8.34 -5.01,-0.63 -9.8,-0.83 -13.56,-2.71 -9.59,-4.8 -50.89,-12.72 -66.11,-16.89 -8.97,-2.5 -17.73,-5.21 -26.28,-7.72 -33.37,-9.59 -66.94,-18.98 -98.22,-34.62 -7.09,-3.55 -15.43,-6.26 -23.36,-9.59 -3.75,-1.46 -8.76,-3.34 -11.89,-5.63 -10.01,-7.3 -22.11,-8.76 -32.74,-14.6 -8.76,-4.8 -30.45,-14.81 -37.33,-22.32l-21.48 -11.47c-2.29,-1.25 -3.55,-2.09 -5.21,-3.55l-35.46 -23.99c-2.29,-1.88 -1.04,-0.83 -2.71,-1.67l-9.39 -7.09c-3.34,-2.29 -4.38,-5.21 -9.39,-7.09 -3.96,-1.46 -2.29,-0.42 -5.42,-3.55l-22.94 -19.19c-1.67,-1.04 -2.92,-2.09 -4.38,-3.34l-33.79 -33.16c-3.13,-3.55 3.55,1.46 -2.29,-2.71 -2.09,-1.46 -2.92,-2.09 -5.21,-3.96 -2.09,-1.88 -2.5,-2.29 -4.59,-4.17l-33.16 -38.79c-4.38,-6.47 -12.31,-11.68 -13.56,-20.02l3.96 3.55c-2.92,-5.21 -8.97,-9.18 -11.26,-14.39 -0.83,-1.67 -0.83,-1.46 -1.88,-3.34 -4.17,-7.51 -5.42,-7.09 -9.18,-12.93 -1.67,-2.5 -2.92,-3.96 -4.59,-6.47 -1.88,-2.71 -2.09,-4.59 -3.75,-7.51 -6.26,-10.43 -11.68,-16.27 -16.69,-26.7 -1.25,-2.92 -2.29,-4.38 -3.55,-7.51l-1.88 -7.09c-1.67,-3.96 -5.01,-8.34 -6.26,-12.72l-3.13 -7.72c-5.84,-8.76 -10.43,-25.24 -13.14,-36.08 -1.67,-6.47 -3.75,-10.64 -5.63,-16.69 -1.88,-6.05 -1.67,-11.68 -3.13,-18.15 -3.34,-13.56 -9.59,-55.89 -10.01,-57.35 -5.63,-17.94 -1.67,-54.63 0.42,-71.74 1.46,-12.1 0.21,-29.62 4.59,-41.09 2.71,-6.88 2.71,-15.85 4.38,-22.94l18.98 -62.14c2.92,-7.3 9.18,-19.4 10.64,-25.65 1.25,-4.8 2.92,-7.72 6.05,-11.47 6.05,-7.09 6.88,-14.81 11.89,-22.11 2.09,-3.13 1.67,-3.55 3.34,-6.47 1.04,-1.88 0.63,-1.04 1.88,-2.71l8.55 -14.6c5.42,-8.76 8.97,-13.97 14.6,-21.69l19.81 -26.28c3.55,-3.55 8.76,-7.09 11.89,-12.51 3.75,-6.88 7.51,-10.64 12.72,-16.06 1.46,-1.67 2.71,-2.92 4.17,-4.59 2.92,-3.13 5.63,-6.67 9.18,-9.59 6.05,-4.59 5.42,-5.84 8.76,-8.97 1.04,-1.04 2.71,-1.67 3.34,-2.29l3.96 -5.01c0.21,-0.21 1.88,-1.88 2.29,-2.29l11.89 -10.22c4.17,-2.92 5.42,-7.3 11.68,-11.47 2.29,-1.67 2.5,-2.09 4.17,-3.13 4.17,-2.71 4.8,-5.84 9.59,-8.34 6.67,-3.55 4.59,-4.59 11.05,-7.93l10.43 -8.55c5.84,-3.96 8.55,-9.39 15.23,-12.51 4.8,-2.09 7.51,-5.63 10.64,-8.13l16.69 -11.05c2.71,-1.25 9.59,-3.75 12.1,-5.63 7.51,-6.26 7.09,-3.13 11.68,-7.3 3.96,-3.75 6.26,-5.01 11.05,-7.72l11.05 -6.26c5.42,-1.46 5.63,-3.96 10.43,-6.88 6.05,-3.55 6.88,-1.25 12.51,-6.47 3.34,-2.92 7.09,-4.59 11.68,-6.05 6.47,-2.09 7.09,-3.55 12.72,-6.26 2.71,-1.25 3.96,-1.46 6.47,-2.5 4.38,-1.67 2.09,-1.46 5.63,-3.34l52.35 -22.53c14.18,-5.63 9.8,-2.29 22.53,-8.55l4.17 -1.25c13.56,-3.34 28.36,-9.8 41.71,-14.18 31.7,-10.22 63.6,-16.06 95.72,-25.44 6.05,-1.67 2.5,0 6.47,0l31.08 -6.05 0.89 1.21zm575.17 -5.84c1.04,1.46 1.46,1.25 0,3.34 -0.63,-0.83 -1.67,-1.04 0,-3.34zm127.63 25.24c-0.42,-18.35 5.21,-20.23 10.01,-28.57 1.67,-2.92 31.49,-16.48 45.47,-16.89l21.48 0.83c-1.88,5.01 -1.67,2.71 -6.67,5.01 -3.34,1.46 -3.55,2.5 -6.88,4.17 -6.05,2.92 -7.51,3.96 -10.85,10.01 -7.51,13.77 -0.63,18.98 7.09,28.36 -9.59,1.04 -19.61,-0.42 -25.44,9.39 -8.97,15.23 -1.25,18.77 -0.83,24.19 -8.76,1.88 -20.44,-4.59 -24.82,-9.39 -5.84,-6.67 -8.55,-18.15 -8.76,-27.11l0.2 0zm-152.86 -18.15c-5.84,0.21 -18.35,-3.96 -23.78,-5.84 -1.04,-3.55 -0.83,-7.09 -2.29,-10.85 -2.71,-6.67 -12.1,-22.53 -12.1,-26.49 4.17,0.21 4.38,1.46 6.67,3.96 7.09,7.93 1.67,-1.88 9.18,10.64 2.92,4.8 6.47,6.88 9.59,11.47 2.09,3.13 1.67,3.13 4.17,5.84 3.55,3.75 8.13,5.21 8.76,11.26l-0.2 0.01zm-713.64 -2.5c0.83,-4.17 1.88,-5.42 4.59,-7.93l3.75 -3.75c0,0 0.21,-0.21 0.42,-0.42 5.21,-5.42 5.42,-8.13 9.59,-12.93 30.66,-34.2 27.74,-15.85 16.89,-6.67 -14.6,12.51 -4.38,27.95 -35.04,31.7l-0.2 0zm633.14 -72.78c-3.55,-5.21 -2.29,1.04 -2.71,-5.01 9.18,-3.75 25.86,28.16 27.95,37.33l4.59 21.27c0.63,2.29 2.09,3.13 0.83,5.42 -2.5,4.8 -21.48,-3.75 -23.57,-5.63 0.83,-2.71 4.38,-7.09 5.01,-14.6 1.04,-11.89 -2.29,-22.53 -8.34,-31.91l-4.17 -7.09 0.41 0.22zm-583.92 57.14c-0.63,-7.72 1.25,-13.97 3.13,-21.07 3.75,-13.14 23.78,-42.13 32.95,-42.13 1.46,7.3 -11.26,9.39 -13.14,24.4 -0.83,6.47 -3.34,10.43 -3.13,15.23 0.21,6.26 2.5,9.39 2.71,16.89 -11.68,5.21 -10.64,4.8 -22.53,6.67l0.01 0.01z"/>
   <path class="fil0" d="M1060.67 1545.1c-10.85,0.63 -14.39,1.88 -23.36,-1.46 -8.34,-3.13 -7.51,-4.8 -15.23,-11.26 -5.01,-4.38 -2.92,-16.48 -0.83,-21.69 4.17,-11.47 10.85,-6.47 10.43,-15.23 -16.06,1.04 -23.78,9.59 -29.2,22.94 -5.01,12.1 -2.92,10.01 -0.83,18.15 2.29,9.18 3.75,10.22 9.59,16.27 8.55,9.18 36.71,13.56 47.14,19.81 5.01,2.92 13.97,12.51 16.06,16.69 9.8,-2.5 10.85,-8.13 10.43,-16.69 -0.63,-11.89 -5.84,-6.67 0.63,-19.81 1.04,-1.88 1.04,-2.09 2.09,-3.75 3.13,-5.63 2.92,-8.97 0.63,-14.39 -1.88,-4.38 -2.29,-4.8 -6.47,-6.88 -2.71,-1.46 -1.67,-0.83 -4.17,-2.5 -3.75,-2.71 -1.46,-2.09 -2.92,-1.25 -3.34,2.09 -1.67,5.21 -3.34,15.23 -2.92,4.38 -6.05,4.59 -10.64,5.84l-0.01 -0.02z"/>
   <path class="fil0" d="M1180.38 1495.47c1.25,3.13 0.21,3.96 2.92,7.09 1.88,2.09 2.09,1.25 4.38,4.59 5.42,8.13 2.5,22.11 -1.88,27.32 -8.34,10.01 -30.66,14.39 -39.84,9.18 -4.17,-2.29 -8.34,-2.71 -9.8,-7.93 -2.71,-9.18 4.8,-6.47 -1.88,-11.68 -3.55,1.25 -0.63,0.21 -2.71,1.46l-7.72 4.59c-2.5,2.29 -4.38,7.3 -4.59,10.85 -0.63,12.31 7.93,9.59 8.34,22.94 -1.67,1.46 -3.55,2.92 -5.21,4.38 -0.21,9.8 0.42,20.86 10.85,19.4 3.13,-2.29 3.13,-5.01 5.21,-7.93 1.04,-1.67 1.67,-2.5 2.92,-3.55l20.86 -11.47c12.93,-5.63 29.41,-3.34 35.87,-13.35 1.67,-2.71 0.21,-0.42 2.5,-2.09 5.84,-4.38 9.39,-14.6 8.97,-21.9 -1.04,-16.89 -13.14,-29.41 -28.99,-31.7l-0.2 -0.2z"/>
   <path class="fil0" d="M1128.66 11.46c0.21,15.64 1.04,4.8 3.34,12.51 0.63,2.29 0.42,6.26 0.21,8.76 -12.93,7.3 -9.59,15.64 -9.39,24.4 5.42,2.71 8.76,5.01 15.64,6.26 0,-4.59 -2.09,-6.67 -0.83,-10.43 0.42,-1.04 5.21,-6.26 6.47,-7.09 5.63,-4.38 13.97,-3.96 22.73,-4.17 4.38,0 9.18,2.5 11.68,4.59 0.21,0.21 0.42,0.42 0.63,0.42 0.21,0.21 0.42,0.42 0.63,0.42 0.21,0.21 0.42,0.42 0.63,0.42 1.88,1.46 1.88,0.83 3.75,2.92 4.8,5.01 9.39,10.64 9.39,17.1 0,4.38 -2.09,7.93 -3.75,11.05l-6.67 13.56c8.34,-0.21 9.8,-2.29 15.85,-5.84l8.97 -11.68c11.68,-16.89 2.29,-34 -9.39,-40.46l-7.3 -3.75c-0.21,0 -0.63,-0.21 -0.83,-0.21 -0.21,0 -0.63,-0.21 -0.83,-0.21 -0.21,0 -0.63,-0.21 -0.83,-0.21l-34.83 -13.35c-13.77,-6.26 -12.1,-22.11 -20.86,-12.72 -2.29,2.29 -4.59,4.38 -4.38,7.72l-0.03 -0.01z"/>
   <path class="fil0" d="M1035.02 26.69l-3.34 1.25c-3.96,1.46 -3.96,2.29 -6.67,3.55 -3.75,1.88 -20.86,2.29 -22.94,27.95 -0.63,6.88 1.88,16.69 6.47,22.53l8.34 7.09c3.13,2.92 7.3,3.96 12.51,4.17 -1.67,-7.3 -10.22,-9.59 -10.22,-23.36 0,-9.39 -1.46,-14.18 10.22,-20.44 6.67,-3.75 11.26,-7.3 16.69,-7.51 8.13,-0.42 18.35,-1.04 23.78,3.34 1.25,1.04 0.83,0.83 2.29,2.09 2.5,1.88 2.92,1.67 5.01,3.55 -1.25,2.92 -0.42,2.09 -1.25,5.21 -1.88,8.55 2.29,6.47 8.13,3.13 4.59,-2.5 4.17,0.21 6.26,-5.01 3.55,-8.76 5.63,-7.51 -0.63,-18.56 -7.09,-12.72 -5.84,-3.13 -1.88,-17.31 1.67,-5.63 0.42,-6.26 -0.83,-10.43 -2.29,-6.67 -0.21,-5.63 -6.05,-7.93l-10.43 10.01c-9.18,10.22 -22.32,10.01 -35.25,16.06l-0.21 0.62z"/>
   <path class="fil0" d="M81.97 832.71c-0.21,-6.26 0.21,-4.38 -10.85,-10.22 -1.04,-0.63 -3.55,-1.25 -4.8,-1.25 -2.09,0 -8.97,0.42 -13.14,0.63 -5.01,0.42 -6.67,2.09 -10.01,3.34 -10.01,4.17 -14.6,0 -22.11,-0.63 -8.55,-0.63 -18.77,-1.46 -21.07,5.01 5.63,4.17 4.17,0 9.39,3.75l16.06 15.02c0.83,1.25 0.83,2.29 1.67,3.96 2.71,5.21 2.92,1.46 5.42,7.93 2.71,7.3 6.26,12.72 14.39,16.48 7.51,3.55 2.09,2.5 7.09,5.01l25.65 4.8c21.07,-0.42 17.52,-2.71 28.57,-6.88 5.84,-2.09 12.93,-5.84 13.56,-15.23 -6.47,0.21 -12.31,4.8 -17.31,6.88 -5.63,2.29 -10.22,1.46 -17.52,1.67 -9.39,0.42 -6.67,1.46 -14.39,-1.88 -10.64,-4.59 -15.64,-8.55 -18.77,-18.77 -2.71,-8.76 1.25,-14.18 7.51,-18.15 14.18,-8.97 7.72,-2.09 20.44,-2.09l0.22 0.62z"/>
   <path class="fil0" d="M83.43 787.03c-13.77,1.25 -13.35,1.46 -23.99,-5.21 -3.13,-2.09 -2.09,1.04 -3.96,-5.01 -3.75,-11.68 2.09,-18.35 10.64,-24.61 3.34,-2.29 7.51,-4.8 13.14,-5.84 17.94,-3.13 13.97,-0.21 24.61,1.46 13.35,2.09 9.59,4.59 21.07,6.47 -1.46,-7.09 -5.42,-7.51 -9.59,-10.43 -11.05,-8.13 -1.67,-1.67 -11.89,-6.88 -9.8,-4.8 -30.45,-3.55 -40.25,-0.83 -1.25,0.42 -1.25,0.42 -2.71,0.63l-7.51 2.71c-6.26,3.55 -2.29,3.13 -8.13,6.05l-3.34 2.5c-12.31,12.31 -4.59,8.97 -15.64,21.9 -1.25,1.46 -1.46,2.29 -2.71,3.96l-13.77 11.68c-2.71,1.25 -2.5,0.63 -5.21,1.46l-3.75 2.09c9.59,11.26 30.03,-0.42 45.26,6.05 7.72,3.34 12.31,3.96 21.48,2.71 7.72,-1.04 15.85,-2.5 16.27,-10.64l-0.02 -0.22z"/>
   <path class="fil0" d="M661.94 1350.53c3.75,0 3.75,-0.42 6.67,-1.25 -1.88,-6.47 -11.26,-10.85 -15.64,-10.64 -13.97,0.21 -33.16,-0.83 -37.54,13.77 -6.05,19.4 -0.42,14.18 -13.77,32.33 -0.83,1.25 -2.09,3.13 -3.34,4.38 -2.09,1.88 -2.09,1.46 -4.59,3.13 -3.55,2.5 -5.21,4.59 -8.13,7.51 2.92,0.83 9.18,0.21 12.31,-1.25 2.92,-1.25 2.5,-1.88 4.38,-3.34 6.26,-5.01 11.05,-4.59 15.85,-7.51 10.43,-6.47 6.88,-9.8 14.39,-15.43 3.55,-2.71 3.34,-5.01 5.84,-8.55 7.51,-11.05 11.68,-12.51 23.99,-12.72l-0.42 -0.43z"/>
   <path class="fil0" d="M1565.14 1357.2c1.67,2.5 2.92,4.17 4.17,6.88 6.47,13.35 4.8,9.59 12.31,17.94 4.59,5.21 1.88,3.75 8.34,5.84 7.72,2.5 14.6,11.68 29.82,12.51 -5.63,-7.93 -22.53,-13.97 -28.16,-36.92 -5.84,-22.94 -0.21,-24.61 -22.53,-26.28 -4.17,-0.42 -8.34,-1.88 -13.56,-1.88l-17.94 7.72c-0.42,0.63 -3.96,5.01 2.92,3.96l9.18 0c9.59,2.09 4.8,0.42 10.01,4.17 3.75,2.71 2.92,2.09 5.21,5.63l0.23 0.43z"/>
   <path class="fil0" d="M1851.68 1136.14c-9.59,-5.01 -10.22,-18.15 -18.35,-8.13 -3.75,4.8 -1.67,6.47 -1.88,13.35 -0.21,4.59 0.42,8.55 3.75,11.89 6.47,6.67 10.43,2.92 26.49,7.3 6.05,1.67 8.76,1.67 15.43,2.29 10.22,0.83 26.9,11.47 35.04,15.23 -0.42,-7.09 -9.59,-16.48 -13.77,-20.44 -12.93,-12.51 -31.49,-13.35 -46.72,-21.48l0.01 -0.01z"/>
   <path class="fil0" d="M1866.91 476.3c1.04,-2.71 0.63,-3.96 1.25,-7.3 2.92,-16.89 25.44,-14.18 37.33,-22.53 7.72,-5.42 15.02,-5.84 20.02,-12.31 4.59,-6.05 14.18,-10.43 13.97,-19.19 -5.63,2.92 -6.26,5.63 -11.89,8.34 -7.3,3.55 -20.65,9.18 -29.2,11.05 -17.1,3.96 -24.19,1.25 -34,6.26 -2.71,1.46 -4.38,1.67 -6.05,3.96 -5.01,6.47 -8.34,30.66 8.34,31.91l0.23 -0.19z"/>
   <path class="fil0" d="M604.37 202.49c-3.34,-2.09 -13.14,-5.84 -17.1,-5.63 1.67,10.22 6.26,1.04 16.48,20.44 12.1,22.53 0,36.29 31.49,39.42 5.63,0.63 13.14,0.21 16.48,-1.04 12.72,-4.8 10.43,-2.5 10.64,-6.88 -7.3,-4.38 -14.81,2.29 -24.19,-8.76 -6.88,-8.13 -5.21,-3.75 -7.72,-8.76 -7.3,-14.39 -2.71,-14.6 -22.11,-25.65 -0.42,-0.21 -2.09,-1.25 -2.5,-1.46 -1.88,-1.25 -1.46,-1.04 -1.67,-1.46l0.2 -0.22z"/>
   <path class="fil0" d="M266.94 1187.66c7.51,-0.63 6.26,-7.72 23.99,-15.02 16.06,-6.88 16.27,-7.72 31.08,-8.13 6.47,-0.21 17.1,0 22.11,-3.55 0.21,0 2.29,-1.88 2.5,-2.09 2.09,-1.88 2.71,-1.88 3.55,-5.42 0.42,-1.88 2.5,-15.02 2.29,-17.1 -0.63,-4.38 -7.3,-14.81 -11.26,-7.93 -2.09,3.96 1.04,5.01 -3.55,9.59 -6.47,6.26 -13.97,9.18 -22.94,11.68 -3.13,0.83 -4.8,1.04 -7.51,1.46 -9.39,1.67 -2.71,1.04 -7.72,4.38 -0.83,0.42 -2.5,1.25 -3.13,1.46 -11.26,4.38 -15.85,13.14 -22.32,19.81 -0.21,0.21 -0.42,0.42 -0.63,0.63 -3.34,3.34 -5.01,4.38 -6.47,10.22l0.01 0.01z"/>
   <path class="fil0" d="M1567.02 257.55c32.33,-0.63 21.9,-3.75 30.87,-27.74 7.51,-19.61 11.89,-18.35 27.53,-32.74 -3.34,0.63 -11.26,2.5 -14.39,4.17 -6.47,3.55 2.71,0.42 -11.68,6.05 -2.92,1.25 -1.46,0.42 -3.55,2.29 -5.84,5.42 -1.46,1.25 -6.67,4.38 -6.67,3.96 -6.26,6.47 -8.76,10.43l-5.01 7.3c0,0 -0.21,0.42 -0.42,0.42l-6.88 10.64c-7.93,8.55 -20.02,5.42 -25.65,8.97 2.5,3.96 5.42,5.01 10.22,6.47 8.55,2.29 7.3,0 14.39,-0.21l0 -0.43z"/>
   <path class="fil0" d="M2119.04 832.71c0.21,-6.26 -0.21,-4.38 10.85,-10.22 1.04,-0.63 3.55,-1.25 4.8,-1.25 2.09,0 8.97,0.42 13.14,0.63 5.01,0.42 6.67,2.09 10.01,3.34 10.01,4.17 14.6,0 22.11,-0.63 8.55,-0.63 18.77,-1.46 20.86,5.01 -5.63,4.17 -4.17,0 -9.39,3.75l-16.06 15.02c-0.83,1.25 -0.83,2.29 -1.67,3.96 -2.5,5.21 -2.92,1.46 -5.42,7.93 -2.71,7.3 -6.26,12.72 -14.39,16.48 -7.51,3.55 -2.09,2.5 -7.09,5.01l-25.65 4.8c-21.07,-0.42 -17.52,-2.71 -28.57,-6.88 -5.84,-2.09 -12.93,-5.84 -13.56,-15.23 6.47,0.21 12.31,4.8 17.31,6.88 5.63,2.29 10.22,1.46 17.52,1.67 9.39,0.42 6.67,1.46 14.39,-1.88 10.64,-4.59 15.64,-8.55 18.77,-18.77 2.71,-8.76 -1.25,-14.18 -7.51,-18.15 -14.18,-8.97 -7.72,-2.09 -20.44,-2.09l-0.01 0.62z"/>
   <path class="fil0" d="M2117.58 787.03c13.77,1.25 13.35,1.46 23.99,-5.21 3.13,-2.09 2.09,1.04 3.96,-5.01 3.75,-11.68 -2.09,-18.35 -10.64,-24.61 -3.34,-2.29 -7.51,-4.8 -13.14,-5.84 -17.94,-3.13 -13.97,-0.21 -24.61,1.46 -13.35,2.09 -9.39,4.59 -21.07,6.47 1.46,-7.09 5.42,-7.51 9.59,-10.43 11.05,-8.13 1.67,-1.67 11.89,-6.88 9.8,-4.8 30.45,-3.55 40.25,-0.83 1.25,0.42 1.25,0.42 2.71,0.63l7.51 2.71c6.26,3.55 2.29,3.13 8.13,6.05l3.34 2.5c12.31,12.31 4.59,8.97 15.64,21.9 1.25,1.46 1.46,2.29 2.71,3.96l13.77 11.68c2.71,1.25 2.5,0.63 5.21,1.46l3.75 2.09c-9.59,11.26 -30.03,-0.42 -45.26,6.05 -7.72,3.34 -12.31,3.96 -21.48,2.71 -7.72,-1.04 -15.85,-2.5 -16.27,-10.64l0.02 -0.22z"/>
   <path class="fil1" d="M614.8 703.83l0 64.85c0,7.51 0.42,14.18 1.46,20.02 0.83,6.05 2.29,11.47 4.17,16.69l-31.08 0c1.88,-5.21 3.34,-10.85 4.17,-16.69 0.83,-5.84 1.46,-12.51 1.46,-20.02l0 -89.88 -13.77 -15.02 30.66 0c0.21,3.34 2.09,7.51 5.63,12.51 0.21,0.21 0.21,0.42 0.42,0.63l40.67 56.3 41.09 -56.3c2.29,-3.13 3.96,-5.63 4.59,-7.51 0.83,-1.88 1.25,-3.75 1.46,-5.63l28.99 0c-3.96,3.55 -7.09,8.34 -9.18,14.6 -2.09,6.26 -3.34,13.35 -3.34,21.27l0 68.82c0,7.51 0.42,14.18 1.46,20.02 0.83,6.05 2.29,11.47 4.17,16.69l-31.28 0c1.88,-5.42 3.34,-11.05 4.38,-17.1 1.04,-6.05 1.46,-12.51 1.46,-19.81l0 -64.65 -44.01 58.81 -43.17 -59.01 -0.41 0.41zm151.62 43.17l36.29 0 0 -1.67c0,-8.97 -1.46,-15.85 -4.38,-20.23 -2.92,-4.59 -7.09,-6.67 -12.72,-6.67 -5.84,0 -10.43,2.29 -13.56,7.09 -3.13,4.8 -5.01,11.89 -5.63,21.48zm0 11.89c0,9.8 1.88,17.52 5.63,22.94 3.75,5.42 9.18,8.13 16.06,8.13 3.13,0 6.88,-0.63 10.85,-1.88 4.17,-1.25 8.97,-3.13 14.39,-5.84l-8.55 20.65c-3.75,1.25 -7.3,2.29 -10.85,2.92 -3.55,0.63 -6.88,1.04 -10.01,1.04 -11.89,0 -21.07,-4.38 -27.53,-12.93 -6.26,-8.55 -9.59,-21.07 -9.59,-37.33 0,-15.43 3.34,-27.74 10.01,-36.92 6.67,-9.18 15.64,-13.77 26.9,-13.77 10.43,0 18.15,3.75 23.36,11.47 5.21,7.51 7.93,18.77 7.93,33.79 0,2.09 0,3.75 0,4.8 0,1.04 0,2.09 -0.21,3.13l-48.6 0 0.21 -0.2zm70.48 -27.32c0,-4.59 -0.42,-8.97 -1.25,-13.14 -0.83,-3.96 -2.09,-7.93 -3.55,-11.47l27.74 0c-1.67,3.55 -2.92,7.3 -3.75,11.47 -0.83,3.96 -1.25,8.34 -1.25,13.14l0 49.01c0,4.8 0.42,9.18 1.25,13.35 0.83,3.96 2.09,7.93 3.75,11.47l-27.74 0c1.67,-3.55 2.92,-7.3 3.55,-11.47 0.83,-4.17 1.25,-8.55 1.25,-13.35l0 -49.01zm-3.96 -52.55c0,-3.96 1.25,-7.3 3.75,-10.01 2.5,-2.71 5.63,-3.96 9.18,-3.96 3.75,0 6.67,1.25 9.18,3.96 2.5,2.71 3.75,6.05 3.75,10.01 0,3.96 -1.25,7.3 -3.75,10.01 -2.5,2.71 -5.63,3.96 -9.18,3.96 -3.55,0 -6.67,-1.46 -9.18,-4.17 -2.5,-2.71 -3.75,-6.05 -3.75,-9.8zm67.36 47.55c4.17,-8.34 7.93,-13.77 11.47,-16.69 3.34,-2.92 7.3,-4.38 12.1,-4.38 1.88,0 3.96,0.21 5.84,0.63 1.88,0.42 3.75,1.04 5.42,1.88l-3.55 23.15c-1.67,-2.71 -3.75,-4.8 -6.26,-6.26 -2.5,-1.46 -5.21,-2.09 -8.13,-2.09 -3.13,0 -6.05,0.63 -8.76,2.09 -2.71,1.25 -5.42,3.34 -7.93,6.26l0 49.64c0,4.8 0.42,9.18 1.25,13.35 0.83,3.96 2.09,7.93 3.75,11.47l-27.74 0c1.67,-3.55 2.92,-7.3 3.55,-11.47 0.83,-4.17 1.25,-8.55 1.25,-13.35l0 -49.01c0,-4.59 -0.42,-8.97 -1.25,-12.93 -0.83,-3.96 -2.09,-7.93 -3.75,-11.47l22.94 0 0 19.4 -0.2 -0.22zm55.88 20.44l36.29 0 0 -1.67c0,-8.97 -1.46,-15.85 -4.38,-20.23 -2.92,-4.59 -7.09,-6.67 -12.72,-6.67 -5.84,0 -10.43,2.29 -13.56,7.09 -3.13,4.8 -5.01,11.89 -5.63,21.48zm0 11.89c0,9.8 1.88,17.52 5.63,22.94 3.75,5.42 9.18,8.13 16.06,8.13 3.13,0 6.88,-0.63 10.85,-1.88 4.17,-1.25 8.97,-3.13 14.39,-5.84l-8.55 20.65c-3.75,1.25 -7.3,2.29 -10.85,2.92 -3.55,0.63 -6.88,1.04 -10.01,1.04 -11.89,0 -21.07,-4.38 -27.53,-12.93 -6.26,-8.55 -9.59,-21.07 -9.59,-37.33 0,-15.43 3.34,-27.74 10.01,-36.92 6.67,-9.18 15.64,-13.77 26.9,-13.77 10.43,0 18.15,3.75 23.36,11.47 5.21,7.51 7.93,18.77 7.93,33.79 0,2.09 0,3.75 0,4.8 0,1.04 0,2.09 -0.21,3.13l-48.6 0 0.21 -0.2zm147.03 -55.26l0 64.85c0,7.51 0.42,14.18 1.46,20.02 0.83,6.05 2.29,11.47 4.17,16.69l-31.08 0c1.88,-5.21 3.34,-10.85 4.17,-16.69 0.83,-5.84 1.46,-12.51 1.46,-20.02l0 -89.88 -13.77 -15.02 30.66 0c0.21,3.34 2.09,7.51 5.63,12.51 0.21,0.21 0.42,0.42 0.42,0.63l40.67 56.3 41.09 -56.3c2.29,-3.13 3.96,-5.63 4.59,-7.51 0.83,-1.88 1.25,-3.75 1.46,-5.63l28.99 0c-3.96,3.55 -7.09,8.34 -9.18,14.6 -2.09,6.26 -3.34,13.35 -3.34,21.27l0 68.82c0,7.51 0.42,14.18 1.46,20.02 0.83,6.05 2.29,11.47 4.17,16.69l-31.28 0c1.88,-5.42 3.34,-11.05 4.38,-17.1 1.04,-6.05 1.46,-12.51 1.46,-19.81l0 -64.65 -44.01 58.81 -43.17 -59.01 -0.41 0.41zm184.14 88c5.01,-3.13 8.97,-7.93 11.89,-13.97 2.92,-6.26 4.38,-12.93 4.38,-20.23 0,-10.64 -2.71,-19.61 -8.13,-26.9 -5.42,-7.3 -11.89,-10.85 -19.4,-10.85 -6.26,0 -11.68,3.13 -15.85,9.39 -4.17,6.26 -6.47,14.18 -6.47,23.99 0,11.47 2.92,20.86 8.97,27.95 6.05,7.3 13.77,10.85 23.36,10.85l1.25 0 0 -0.23zm-11.05 -85.92c13.77,0 24.61,4.38 32.33,12.93 7.93,8.55 11.89,20.44 11.89,35.25 0,8.76 -1.46,16.48 -4.17,23.15 -2.71,6.67 -7.09,12.51 -12.72,17.52 -5.42,3.96 -10.64,7.09 -15.43,8.97 -4.8,1.88 -9.18,2.92 -13.35,2.92 -3.96,0 -7.93,-0.63 -11.89,-2.09 -3.96,-1.46 -7.72,-3.55 -11.05,-6.26 -5.42,-4.17 -9.59,-9.59 -12.51,-16.48 -2.92,-6.88 -4.38,-14.39 -4.38,-22.73 0.21,-15.23 3.96,-27.95 11.89,-38.17 7.72,-10.22 17.73,-15.23 29.62,-15.23l-0.23 0.22zm82.79 20.86c4.17,-8.34 7.93,-13.77 11.47,-16.69 3.34,-2.92 7.3,-4.38 12.1,-4.38 1.88,0 3.96,0.21 5.84,0.63 1.88,0.42 3.75,1.04 5.42,1.88l-3.55 23.15c-1.67,-2.71 -3.75,-4.8 -6.26,-6.26 -2.5,-1.46 -5.21,-2.09 -8.13,-2.09 -3.13,0 -6.05,0.63 -8.76,2.09 -2.71,1.25 -5.42,3.34 -7.93,6.26l0 49.64c0,4.8 0.42,9.18 1.25,13.35 0.83,3.96 2.09,7.93 3.75,11.47l-27.74 0c1.67,-3.55 2.92,-7.3 3.55,-11.47 0.83,-4.17 1.25,-8.55 1.25,-13.35l0 -49.01c0,-4.59 -0.42,-8.97 -1.25,-12.93 -0.83,-3.96 -2.09,-7.93 -3.75,-11.47l22.94 0 0 19.4 -0.2 -0.22zm80.91 63.19l0 -27.95 -23.15 0c-1.04,2.71 -1.88,5.42 -2.29,7.72 -0.63,2.5 -0.83,4.8 -0.83,7.09 0,4.59 1.46,8.13 4.17,10.43 2.71,2.29 6.88,3.55 12.31,3.55 1.25,0 2.71,0 4.17,-0.21 1.46,-0.21 3.34,-0.42 5.42,-0.63l0.2 0zm-36.29 -62.15l4.59 -17.94c3.75,-1.25 7.3,-2.09 10.85,-2.71 3.34,-0.63 6.67,-1.04 10.01,-1.04 9.18,0 16.06,2.5 20.86,7.72 4.8,5.21 7.3,12.72 7.3,22.53l0 44.84c0,4.8 0.42,9.18 1.25,13.35 0.83,3.96 2.09,7.93 3.55,11.47l-21.9 0 0 -13.97c-3.34,2.71 -6.05,5.01 -8.55,7.09 -2.29,2.09 -4.59,4.17 -6.47,6.26 -0.63,0.21 -1.25,0.42 -2.09,0.63 -0.83,0.21 -2.09,0.21 -3.75,0.21 -6.88,0 -12.51,-2.29 -17.31,-6.88 -4.59,-4.59 -7.09,-10.22 -7.09,-16.89 0,-6.88 2.5,-12.51 7.51,-17.31 5.01,-4.8 17.52,-11.47 37.54,-20.23 0,-0.42 0,-1.04 0,-1.67 0,-0.83 0,-1.25 0,-1.67 0,-6.67 -1.46,-11.47 -4.38,-15.02 -2.92,-3.34 -7.3,-5.01 -12.93,-5.01 -2.92,0 -6.05,0.63 -9.18,1.67 -3.13,1.04 -6.47,2.92 -10.22,5.21l0.41 -0.64zm93.22 19.4l36.29 0 0 -1.67c0,-8.97 -1.46,-15.85 -4.38,-20.23 -2.92,-4.59 -7.09,-6.67 -12.72,-6.67 -5.84,0 -10.43,2.29 -13.56,7.09 -3.13,4.8 -5.01,11.89 -5.63,21.48zm0 11.89c0,9.8 1.88,17.52 5.63,22.94 3.75,5.42 9.18,8.13 16.06,8.13 3.13,0 6.88,-0.63 10.85,-1.88 4.17,-1.25 8.97,-3.13 14.39,-5.84l-8.55 20.65c-3.75,1.25 -7.3,2.29 -10.85,2.92 -3.55,0.63 -6.88,1.04 -10.01,1.04 -11.89,0 -21.07,-4.38 -27.53,-12.93 -6.26,-8.55 -9.39,-21.07 -9.39,-37.33 0,-15.43 3.34,-27.74 10.01,-36.92 6.67,-9.18 15.64,-13.77 26.9,-13.77 10.43,0 18.15,3.75 23.36,11.47 5.21,7.51 7.93,18.77 7.93,33.79 0,2.09 0,3.75 0,4.8 0,1.04 0,2.09 -0.21,3.13l-48.6 0 0.01 -0.2zm65.48 44.42l1.25 -26.7c3.34,5.84 7.09,10.22 11.26,13.35 4.17,3.13 8.34,4.59 12.72,4.59 3.55,0 6.47,-1.25 8.76,-3.34 2.29,-2.29 3.34,-5.21 3.34,-8.97 0,-5.63 -4.38,-11.05 -13.14,-16.69 -2.09,-1.25 -3.75,-2.5 -5.01,-3.13 -5.84,-3.96 -10.22,-8.13 -12.93,-12.51 -2.71,-4.38 -3.96,-9.39 -3.96,-14.81 0,-8.76 3.13,-15.85 9.39,-21.27 6.26,-5.42 14.6,-8.13 24.82,-8.13 2.92,0 6.05,0.42 8.97,1.04 2.92,0.63 6.05,1.67 9.18,2.92l-0.21 18.98c-3.13,-3.34 -6.05,-5.84 -9.39,-7.3 -3.13,-1.67 -6.47,-2.5 -10.01,-2.5 -3.96,0 -7.09,1.25 -9.59,3.34 -2.29,2.29 -3.55,5.42 -3.55,9.18 0,5.63 4.59,11.26 13.56,16.69 1.67,0.83 2.71,1.67 3.55,2.09 6.47,3.96 11.05,8.13 13.77,12.51 2.71,4.38 4.17,9.39 4.17,15.02 0,8.76 -3.34,15.85 -9.8,21.07 -6.47,5.21 -15.23,7.93 -26.28,7.93 -3.13,0 -6.47,-0.21 -10.01,-0.83 -3.55,-0.63 -7.3,-1.46 -11.47,-2.71l0.61 0.18z"/>
   <path class="fil1" d="M751.82 880.47l0 36.71c0.42,0 0.83,0.21 1.25,0.21 0.42,0 1.04,0 1.88,0 5.63,0 10.01,-1.46 13.56,-4.59 3.34,-3.13 5.21,-7.09 5.21,-11.89 0,-5.01 -2.09,-9.39 -6.05,-13.14 -3.96,-3.75 -9.18,-6.05 -15.64,-7.09l-0.21 -0.21zm0 -34.2l0 31.91c5.63,-0.83 10.01,-2.71 13.14,-5.84 3.13,-3.13 4.8,-7.09 4.8,-11.68 0,-4.17 -1.67,-7.51 -5.01,-10.22 -3.34,-2.71 -7.72,-4.17 -12.93,-4.17zm-18.15 78.82c1.46,-3.34 2.29,-6.88 3.13,-10.43 0.63,-3.75 1.04,-7.72 1.04,-12.1l0 -41.71c0,-4.38 -0.42,-8.55 -1.04,-12.31 -0.63,-3.75 -1.67,-7.09 -3.13,-10.43l15.64 0c5.63,0 10.43,0.21 14.39,0.83 3.75,0.63 6.88,1.46 9.18,2.71 3.96,2.09 7.09,4.8 9.18,7.93 2.09,3.13 3.34,6.67 3.34,10.43 0,3.96 -1.25,7.72 -3.34,10.85 -2.29,3.34 -5.63,5.84 -9.8,7.93 5.63,2.92 10.01,6.26 12.93,10.01 2.92,3.75 4.38,7.72 4.38,12.31 0,7.3 -3.34,13.14 -9.8,17.52 -6.47,4.17 -15.43,6.47 -26.7,6.47l-18.98 0 -0.42 -0.01zm101.98 -8.34c3.55,-1.88 6.26,-4.8 8.34,-8.55 2.09,-3.75 3.13,-7.93 3.13,-12.51 0,-6.47 -1.88,-12.1 -5.63,-16.48 -3.75,-4.38 -8.34,-6.67 -13.56,-6.67 -4.59,0 -8.34,1.88 -11.26,5.84 -2.92,3.75 -4.59,8.76 -4.59,14.81 0,7.09 2.09,12.72 6.26,17.31 4.17,4.38 9.8,6.67 16.48,6.67l0.83 0 0 -0.42zm-7.92 -52.75c9.59,0 17.31,2.71 22.94,7.93 5.63,5.21 8.34,12.51 8.34,21.69 0,5.42 -1.04,10.22 -2.92,14.18 -1.88,4.17 -5.01,7.72 -8.97,10.85 -3.96,2.5 -7.51,4.38 -10.85,5.63 -3.34,1.25 -6.47,1.88 -9.39,1.88 -2.71,0 -5.63,-0.42 -8.34,-1.25 -2.71,-0.83 -5.42,-2.09 -7.93,-3.75 -3.96,-2.5 -6.88,-5.84 -8.97,-10.01 -2.09,-4.17 -3.13,-8.76 -3.13,-13.97 0,-9.39 2.92,-17.31 8.34,-23.36 5.42,-6.26 12.51,-9.39 21.07,-9.39l-0.19 -0.43zm61.3 -25.87c-1.04,3.13 -1.67,6.47 -2.29,10.22 -0.42,3.75 -0.63,8.13 -0.63,12.72l0 49.01c0,3.13 0.21,5.84 0.83,8.34 0.63,2.5 1.46,4.8 2.5,6.88l-19.4 0c1.04,-2.09 2.09,-4.38 2.5,-7.09 0.63,-2.5 0.83,-5.21 0.83,-8.13l0 -52.97c0,-2.92 -0.21,-5.63 -0.83,-8.13 -0.63,-2.5 -1.46,-4.8 -2.5,-7.09 2.92,-0.63 6.05,-1.25 9.18,-1.88 3.13,-0.63 6.47,-1.25 9.8,-1.88l0.01 0.01zm48.39 78.62c3.55,-1.88 6.26,-4.8 8.34,-8.55 2.09,-3.75 3.13,-7.93 3.13,-12.51 0,-6.47 -1.88,-12.1 -5.63,-16.48 -3.75,-4.38 -8.34,-6.67 -13.56,-6.67 -4.59,0 -8.34,1.88 -11.26,5.84 -2.92,3.75 -4.59,8.76 -4.59,14.81 0,7.09 2.09,12.72 6.26,17.31 4.17,4.38 9.8,6.67 16.48,6.67l0.83 0 0 -0.42zm-7.92 -52.75c9.59,0 17.31,2.71 22.94,7.93 5.63,5.21 8.34,12.51 8.34,21.69 0,5.42 -1.04,10.22 -2.92,14.18 -1.88,4.17 -5.01,7.72 -8.97,10.85 -3.96,2.5 -7.51,4.38 -10.85,5.63 -3.34,1.25 -6.47,1.88 -9.39,1.88 -2.71,0 -5.63,-0.42 -8.34,-1.25 -2.71,-0.83 -5.42,-2.09 -7.93,-3.75 -3.96,-2.5 -6.88,-5.84 -8.97,-10.01 -2.09,-4.17 -3.13,-8.76 -3.13,-13.97 0,-9.39 2.92,-17.31 8.34,-23.36 5.42,-6.26 12.51,-9.39 21.07,-9.39l-0.19 -0.43zm42.34 59.84l0.83 -16.48c2.29,3.55 5.01,6.26 7.93,8.13 2.92,1.88 5.84,2.92 8.97,2.92 2.5,0 4.59,-0.63 6.26,-2.09 1.67,-1.46 2.29,-3.34 2.29,-5.42 0,-3.34 -3.13,-6.88 -9.18,-10.22 -1.46,-0.83 -2.71,-1.46 -3.55,-1.88 -4.17,-2.5 -7.3,-5.01 -9.18,-7.72 -1.88,-2.71 -2.92,-5.63 -2.92,-9.18 0,-5.42 2.29,-9.59 6.67,-13.14 4.38,-3.34 10.22,-5.01 17.52,-5.01 2.09,0 4.17,0.21 6.26,0.63 2.09,0.42 4.38,1.04 6.47,1.88l-0.21 11.68c-2.09,-2.09 -4.38,-3.55 -6.67,-4.59 -2.29,-1.04 -4.59,-1.46 -7.09,-1.46 -2.92,0 -5.01,0.63 -6.67,2.09 -1.67,1.46 -2.5,3.34 -2.5,5.63 0,3.55 3.13,6.88 9.59,10.22 1.04,0.63 1.88,1.04 2.5,1.25 4.59,2.5 7.72,5.01 9.8,7.72 1.88,2.71 2.92,5.84 2.92,9.18 0,5.42 -2.29,9.8 -6.88,12.93 -4.59,3.13 -10.85,4.8 -18.56,4.8 -2.09,0 -4.59,-0.21 -7.09,-0.63 -2.5,-0.42 -5.21,-0.83 -8.13,-1.67l0.62 0.43zm102.6 -34.62l25.65 0 0 -1.04c0,-5.63 -1.04,-9.8 -3.13,-12.51 -2.09,-2.71 -5.01,-4.17 -8.97,-4.17 -4.17,0 -7.3,1.46 -9.59,4.38 -2.29,2.92 -3.55,7.3 -3.96,13.14l0 0.2zm0 7.3c0,6.05 1.25,10.64 3.96,13.97 2.71,3.34 6.47,5.01 11.26,5.01 2.29,0 4.8,-0.42 7.72,-1.25 2.92,-0.83 6.26,-1.88 10.22,-3.55l-6.05 12.72c-2.71,0.83 -5.21,1.46 -7.72,1.88 -2.5,0.42 -4.8,0.63 -7.09,0.63 -8.55,0 -15.02,-2.71 -19.4,-7.93 -4.38,-5.21 -6.67,-12.93 -6.67,-22.94 0,-9.39 2.29,-17.1 7.09,-22.73 4.8,-5.63 11.05,-8.34 18.98,-8.34 7.3,0 12.72,2.29 16.48,7.09 3.75,4.59 5.63,11.68 5.63,20.65 0,1.25 0,2.29 0,2.92 0,0.63 0,1.25 -0.21,1.88l-34.2 0 0 -0.01zm85.29 28.57c1.46,-3.34 2.29,-6.88 3.13,-10.43 0.63,-3.75 1.04,-7.72 1.04,-12.1l0 -41.71c0,-4.38 -0.42,-8.55 -1.04,-12.31 -0.63,-3.75 -1.67,-7.09 -3.13,-10.43l10.85 0c7.09,0 12.93,0.42 17.73,1.04 4.8,0.63 9.18,1.67 13.14,3.13 8.76,3.34 15.85,8.55 21.07,15.64 5.21,7.09 7.72,15.02 7.72,23.78 0,8.34 -1.88,15.64 -5.84,22.32 -3.96,6.67 -9.39,11.68 -16.48,15.43 -3.96,2.09 -8.34,3.55 -13.35,4.38 -5.01,1.04 -11.26,1.46 -18.98,1.46l-15.85 0 -0.01 -0.2zm18.15 -8.13l0.63 0c2.92,0 5.63,-0.21 8.13,-0.83 2.71,-0.63 5.21,-1.46 7.51,-2.71 6.26,-2.92 11.26,-7.3 14.81,-12.72 3.55,-5.63 5.42,-11.68 5.42,-18.35 0,-9.59 -3.34,-17.73 -9.8,-24.19 -6.67,-6.47 -15.43,-10.43 -26.49,-11.68l0 70.49 -0.21 -0.02zm99.68 -0.21c3.55,-1.88 6.26,-4.8 8.34,-8.55 2.09,-3.75 3.13,-7.93 3.13,-12.51 0,-6.47 -1.88,-12.1 -5.63,-16.48 -3.75,-4.38 -8.34,-6.67 -13.56,-6.67 -4.59,0 -8.34,1.88 -11.26,5.84 -2.92,3.75 -4.59,8.76 -4.59,14.81 0,7.09 2.09,12.72 6.26,17.31 4.17,4.38 9.8,6.67 16.48,6.67l0.83 0 0 -0.42zm-7.92 -52.75c9.59,0 17.31,2.71 22.94,7.93 5.63,5.21 8.34,12.51 8.34,21.69 0,5.42 -1.04,10.22 -2.92,14.18 -1.88,4.17 -5.01,7.72 -8.97,10.85 -3.96,2.5 -7.51,4.38 -10.85,5.63 -3.34,1.25 -6.47,1.88 -9.39,1.88 -2.71,0 -5.63,-0.42 -8.34,-1.25 -2.71,-0.83 -5.42,-2.09 -7.93,-3.75 -3.96,-2.5 -6.88,-5.84 -8.97,-10.01 -2.09,-4.17 -3.13,-8.76 -3.13,-13.97 0,-9.39 2.92,-17.31 8.34,-23.36 5.42,-6.26 12.51,-9.39 21.07,-9.39l-0.19 -0.43zm81.95 60.89c-1.46,0.42 -2.71,0.63 -4.17,0.83 -1.46,0.21 -2.92,0.21 -4.8,0.21 -9.8,0 -17.73,-2.71 -23.57,-8.13 -5.84,-5.42 -8.76,-12.51 -8.76,-21.48 0,-9.59 3.34,-17.31 9.8,-23.57 6.47,-6.05 15.02,-9.18 25.44,-9.18 1.88,0 3.96,0.21 6.05,0.42 2.09,0.21 4.38,0.63 6.88,1.25l-1.04 13.77c-2.29,-2.5 -4.59,-4.17 -7.09,-5.42 -2.29,-1.04 -5.01,-1.67 -7.72,-1.67 -5.63,0 -10.22,1.88 -13.56,5.63 -3.34,3.75 -5.01,8.97 -5.01,15.64 0,7.3 1.88,12.93 5.84,17.1 3.75,3.96 9.18,6.05 16.06,6.05 2.09,0 4.38,-0.21 6.67,-0.63 2.29,-0.42 4.38,-1.25 6.67,-2.09l-7.51 10.85 -0.18 0.42zm27.53 -35.67l25.65 0 0 -1.04c0,-5.63 -1.04,-9.8 -3.13,-12.51 -2.09,-2.71 -5.01,-4.17 -8.97,-4.17 -4.17,0 -7.3,1.46 -9.59,4.38 -2.29,2.92 -3.55,7.3 -3.96,13.14l0 0.2zm0 7.3c0,6.05 1.25,10.64 3.96,13.97 2.71,3.34 6.47,5.01 11.26,5.01 2.29,0 4.8,-0.42 7.72,-1.25 2.92,-0.83 6.26,-1.88 10.22,-3.55l-6.05 12.72c-2.71,0.83 -5.21,1.46 -7.72,1.88 -2.5,0.42 -4.8,0.63 -7.09,0.63 -8.55,0 -15.02,-2.71 -19.4,-7.93 -4.38,-5.21 -6.67,-12.93 -6.67,-22.94 0,-9.39 2.29,-17.1 7.09,-22.73 4.8,-5.63 11.05,-8.34 18.98,-8.34 7.3,0 12.72,2.29 16.48,7.09 3.75,4.59 5.63,11.68 5.63,20.65 0,1.25 0,2.29 0,2.92 0,0.63 0,1.25 -0.21,1.88l-34.2 0 0 -0.01zm46.3 27.32l0.83 -16.48c2.29,3.55 5.01,6.26 7.93,8.13 2.92,1.88 5.84,2.92 8.97,2.92 2.5,0 4.59,-0.63 6.26,-2.09 1.67,-1.46 2.29,-3.34 2.29,-5.42 0,-3.34 -3.13,-6.88 -9.18,-10.22 -1.46,-0.83 -2.71,-1.46 -3.55,-1.88 -4.17,-2.5 -7.3,-5.01 -9.18,-7.72 -1.88,-2.71 -2.92,-5.63 -2.92,-9.18 0,-5.42 2.29,-9.59 6.67,-13.14 4.38,-3.34 10.22,-5.01 17.52,-5.01 2.09,0 4.17,0.21 6.26,0.63 2.09,0.42 4.38,1.04 6.47,1.88l-0.21 11.68c-2.09,-2.09 -4.38,-3.55 -6.67,-4.59 -2.29,-1.04 -4.59,-1.46 -7.09,-1.46 -2.92,0 -5.01,0.63 -6.67,2.09 -1.67,1.46 -2.5,3.34 -2.5,5.63 0,3.55 3.13,6.88 9.59,10.22 1.04,0.63 1.88,1.04 2.5,1.25 4.59,2.5 7.72,5.01 9.8,7.72 1.88,2.71 2.92,5.84 2.92,9.18 0,5.42 -2.29,9.8 -6.88,12.93 -4.59,3.13 -10.85,4.8 -18.56,4.8 -2.09,0 -4.59,-0.21 -7.09,-0.63 -2.5,-0.42 -5.21,-0.83 -8.13,-1.67l0.62 0.43z"/>
   <path class="fil0" d="M1191.02 599.35c3.34,16.27 -48.8,21.69 -50.06,2.5 3.96,0.21 18.56,5.21 24.4,0.83 9.8,-7.3 6.26,-22.94 -4.59,-31.49 -23.78,-18.98 -57.55,-4.59 -49.64,11.89 1.25,3.96 8.97,5.42 12.31,-3.96 1.46,-3.13 1.04,-2.29 2.5,-3.75 8.34,-5.01 17.31,4.38 14.39,11.68 -4.17,12.72 -34.83,14.81 -38.17,-7.72 -1.67,-24.4 40.67,-27.95 56.3,-17.31 11.26,8.55 22.94,5.42 27.53,2.29 -0.83,5.84 -8.76,6.47 -14.81,7.3 6.88,7.51 4.38,4.59 14.39,10.85l28.78 16.69c8.34,3.96 8.97,4.8 18.35,4.38 2.71,1.25 -4.8,1.04 -3.96,2.71 1.46,2.71 11.89,8.13 19.81,7.51 32.12,2.5 41.3,-27.74 20.65,-26.28 -2.29,2.92 -2.29,8.97 -8.55,10.64 -10.01,2.5 -13.14,-6.26 -18.35,-7.3 -3.96,-0.83 -7.3,0.21 -10.01,0.63 -8.13,1.46 -15.23,-0.63 -18.56,-7.51 6.88,3.55 10.64,3.34 20.65,-0.42 59.64,-22.32 69.44,33.16 18.98,35.87 -7.51,1.25 -19.19,-2.09 -26.49,-4.8l-16.27 -6.67c-6.67,-2.71 -21.48,-12.93 -20.02,-8.55l0.43 -0.01z"/>
   <path class="fil0" d="M1003.94 599.35c-3.34,16.27 48.8,21.69 50.06,2.5 -3.96,0.21 -18.56,5.21 -24.4,0.83 -9.8,-7.3 -6.26,-22.94 4.59,-31.49 23.78,-18.98 57.55,-4.59 49.64,11.89 -1.25,3.96 -8.76,5.42 -12.31,-3.96 -1.46,-3.13 -1.04,-2.29 -2.5,-3.75 -8.34,-5.01 -17.31,4.38 -14.39,11.68 4.17,12.72 34.83,14.81 38.17,-7.72 1.67,-24.4 -40.67,-27.95 -56.3,-17.31 -11.26,8.55 -22.94,5.42 -27.53,2.29 0.83,5.84 8.76,6.47 14.81,7.3 -6.88,7.51 -4.38,4.59 -14.39,10.85l-28.78 16.69c-8.34,3.96 -8.97,4.8 -18.35,4.38 -2.71,1.25 4.8,1.04 3.96,2.71 -1.46,2.71 -11.89,8.13 -19.81,7.51 -32.12,2.5 -41.3,-27.74 -20.65,-26.28 2.09,2.92 2.29,8.97 8.55,10.64 10.01,2.5 13.14,-6.26 18.35,-7.3 3.96,-0.83 7.3,0.21 10.01,0.63 8.13,1.46 15.23,-0.63 18.56,-7.51 -6.88,3.55 -10.64,3.34 -20.65,-0.42 -59.64,-22.32 -69.44,33.16 -18.98,35.87 7.51,1.25 19.19,-2.09 26.49,-4.8l16.27 -6.67c6.67,-2.71 21.48,-12.93 20.02,-8.55l-0.43 -0.01z"/>
   <polygon class="fil1" points="462.36,590.79 896.75,590.79 896.75,597.68 462.36,597.68 "/>
   <polygon class="fil1" points="1304.26,590.79 1738.65,590.79 1738.65,597.68 1304.26,597.68 "/>
   <path class="fil0" d="M1191.02 990.58c3.34,-16.27 -48.8,-21.69 -50.06,-2.5 3.96,-0.21 18.56,-5.21 24.4,-0.83 9.8,7.3 6.26,22.94 -4.59,31.49 -23.78,18.98 -57.55,4.59 -49.64,-11.89 1.25,-3.96 8.97,-5.42 12.31,3.96 1.46,3.13 1.04,2.29 2.5,3.75 8.34,5.01 17.31,-4.38 14.39,-11.68 -4.17,-12.72 -34.83,-14.81 -38.17,7.72 -1.67,24.4 40.67,27.95 56.3,17.31 11.26,-8.55 22.94,-5.42 27.53,-2.29 -0.83,-5.84 -8.76,-6.47 -14.81,-7.3 6.88,-7.51 4.38,-4.59 14.39,-10.85l28.78 -16.69c8.34,-3.96 8.97,-4.8 18.35,-4.59 2.71,-1.25 -4.8,-1.04 -3.96,-2.71 1.46,-2.71 11.89,-8.13 19.81,-7.51 32.12,-2.5 41.3,27.74 20.65,26.28 -2.29,-2.92 -2.29,-8.97 -8.55,-10.64 -10.01,-2.5 -13.14,6.26 -18.35,7.3 -3.96,0.83 -7.3,-0.21 -10.01,-0.63 -8.13,-1.46 -15.23,0.63 -18.56,7.51 6.88,-3.55 10.64,-3.34 20.65,0.42 59.64,22.32 69.44,-33.16 18.98,-35.87 -7.51,-1.25 -19.19,2.09 -26.49,4.8l-16.27 6.67c-6.67,2.71 -21.48,12.93 -20.02,8.55l0.43 0.22z"/>
   <path class="fil0" d="M1003.94 990.58c-3.34,-16.27 48.8,-21.69 50.06,-2.5 -3.96,-0.21 -18.56,-5.21 -24.4,-0.83 -9.8,7.3 -6.26,22.94 4.59,31.49 23.78,18.98 57.55,4.59 49.64,-11.89 -1.25,-3.96 -8.76,-5.42 -12.31,3.96 -1.46,3.13 -1.04,2.29 -2.5,3.75 -8.34,5.01 -17.31,-4.38 -14.39,-11.68 4.17,-12.72 34.83,-14.81 38.17,7.72 1.67,24.4 -40.67,27.95 -56.3,17.31 -11.26,-8.55 -22.94,-5.42 -27.53,-2.29 0.83,-5.84 8.76,-6.47 14.81,-7.3 -6.88,-7.51 -4.38,-4.59 -14.39,-10.85l-28.78 -16.69c-8.34,-3.96 -8.97,-4.8 -18.35,-4.38 -2.71,-1.25 4.8,-1.04 3.96,-2.71 -1.46,-2.71 -11.89,-8.13 -19.81,-7.51 -32.12,-2.5 -41.3,27.74 -20.65,26.28 2.09,-2.92 2.29,-8.97 8.55,-10.64 10.01,-2.5 13.14,6.26 18.35,7.3 3.96,0.83 7.3,-0.21 10.01,-0.63 8.13,-1.46 15.23,0.63 18.56,7.51 -6.88,-3.55 -10.64,-3.34 -20.65,0.42 -59.64,22.32 -69.44,-33.16 -18.98,-35.87 7.51,-1.25 19.19,2.09 26.49,4.8l16.27 6.67c6.67,2.71 21.48,12.93 20.02,8.55l-0.43 0.01z"/>
   <polygon class="fil1" points="462.36,992.04 896.75,992.04 896.75,998.92 462.36,998.92 "/>
   <polygon class="fil1" points="1304.26,992.04 1738.65,992.04 1738.65,998.92 1304.26,998.92 "/>
   <path class="fil1" d="M919.9 366.41l14.39 0 -6.88 -20.44 -7.51 20.44zm-3.13 8.34l-3.55 9.59c-0.83,2.09 -1.46,3.96 -1.88,5.84 -0.42,1.67 -0.63,3.34 -0.63,4.8 0,0.21 0,0.63 0,0.83 0,0.21 0,0.63 0,1.25l-13.56 0c1.46,-2.29 2.92,-5.01 4.38,-7.93 1.46,-2.92 2.92,-6.05 4.17,-9.8l22.11 -55.89 21.48 57.97c0.83,2.09 1.88,4.59 3.13,7.09 1.25,2.5 2.92,5.42 4.8,8.34l-14.6 0c0,-0.63 0.21,-1.25 0.21,-1.88 0,-0.63 0,-1.04 0,-1.46 0,-1.04 0,-2.09 -0.21,-3.13 -0.21,-1.04 -0.63,-2.5 -1.25,-4.38l-3.96 -11.26 -20.65 0 0.01 0.02z"/>
   <path class="fil1" d="M1007.91 333.04c-3.96,0.21 -7.51,0.63 -10.43,1.25 -2.92,0.63 -5.42,1.67 -7.72,3.13l2.5 -12.31 43.38 0 -3.75 12.1c-1.88,-1.46 -4.17,-2.5 -6.67,-3.13 -2.5,-0.63 -5.42,-1.04 -8.97,-1.04l0 45.47c0,3.75 0.21,7.09 0.63,10.01 0.42,3.13 1.04,5.84 1.88,8.76l-13.77 0c0.83,-2.71 1.46,-5.63 1.88,-8.76 0.42,-3.13 0.63,-6.47 0.63,-10.01l0 -45.47 0.41 0z"/>
   <path class="fil1" d="M1070.69 397.06c0.83,-2.71 1.46,-5.63 1.88,-8.76 0.42,-3.13 0.63,-6.47 0.63,-10.01l0 -34.62c0,-3.75 -0.21,-7.09 -0.63,-10.22 -0.42,-3.13 -1.04,-5.84 -1.88,-8.55l31.49 0 -4.38 11.68c-1.88,-1.46 -3.96,-2.5 -6.47,-3.34 -2.5,-0.63 -5.42,-1.04 -8.55,-1.04l-0.63 0 0 24.82 17.73 0 -5.21 10.43c-1.46,-0.83 -3.13,-1.67 -5.21,-2.29 -2.09,-0.63 -4.59,-1.04 -7.3,-1.25l0 26.07c0.21,0 0.63,0 1.04,0 0.42,0 0.83,0 1.04,0 3.55,0 7.09,-0.42 10.64,-1.25 3.34,-0.83 6.88,-2.09 10.22,-3.96l-4.38 11.89 -30.03 0 0 0.4z"/>
   <path class="fil1" d="M1159.32 325.11c-0.83,2.71 -1.46,5.63 -1.88,8.55 -0.42,3.13 -0.63,6.47 -0.63,10.01l0 46.51c4.59,-0.42 8.55,-1.25 12.31,-2.29 3.55,-1.04 6.88,-2.5 9.8,-4.17 -1.04,2.5 -1.88,5.01 -2.5,7.09 -0.83,2.09 -1.46,4.17 -2.09,6.26l-28.78 0c0.83,-2.71 1.46,-5.63 1.88,-8.76 0.42,-3.13 0.63,-6.47 0.63,-10.01l0 -34.62c0,-3.75 -0.21,-7.09 -0.63,-10.01 -0.42,-3.13 -1.04,-5.84 -1.88,-8.55l13.77 0 0 -0.01z"/>
   <path class="fil1" d="M1227.51 325.11c-0.83,2.71 -1.46,5.63 -1.88,8.55 -0.42,3.13 -0.63,6.47 -0.63,10.01l0 34.62c0,3.75 0.21,7.09 0.63,10.01 0.42,3.13 1.04,5.84 1.88,8.76l-13.77 0c0.83,-2.71 1.46,-5.63 1.88,-8.76 0.42,-3.13 0.63,-6.47 0.63,-10.01l0 -34.62c0,-3.75 -0.21,-7.09 -0.63,-10.01 -0.42,-3.13 -1.04,-5.84 -1.88,-8.55l13.77 0z"/>
   <path class="fil1" d="M1269.43 397.06c0.83,-2.71 1.46,-5.63 1.88,-8.76 0.42,-3.13 0.63,-6.47 0.63,-10.01l0 -34.62c0,-3.75 -0.21,-7.09 -0.63,-10.22 -0.42,-3.13 -1.04,-5.84 -1.88,-8.55l31.49 0 -4.38 11.68c-1.88,-1.46 -3.96,-2.5 -6.47,-3.34 -2.5,-0.63 -5.42,-1.04 -8.55,-1.04l-0.63 0 0 24.82 17.73 0 -5.21 10.43c-1.46,-0.83 -3.13,-1.67 -5.21,-2.29 -2.09,-0.63 -4.59,-1.04 -7.3,-1.25l0 26.07c0.21,0 0.63,0 1.04,0 0.42,0 0.83,0 1.04,0 3.55,0 7.09,-0.42 10.64,-1.25 3.34,-0.83 6.88,-2.09 10.22,-3.96l-4.38 11.89 -30.03 0 0 0.4zm11.47 -93.01l8.13 0 6.88 16.27 -4.8 0 -6.05 -9.8 -6.26 9.8 -4.8 0 6.88 -16.27 0.02 0z"/>
  </g>
 </g>
</svg>
