<?xml version="1.0" encoding="UTF-8"?>
<!DOCTYPE svg PUBLIC "-//W3C//DTD SVG 1.1//EN" "http://www.w3.org/Graphics/SVG/1.1/DTD/svg11.dtd">
<!-- Creator: CorelDRAW -->
<svg xmlns="http://www.w3.org/2000/svg" xml:space="preserve" width="12.7641mm" height="4.7727mm" version="1.1" style="shape-rendering:geometricPrecision; text-rendering:geometricPrecision; image-rendering:optimizeQuality; fill-rule:evenodd; clip-rule:evenodd"
viewBox="0 0 120.88 45.2"
 xmlns:xlink="http://www.w3.org/1999/xlink"
 xmlns:xodm="http://www.corel.com/coreldraw/odm/2003">
 <defs>
  <style type="text/css">
   <![CDATA[
    .fil1 {fill:#6C5B5B}
    .fil0 {fill:#6C5B5B;fill-rule:nonzero}
   ]]>
  </style>
 </defs>
 <g id="Camada_x0020_1">
  <metadata id="CorelCorpID_0Corel-Layer"/>
  <path class="fil0" d="M14.44 13.97l0 6.14c0,0.71 0.04,1.34 0.14,1.9 0.08,0.57 0.22,1.09 0.39,1.58l-2.94 0c0.18,-0.49 0.32,-1.03 0.39,-1.58 0.08,-0.55 0.14,-1.18 0.14,-1.9l0 -8.51 -1.3 -1.42 2.9 0c0.02,0.32 0.2,0.71 0.53,1.18 0.02,0.02 0.02,0.04 0.04,0.06l3.85 5.33 3.89 -5.33c0.22,-0.3 0.38,-0.53 0.43,-0.71 0.08,-0.18 0.12,-0.36 0.14,-0.53l2.75 0c-0.38,0.34 -0.67,0.79 -0.87,1.38 -0.2,0.59 -0.32,1.26 -0.32,2.01l0 6.52c0,0.71 0.04,1.34 0.14,1.9 0.08,0.57 0.22,1.09 0.39,1.58l-2.96 0c0.18,-0.51 0.32,-1.05 0.41,-1.62 0.1,-0.57 0.14,-1.18 0.14,-1.88l0 -6.12 -4.17 5.57 -4.09 -5.59 -0.04 0.04zm14.36 4.09l3.44 0 0 -0.16c0,-0.85 -0.14,-1.5 -0.41,-1.92 -0.28,-0.43 -0.67,-0.63 -1.2,-0.63 -0.55,0 -0.99,0.22 -1.28,0.67 -0.3,0.45 -0.47,1.13 -0.53,2.03zm0 1.13c0,0.93 0.18,1.66 0.53,2.17 0.36,0.51 0.87,0.77 1.52,0.77 0.3,0 0.65,-0.06 1.03,-0.18 0.39,-0.12 0.85,-0.3 1.36,-0.55l-0.81 1.95c-0.36,0.12 -0.69,0.22 -1.03,0.28 -0.34,0.06 -0.65,0.1 -0.95,0.1 -1.13,0 -2,-0.41 -2.61,-1.22 -0.59,-0.81 -0.91,-1.99 -0.91,-3.53 0,-1.46 0.32,-2.63 0.95,-3.5 0.63,-0.87 1.48,-1.3 2.55,-1.3 0.99,0 1.72,0.36 2.21,1.09 0.49,0.71 0.75,1.78 0.75,3.2 0,0.2 0,0.36 0,0.45 0,0.1 0,0.2 -0.02,0.3l-4.6 0 0.02 -0.02zm6.67 -2.59c0,-0.43 -0.04,-0.85 -0.12,-1.24 -0.08,-0.38 -0.2,-0.75 -0.34,-1.09l2.63 0c-0.16,0.34 -0.28,0.69 -0.36,1.09 -0.08,0.38 -0.12,0.79 -0.12,1.24l0 4.64c0,0.45 0.04,0.87 0.12,1.26 0.08,0.38 0.2,0.75 0.36,1.09l-2.63 0c0.16,-0.34 0.28,-0.69 0.34,-1.09 0.08,-0.39 0.12,-0.81 0.12,-1.26l0 -4.64zm-0.38 -4.98c0,-0.38 0.12,-0.69 0.36,-0.95 0.24,-0.26 0.53,-0.38 0.87,-0.38 0.36,0 0.63,0.12 0.87,0.38 0.24,0.26 0.36,0.57 0.36,0.95 0,0.38 -0.12,0.69 -0.36,0.95 -0.24,0.26 -0.53,0.38 -0.87,0.38 -0.34,0 -0.63,-0.14 -0.87,-0.39 -0.24,-0.26 -0.36,-0.57 -0.36,-0.93zm6.38 4.5c0.39,-0.79 0.75,-1.3 1.09,-1.58 0.32,-0.28 0.69,-0.41 1.15,-0.41 0.18,0 0.38,0.02 0.55,0.06 0.18,0.04 0.36,0.1 0.51,0.18l-0.34 2.19c-0.16,-0.26 -0.36,-0.45 -0.59,-0.59 -0.24,-0.14 -0.49,-0.2 -0.77,-0.2 -0.3,0 -0.57,0.06 -0.83,0.2 -0.26,0.12 -0.51,0.32 -0.75,0.59l0 4.7c0,0.45 0.04,0.87 0.12,1.26 0.08,0.38 0.2,0.75 0.36,1.09l-2.63 0c0.16,-0.34 0.28,-0.69 0.34,-1.09 0.08,-0.39 0.12,-0.81 0.12,-1.26l0 -4.64c0,-0.43 -0.04,-0.85 -0.12,-1.22 -0.08,-0.38 -0.2,-0.75 -0.36,-1.09l2.17 0 0 1.84 -0.02 -0.02zm5.29 1.94l3.44 0 0 -0.16c0,-0.85 -0.14,-1.5 -0.41,-1.92 -0.28,-0.43 -0.67,-0.63 -1.2,-0.63 -0.55,0 -0.99,0.22 -1.28,0.67 -0.3,0.45 -0.47,1.13 -0.53,2.03zm0 1.13c0,0.93 0.18,1.66 0.53,2.17 0.36,0.51 0.87,0.77 1.52,0.77 0.3,0 0.65,-0.06 1.03,-0.18 0.39,-0.12 0.85,-0.3 1.36,-0.55l-0.81 1.95c-0.36,0.12 -0.69,0.22 -1.03,0.28 -0.34,0.06 -0.65,0.1 -0.95,0.1 -1.13,0 -2,-0.41 -2.61,-1.22 -0.59,-0.81 -0.91,-1.99 -0.91,-3.53 0,-1.46 0.32,-2.63 0.95,-3.5 0.63,-0.87 1.48,-1.3 2.55,-1.3 0.99,0 1.72,0.36 2.21,1.09 0.49,0.71 0.75,1.78 0.75,3.2 0,0.2 0,0.36 0,0.45 0,0.1 0,0.2 -0.02,0.3l-4.6 0 0.02 -0.02zm13.93 -5.23l0 6.14c0,0.71 0.04,1.34 0.14,1.9 0.08,0.57 0.22,1.09 0.39,1.58l-2.94 0c0.18,-0.49 0.32,-1.03 0.39,-1.58 0.08,-0.55 0.14,-1.18 0.14,-1.9l0 -8.51 -1.3 -1.42 2.9 0c0.02,0.32 0.2,0.71 0.53,1.18 0.02,0.02 0.04,0.04 0.04,0.06l3.85 5.33 3.89 -5.33c0.22,-0.3 0.38,-0.53 0.43,-0.71 0.08,-0.18 0.12,-0.36 0.14,-0.53l2.75 0c-0.38,0.34 -0.67,0.79 -0.87,1.38 -0.2,0.59 -0.32,1.26 -0.32,2.01l0 6.52c0,0.71 0.04,1.34 0.14,1.9 0.08,0.57 0.22,1.09 0.39,1.58l-2.96 0c0.18,-0.51 0.32,-1.05 0.41,-1.62 0.1,-0.57 0.14,-1.18 0.14,-1.88l0 -6.12 -4.17 5.57 -4.09 -5.59 -0.04 0.04zm17.44 8.33c0.47,-0.3 0.85,-0.75 1.13,-1.32 0.28,-0.59 0.41,-1.22 0.41,-1.92 0,-1.01 -0.26,-1.86 -0.77,-2.55 -0.51,-0.69 -1.13,-1.03 -1.84,-1.03 -0.59,0 -1.11,0.3 -1.5,0.89 -0.39,0.59 -0.61,1.34 -0.61,2.27 0,1.09 0.28,1.98 0.85,2.65 0.57,0.69 1.3,1.03 2.21,1.03l0.12 0 0 -0.02zm-1.05 -8.14c1.3,0 2.33,0.41 3.06,1.22 0.75,0.81 1.13,1.94 1.13,3.34 0,0.83 -0.14,1.56 -0.39,2.19 -0.26,0.63 -0.67,1.18 -1.2,1.66 -0.51,0.38 -1.01,0.67 -1.46,0.85 -0.45,0.18 -0.87,0.28 -1.26,0.28 -0.38,0 -0.75,-0.06 -1.13,-0.2 -0.38,-0.14 -0.73,-0.34 -1.05,-0.59 -0.51,-0.39 -0.91,-0.91 -1.18,-1.56 -0.28,-0.65 -0.41,-1.36 -0.41,-2.15 0.02,-1.44 0.38,-2.65 1.13,-3.61 0.73,-0.97 1.68,-1.44 2.81,-1.44l-0.02 0.02zm7.84 1.98c0.39,-0.79 0.75,-1.3 1.09,-1.58 0.32,-0.28 0.69,-0.41 1.15,-0.41 0.18,0 0.38,0.02 0.55,0.06 0.18,0.04 0.36,0.1 0.51,0.18l-0.34 2.19c-0.16,-0.26 -0.36,-0.45 -0.59,-0.59 -0.24,-0.14 -0.49,-0.2 -0.77,-0.2 -0.3,0 -0.57,0.06 -0.83,0.2 -0.26,0.12 -0.51,0.32 -0.75,0.59l0 4.7c0,0.45 0.04,0.87 0.12,1.26 0.08,0.38 0.2,0.75 0.36,1.09l-2.63 0c0.16,-0.34 0.28,-0.69 0.34,-1.09 0.08,-0.39 0.12,-0.81 0.12,-1.26l0 -4.64c0,-0.43 -0.04,-0.85 -0.12,-1.22 -0.08,-0.38 -0.2,-0.75 -0.36,-1.09l2.17 0 0 1.84 -0.02 -0.02zm7.66 5.99l0 -2.65 -2.19 0c-0.1,0.26 -0.18,0.51 -0.22,0.73 -0.06,0.24 -0.08,0.45 -0.08,0.67 0,0.43 0.14,0.77 0.39,0.99 0.26,0.22 0.65,0.34 1.17,0.34 0.12,0 0.26,0 0.39,-0.02 0.14,-0.02 0.32,-0.04 0.51,-0.06l0.02 0zm-3.44 -5.89l0.43 -1.7c0.36,-0.12 0.69,-0.2 1.03,-0.26 0.32,-0.06 0.63,-0.1 0.95,-0.1 0.87,0 1.52,0.24 1.98,0.73 0.45,0.49 0.69,1.2 0.69,2.13l0 4.25c0,0.45 0.04,0.87 0.12,1.26 0.08,0.38 0.2,0.75 0.34,1.09l-2.07 0 0 -1.32c-0.32,0.26 -0.57,0.47 -0.81,0.67 -0.22,0.2 -0.43,0.39 -0.61,0.59 -0.06,0.02 -0.12,0.04 -0.2,0.06 -0.08,0.02 -0.2,0.02 -0.36,0.02 -0.65,0 -1.18,-0.22 -1.64,-0.65 -0.43,-0.43 -0.67,-0.97 -0.67,-1.6 0,-0.65 0.24,-1.18 0.71,-1.64 0.47,-0.45 1.66,-1.09 3.56,-1.92 0,-0.04 0,-0.1 0,-0.16 0,-0.08 0,-0.12 0,-0.16 0,-0.63 -0.14,-1.09 -0.41,-1.42 -0.28,-0.32 -0.69,-0.47 -1.22,-0.47 -0.28,0 -0.57,0.06 -0.87,0.16 -0.3,0.1 -0.61,0.28 -0.97,0.49l0.04 -0.06zm8.83 1.84l3.44 0 0 -0.16c0,-0.85 -0.14,-1.5 -0.41,-1.92 -0.28,-0.43 -0.67,-0.63 -1.2,-0.63 -0.55,0 -0.99,0.22 -1.28,0.67 -0.3,0.45 -0.47,1.13 -0.53,2.03zm0 1.13c0,0.93 0.18,1.66 0.53,2.17 0.36,0.51 0.87,0.77 1.52,0.77 0.3,0 0.65,-0.06 1.03,-0.18 0.39,-0.12 0.85,-0.3 1.36,-0.55l-0.81 1.95c-0.36,0.12 -0.69,0.22 -1.03,0.28 -0.34,0.06 -0.65,0.1 -0.95,0.1 -1.13,0 -2,-0.41 -2.61,-1.22 -0.59,-0.81 -0.89,-1.99 -0.89,-3.53 0,-1.46 0.32,-2.63 0.95,-3.5 0.63,-0.87 1.48,-1.3 2.55,-1.3 0.99,0 1.72,0.36 2.21,1.09 0.49,0.71 0.75,1.78 0.75,3.2 0,0.2 0,0.36 0,0.45 0,0.1 0,0.2 -0.02,0.3l-4.6 0 0 -0.02zm6.2 4.21l0.12 -2.53c0.32,0.55 0.67,0.97 1.07,1.26 0.39,0.3 0.79,0.43 1.2,0.43 0.34,0 0.61,-0.12 0.83,-0.32 0.22,-0.22 0.32,-0.49 0.32,-0.85 0,-0.53 -0.41,-1.05 -1.24,-1.58 -0.2,-0.12 -0.36,-0.24 -0.47,-0.3 -0.55,-0.38 -0.97,-0.77 -1.22,-1.18 -0.26,-0.41 -0.38,-0.89 -0.38,-1.4 0,-0.83 0.3,-1.5 0.89,-2.01 0.59,-0.51 1.38,-0.77 2.35,-0.77 0.28,0 0.57,0.04 0.85,0.1 0.28,0.06 0.57,0.16 0.87,0.28l-0.02 1.8c-0.3,-0.32 -0.57,-0.55 -0.89,-0.69 -0.3,-0.16 -0.61,-0.24 -0.95,-0.24 -0.38,0 -0.67,0.12 -0.91,0.32 -0.22,0.22 -0.34,0.51 -0.34,0.87 0,0.53 0.43,1.07 1.28,1.58 0.16,0.08 0.26,0.16 0.34,0.2 0.61,0.38 1.05,0.77 1.3,1.18 0.26,0.41 0.39,0.89 0.39,1.42 0,0.83 -0.32,1.5 -0.93,1.99 -0.61,0.49 -1.44,0.75 -2.49,0.75 -0.3,0 -0.61,-0.02 -0.95,-0.08 -0.34,-0.06 -0.69,-0.14 -1.09,-0.26l0.06 0.02z"/>
  <path class="fil0" d="M27.42 30.7l0 3.48c0.04,0 0.08,0.02 0.12,0.02 0.04,0 0.1,0 0.18,0 0.53,0 0.95,-0.14 1.28,-0.43 0.32,-0.3 0.49,-0.67 0.49,-1.13 0,-0.47 -0.2,-0.89 -0.57,-1.24 -0.38,-0.36 -0.87,-0.57 -1.48,-0.67l-0.02 -0.02zm0 -3.24l0 3.02c0.53,-0.08 0.95,-0.26 1.24,-0.55 0.3,-0.3 0.45,-0.67 0.45,-1.11 0,-0.39 -0.16,-0.71 -0.47,-0.97 -0.32,-0.26 -0.73,-0.39 -1.22,-0.39zm-1.72 7.47c0.14,-0.32 0.22,-0.65 0.3,-0.99 0.06,-0.36 0.1,-0.73 0.1,-1.15l0 -3.95c0,-0.41 -0.04,-0.81 -0.1,-1.17 -0.06,-0.36 -0.16,-0.67 -0.3,-0.99l1.48 0c0.53,0 0.99,0.02 1.36,0.08 0.36,0.06 0.65,0.14 0.87,0.26 0.38,0.2 0.67,0.45 0.87,0.75 0.2,0.3 0.32,0.63 0.32,0.99 0,0.38 -0.12,0.73 -0.32,1.03 -0.22,0.32 -0.53,0.55 -0.93,0.75 0.53,0.28 0.95,0.59 1.22,0.95 0.28,0.36 0.41,0.73 0.41,1.17 0,0.69 -0.32,1.24 -0.93,1.66 -0.61,0.39 -1.46,0.61 -2.53,0.61l-1.8 0 -0.04 -0zm9.66 -0.79c0.34,-0.18 0.59,-0.45 0.79,-0.81 0.2,-0.36 0.3,-0.75 0.3,-1.18 0,-0.61 -0.18,-1.15 -0.53,-1.56 -0.36,-0.41 -0.79,-0.63 -1.28,-0.63 -0.43,0 -0.79,0.18 -1.07,0.55 -0.28,0.36 -0.43,0.83 -0.43,1.4 0,0.67 0.2,1.2 0.59,1.64 0.39,0.41 0.93,0.63 1.56,0.63l0.08 0 0 -0.04zm-0.75 -5c0.91,0 1.64,0.26 2.17,0.75 0.53,0.49 0.79,1.18 0.79,2.05 0,0.51 -0.1,0.97 -0.28,1.34 -0.18,0.39 -0.47,0.73 -0.85,1.03 -0.38,0.24 -0.71,0.41 -1.03,0.53 -0.32,0.12 -0.61,0.18 -0.89,0.18 -0.26,0 -0.53,-0.04 -0.79,-0.12 -0.26,-0.08 -0.51,-0.2 -0.75,-0.36 -0.38,-0.24 -0.65,-0.55 -0.85,-0.95 -0.2,-0.39 -0.3,-0.83 -0.3,-1.32 0,-0.89 0.28,-1.64 0.79,-2.21 0.51,-0.59 1.18,-0.89 2,-0.89l-0.02 -0.04zm5.81 -2.45c-0.1,0.3 -0.16,0.61 -0.22,0.97 -0.04,0.36 -0.06,0.77 -0.06,1.2l0 4.64c0,0.3 0.02,0.55 0.08,0.79 0.06,0.24 0.14,0.45 0.24,0.65l-1.84 0c0.1,-0.2 0.2,-0.41 0.24,-0.67 0.06,-0.24 0.08,-0.49 0.08,-0.77l0 -5.02c0,-0.28 -0.02,-0.53 -0.08,-0.77 -0.06,-0.24 -0.14,-0.45 -0.24,-0.67 0.28,-0.06 0.57,-0.12 0.87,-0.18 0.3,-0.06 0.61,-0.12 0.93,-0.18l0 0zm4.58 7.45c0.34,-0.18 0.59,-0.45 0.79,-0.81 0.2,-0.36 0.3,-0.75 0.3,-1.18 0,-0.61 -0.18,-1.15 -0.53,-1.56 -0.36,-0.41 -0.79,-0.63 -1.28,-0.63 -0.43,0 -0.79,0.18 -1.07,0.55 -0.28,0.36 -0.43,0.83 -0.43,1.4 0,0.67 0.2,1.2 0.59,1.64 0.39,0.41 0.93,0.63 1.56,0.63l0.08 0 0 -0.04zm-0.75 -5c0.91,0 1.64,0.26 2.17,0.75 0.53,0.49 0.79,1.18 0.79,2.05 0,0.51 -0.1,0.97 -0.28,1.34 -0.18,0.39 -0.47,0.73 -0.85,1.03 -0.38,0.24 -0.71,0.41 -1.03,0.53 -0.32,0.12 -0.61,0.18 -0.89,0.18 -0.26,0 -0.53,-0.04 -0.79,-0.12 -0.26,-0.08 -0.51,-0.2 -0.75,-0.36 -0.38,-0.24 -0.65,-0.55 -0.85,-0.95 -0.2,-0.39 -0.3,-0.83 -0.3,-1.32 0,-0.89 0.28,-1.64 0.79,-2.21 0.51,-0.59 1.18,-0.89 2,-0.89l-0.02 -0.04zm4.01 5.67l0.08 -1.56c0.22,0.34 0.47,0.59 0.75,0.77 0.28,0.18 0.55,0.28 0.85,0.28 0.24,0 0.43,-0.06 0.59,-0.2 0.16,-0.14 0.22,-0.32 0.22,-0.51 0,-0.32 -0.3,-0.65 -0.87,-0.97 -0.14,-0.08 -0.26,-0.14 -0.34,-0.18 -0.39,-0.24 -0.69,-0.47 -0.87,-0.73 -0.18,-0.26 -0.28,-0.53 -0.28,-0.87 0,-0.51 0.22,-0.91 0.63,-1.24 0.41,-0.32 0.97,-0.47 1.66,-0.47 0.2,0 0.39,0.02 0.59,0.06 0.2,0.04 0.41,0.1 0.61,0.18l-0.02 1.11c-0.2,-0.2 -0.41,-0.34 -0.63,-0.43 -0.22,-0.1 -0.43,-0.14 -0.67,-0.14 -0.28,0 -0.47,0.06 -0.63,0.2 -0.16,0.14 -0.24,0.32 -0.24,0.53 0,0.34 0.3,0.65 0.91,0.97 0.1,0.06 0.18,0.1 0.24,0.12 0.43,0.24 0.73,0.47 0.93,0.73 0.18,0.26 0.28,0.55 0.28,0.87 0,0.51 -0.22,0.93 -0.65,1.22 -0.43,0.3 -1.03,0.45 -1.76,0.45 -0.2,0 -0.43,-0.02 -0.67,-0.06 -0.24,-0.04 -0.49,-0.08 -0.77,-0.16l0.06 0.04zm9.72 -3.28l2.43 0 0 -0.1c0,-0.53 -0.1,-0.93 -0.3,-1.18 -0.2,-0.26 -0.47,-0.39 -0.85,-0.39 -0.39,0 -0.69,0.14 -0.91,0.41 -0.22,0.28 -0.34,0.69 -0.38,1.24l0 0.02zm0 0.69c0,0.57 0.12,1.01 0.38,1.32 0.26,0.32 0.61,0.47 1.07,0.47 0.22,0 0.45,-0.04 0.73,-0.12 0.28,-0.08 0.59,-0.18 0.97,-0.34l-0.57 1.2c-0.26,0.08 -0.49,0.14 -0.73,0.18 -0.24,0.04 -0.45,0.06 -0.67,0.06 -0.81,0 -1.42,-0.26 -1.84,-0.75 -0.41,-0.49 -0.63,-1.22 -0.63,-2.17 0,-0.89 0.22,-1.62 0.67,-2.15 0.45,-0.53 1.05,-0.79 1.8,-0.79 0.69,0 1.2,0.22 1.56,0.67 0.36,0.43 0.53,1.11 0.53,1.96 0,0.12 0,0.22 0,0.28 0,0.06 0,0.12 -0.02,0.18l-3.24 0 0 -0zm8.08 2.71c0.14,-0.32 0.22,-0.65 0.3,-0.99 0.06,-0.36 0.1,-0.73 0.1,-1.15l0 -3.95c0,-0.41 -0.04,-0.81 -0.1,-1.17 -0.06,-0.36 -0.16,-0.67 -0.3,-0.99l1.03 0c0.67,0 1.22,0.04 1.68,0.1 0.45,0.06 0.87,0.16 1.24,0.3 0.83,0.32 1.5,0.81 2,1.48 0.49,0.67 0.73,1.42 0.73,2.25 0,0.79 -0.18,1.48 -0.55,2.11 -0.38,0.63 -0.89,1.11 -1.56,1.46 -0.38,0.2 -0.79,0.34 -1.26,0.41 -0.47,0.1 -1.07,0.14 -1.8,0.14l-1.5 0 -0 -0.02zm1.72 -0.77l0.06 0c0.28,0 0.53,-0.02 0.77,-0.08 0.26,-0.06 0.49,-0.14 0.71,-0.26 0.59,-0.28 1.07,-0.69 1.4,-1.2 0.34,-0.53 0.51,-1.11 0.51,-1.74 0,-0.91 -0.32,-1.68 -0.93,-2.29 -0.63,-0.61 -1.46,-0.99 -2.51,-1.11l0 6.68 -0.02 -0zm9.44 -0.02c0.34,-0.18 0.59,-0.45 0.79,-0.81 0.2,-0.36 0.3,-0.75 0.3,-1.18 0,-0.61 -0.18,-1.15 -0.53,-1.56 -0.36,-0.41 -0.79,-0.63 -1.28,-0.63 -0.43,0 -0.79,0.18 -1.07,0.55 -0.28,0.36 -0.43,0.83 -0.43,1.4 0,0.67 0.2,1.2 0.59,1.64 0.39,0.41 0.93,0.63 1.56,0.63l0.08 0 0 -0.04zm-0.75 -5c0.91,0 1.64,0.26 2.17,0.75 0.53,0.49 0.79,1.18 0.79,2.05 0,0.51 -0.1,0.97 -0.28,1.34 -0.18,0.39 -0.47,0.73 -0.85,1.03 -0.38,0.24 -0.71,0.41 -1.03,0.53 -0.32,0.12 -0.61,0.18 -0.89,0.18 -0.26,0 -0.53,-0.04 -0.79,-0.12 -0.26,-0.08 -0.51,-0.2 -0.75,-0.36 -0.38,-0.24 -0.65,-0.55 -0.85,-0.95 -0.2,-0.39 -0.3,-0.83 -0.3,-1.32 0,-0.89 0.28,-1.64 0.79,-2.21 0.51,-0.59 1.18,-0.89 2,-0.89l-0.02 -0.04zm7.76 5.77c-0.14,0.04 -0.26,0.06 -0.39,0.08 -0.14,0.02 -0.28,0.02 -0.45,0.02 -0.93,0 -1.68,-0.26 -2.23,-0.77 -0.55,-0.51 -0.83,-1.18 -0.83,-2.03 0,-0.91 0.32,-1.64 0.93,-2.23 0.61,-0.57 1.42,-0.87 2.41,-0.87 0.18,0 0.38,0.02 0.57,0.04 0.2,0.02 0.41,0.06 0.65,0.12l-0.1 1.3c-0.22,-0.24 -0.43,-0.39 -0.67,-0.51 -0.22,-0.1 -0.47,-0.16 -0.73,-0.16 -0.53,0 -0.97,0.18 -1.28,0.53 -0.32,0.36 -0.47,0.85 -0.47,1.48 0,0.69 0.18,1.22 0.55,1.62 0.36,0.38 0.87,0.57 1.52,0.57 0.2,0 0.41,-0.02 0.63,-0.06 0.22,-0.04 0.41,-0.12 0.63,-0.2l-0.71 1.03 -0.02 0.04zm2.61 -3.38l2.43 0 0 -0.1c0,-0.53 -0.1,-0.93 -0.3,-1.18 -0.2,-0.26 -0.47,-0.39 -0.85,-0.39 -0.39,0 -0.69,0.14 -0.91,0.41 -0.22,0.28 -0.34,0.69 -0.38,1.24l0 0.02zm0 0.69c0,0.57 0.12,1.01 0.38,1.32 0.26,0.32 0.61,0.47 1.07,0.47 0.22,0 0.45,-0.04 0.73,-0.12 0.28,-0.08 0.59,-0.18 0.97,-0.34l-0.57 1.2c-0.26,0.08 -0.49,0.14 -0.73,0.18 -0.24,0.04 -0.45,0.06 -0.67,0.06 -0.81,0 -1.42,-0.26 -1.84,-0.75 -0.41,-0.49 -0.63,-1.22 -0.63,-2.17 0,-0.89 0.22,-1.62 0.67,-2.15 0.45,-0.53 1.05,-0.79 1.8,-0.79 0.69,0 1.2,0.22 1.56,0.67 0.36,0.43 0.53,1.11 0.53,1.96 0,0.12 0,0.22 0,0.28 0,0.06 0,0.12 -0.02,0.18l-3.24 0 0 -0zm4.38 2.59l0.08 -1.56c0.22,0.34 0.47,0.59 0.75,0.77 0.28,0.18 0.55,0.28 0.85,0.28 0.24,0 0.43,-0.06 0.59,-0.2 0.16,-0.14 0.22,-0.32 0.22,-0.51 0,-0.32 -0.3,-0.65 -0.87,-0.97 -0.14,-0.08 -0.26,-0.14 -0.34,-0.18 -0.39,-0.24 -0.69,-0.47 -0.87,-0.73 -0.18,-0.26 -0.28,-0.53 -0.28,-0.87 0,-0.51 0.22,-0.91 0.63,-1.24 0.41,-0.32 0.97,-0.47 1.66,-0.47 0.2,0 0.39,0.02 0.59,0.06 0.2,0.04 0.41,0.1 0.61,0.18l-0.02 1.11c-0.2,-0.2 -0.41,-0.34 -0.63,-0.43 -0.22,-0.1 -0.43,-0.14 -0.67,-0.14 -0.28,0 -0.47,0.06 -0.63,0.2 -0.16,0.14 -0.24,0.32 -0.24,0.53 0,0.34 0.3,0.65 0.91,0.97 0.1,0.06 0.18,0.1 0.24,0.12 0.43,0.24 0.73,0.47 0.93,0.73 0.18,0.26 0.28,0.55 0.28,0.87 0,0.51 -0.22,0.93 -0.65,1.22 -0.43,0.3 -1.03,0.45 -1.76,0.45 -0.2,0 -0.43,-0.02 -0.67,-0.06 -0.24,-0.04 -0.49,-0.08 -0.77,-0.16l0.06 0.04z"/>
  <path class="fil1" d="M69.01 4.07c0.32,1.54 -4.62,2.05 -4.74,0.24 0.38,0.02 1.76,0.49 2.31,0.08 0.93,-0.69 0.59,-2.17 -0.43,-2.98 -2.25,-1.8 -5.45,-0.43 -4.7,1.13 0.12,0.38 0.85,0.51 1.17,-0.38 0.14,-0.3 0.1,-0.22 0.24,-0.36 0.79,-0.47 1.64,0.41 1.36,1.11 -0.39,1.2 -3.3,1.4 -3.61,-0.73 -0.16,-2.31 3.85,-2.65 5.33,-1.64 1.07,0.81 2.17,0.51 2.61,0.22 -0.08,0.55 -0.83,0.61 -1.4,0.69 0.65,0.71 0.41,0.43 1.36,1.03l2.73 1.58c0.79,0.38 0.85,0.45 1.74,0.41 0.26,0.12 -0.45,0.1 -0.38,0.26 0.14,0.26 1.13,0.77 1.88,0.71 3.04,0.24 3.91,-2.63 1.96,-2.49 -0.22,0.28 -0.22,0.85 -0.81,1.01 -0.95,0.24 -1.24,-0.59 -1.74,-0.69 -0.38,-0.08 -0.69,0.02 -0.95,0.06 -0.77,0.14 -1.44,-0.06 -1.76,-0.71 0.65,0.34 1.01,0.32 1.96,-0.04 5.65,-2.11 6.58,3.14 1.8,3.4 -0.71,0.12 -1.82,-0.2 -2.51,-0.45l-1.54 -0.63c-0.63,-0.26 -2.03,-1.22 -1.9,-0.81l0.04 -0z"/>
  <path class="fil1" d="M51.3 4.07c-0.32,1.54 4.62,2.05 4.74,0.24 -0.38,0.02 -1.76,0.49 -2.31,0.08 -0.93,-0.69 -0.59,-2.17 0.43,-2.98 2.25,-1.8 5.45,-0.43 4.7,1.13 -0.12,0.38 -0.83,0.51 -1.17,-0.38 -0.14,-0.3 -0.1,-0.22 -0.24,-0.36 -0.79,-0.47 -1.64,0.41 -1.36,1.11 0.39,1.2 3.3,1.4 3.61,-0.73 0.16,-2.31 -3.85,-2.65 -5.33,-1.64 -1.07,0.81 -2.17,0.51 -2.61,0.22 0.08,0.55 0.83,0.61 1.4,0.69 -0.65,0.71 -0.41,0.43 -1.36,1.03l-2.73 1.58c-0.79,0.38 -0.85,0.45 -1.74,0.41 -0.26,0.12 0.45,0.1 0.38,0.26 -0.14,0.26 -1.13,0.77 -1.88,0.71 -3.04,0.24 -3.91,-2.63 -1.96,-2.49 0.2,0.28 0.22,0.85 0.81,1.01 0.95,0.24 1.24,-0.59 1.74,-0.69 0.38,-0.08 0.69,0.02 0.95,0.06 0.77,0.14 1.44,-0.06 1.76,-0.71 -0.65,0.34 -1.01,0.32 -1.96,-0.04 -5.65,-2.11 -6.58,3.14 -1.8,3.4 0.71,0.12 1.82,-0.2 2.51,-0.45l1.54 -0.63c0.63,-0.26 2.03,-1.22 1.9,-0.81l-0.04 -0z"/>
  <polygon class="fil0" points="-0,3.26 41.14,3.26 41.14,3.92 -0,3.92 "/>
  <polygon class="fil0" points="79.74,3.26 120.88,3.26 120.88,3.92 79.74,3.92 "/>
  <path class="fil1" d="M69.01 41.13c0.32,-1.54 -4.62,-2.05 -4.74,-0.24 0.38,-0.02 1.76,-0.49 2.31,-0.08 0.93,0.69 0.59,2.17 -0.43,2.98 -2.25,1.8 -5.45,0.43 -4.7,-1.13 0.12,-0.38 0.85,-0.51 1.17,0.38 0.14,0.3 0.1,0.22 0.24,0.36 0.79,0.47 1.64,-0.41 1.36,-1.11 -0.39,-1.2 -3.3,-1.4 -3.61,0.73 -0.16,2.31 3.85,2.65 5.33,1.64 1.07,-0.81 2.17,-0.51 2.61,-0.22 -0.08,-0.55 -0.83,-0.61 -1.4,-0.69 0.65,-0.71 0.41,-0.43 1.36,-1.03l2.73 -1.58c0.79,-0.38 0.85,-0.45 1.74,-0.43 0.26,-0.12 -0.45,-0.1 -0.38,-0.26 0.14,-0.26 1.13,-0.77 1.88,-0.71 3.04,-0.24 3.91,2.63 1.96,2.49 -0.22,-0.28 -0.22,-0.85 -0.81,-1.01 -0.95,-0.24 -1.24,0.59 -1.74,0.69 -0.38,0.08 -0.69,-0.02 -0.95,-0.06 -0.77,-0.14 -1.44,0.06 -1.76,0.71 0.65,-0.34 1.01,-0.32 1.96,0.04 5.65,2.11 6.58,-3.14 1.8,-3.4 -0.71,-0.12 -1.82,0.2 -2.51,0.45l-1.54 0.63c-0.63,0.26 -2.03,1.22 -1.9,0.81l0.04 0.02z"/>
  <path class="fil1" d="M51.3 41.13c-0.32,-1.54 4.62,-2.05 4.74,-0.24 -0.38,-0.02 -1.76,-0.49 -2.31,-0.08 -0.93,0.69 -0.59,2.17 0.43,2.98 2.25,1.8 5.45,0.43 4.7,-1.13 -0.12,-0.38 -0.83,-0.51 -1.17,0.38 -0.14,0.3 -0.1,0.22 -0.24,0.36 -0.79,0.47 -1.64,-0.41 -1.36,-1.11 0.39,-1.2 3.3,-1.4 3.61,0.73 0.16,2.31 -3.85,2.65 -5.33,1.64 -1.07,-0.81 -2.17,-0.51 -2.61,-0.22 0.08,-0.55 0.83,-0.61 1.4,-0.69 -0.65,-0.71 -0.41,-0.43 -1.36,-1.03l-2.73 -1.58c-0.79,-0.38 -0.85,-0.45 -1.74,-0.41 -0.26,-0.12 0.45,-0.1 0.38,-0.26 -0.14,-0.26 -1.13,-0.77 -1.88,-0.71 -3.04,-0.24 -3.91,2.63 -1.96,2.49 0.2,-0.28 0.22,-0.85 0.81,-1.01 0.95,-0.24 1.24,0.59 1.74,0.69 0.38,0.08 0.69,-0.02 0.95,-0.06 0.77,-0.14 1.44,0.06 1.76,0.71 -0.65,-0.34 -1.01,-0.32 -1.96,0.04 -5.65,2.11 -6.58,-3.14 -1.8,-3.4 0.71,-0.12 1.82,0.2 2.51,0.45l1.54 0.63c0.63,0.26 2.03,1.22 1.9,0.81l-0.04 0z"/>
  <polygon class="fil0" points="-0,41.27 41.14,41.27 41.14,41.92 -0,41.92 "/>
  <polygon class="fil0" points="79.74,41.27 120.88,41.27 120.88,41.92 79.74,41.92 "/>
 </g>
</svg>
